<svg width="48" height="46" viewBox="0 0 48 46" fill="none" xmlns="http://www.w3.org/2000/svg">
<path d="M7.88901 0.595352C6.96319 0.841637 6.17733 1.43976 5.69289 2.27536C5.57447 2.46888 5.53141 3.0494 5.49911 4.5447C5.45605 6.70848 5.49911 6.8932 6.04814 7.06032C6.34957 7.14828 6.84477 7.01634 6.98472 6.80524C7.04932 6.70848 7.09238 5.8289 7.09238 4.79978C7.09238 3.0494 7.10314 2.94385 7.33998 2.58322C7.84595 1.79159 9.09472 1.5629 9.95595 2.09945C10.6557 2.53924 10.6449 2.46888 10.6449 7.20105V11.4671H8.86865H7.09238V10.1477C7.09238 8.94264 7.07085 8.8107 6.87707 8.65237C6.55411 8.3885 5.98355 8.41489 5.70365 8.70515C5.49911 8.91625 5.47758 9.05698 5.47758 10.2004V11.4671H4.77784C2.84008 11.4671 1.17146 12.2499 0.428657 13.5165C-0.72323 15.4692 0.53631 17.8089 3.13075 18.495L3.52906 18.6005L3.56136 22.7082C3.61519 27.3436 3.59365 27.2469 4.47641 28.707C4.89626 29.4018 5.13309 29.6657 5.89743 30.2902C7.39381 31.5129 9.01936 32.0758 11.3016 32.1901L12.4427 32.2517L12.5719 33.0081C13.1209 36.2274 14.9726 39.1565 17.933 41.461C20.7643 43.6687 24.08 44.9617 28.0201 45.3839C32.1755 45.8325 36.5462 44.9705 40.1957 42.9739C41.8751 42.0503 44.4157 39.9657 44.6094 39.3412C44.7063 39.0069 44.2757 38.6199 43.802 38.6199C43.5006 38.6199 43.3714 38.6815 43.0592 39.0069C41.5952 40.4846 39.4529 41.936 37.5474 42.7276C29.0751 46.2459 18.7081 43.0706 15.1771 35.8756C14.7465 34.9872 14.2728 33.5535 14.1436 32.6827L14.0683 32.2253H16.5012H18.9342L18.9773 32.4188C19.5586 34.6002 20.3983 35.9548 22.0346 37.3445C23.5525 38.6287 25.318 39.4819 27.4173 39.9393C28.3323 40.1416 28.6768 40.168 30.1839 40.168C31.7126 40.168 32.0356 40.1416 32.9829 39.9393C37.0307 39.0509 40.0773 36.5617 41.1968 33.2105L41.4875 32.3573L41.5198 25.8219L41.5521 19.2954H43.9743H46.3965L46.3534 25.9978C46.3211 32.4452 46.3104 32.7443 46.0951 33.5271C45.8152 34.4947 45.3953 35.5765 44.9647 36.3418C44.5987 37.0279 44.5879 37.1862 44.9324 37.4589C45.4276 37.8723 46.0089 37.6876 46.3965 36.9927C46.8809 36.1043 47.3654 34.8905 47.6453 33.8701L47.9359 32.797L47.9682 25.6196C48.0113 18.794 48.0005 18.4334 47.8175 18.2487C47.6991 18.1255 47.4515 18.0376 47.1931 18.0024L46.7625 17.9584L46.7948 17.202C46.8379 16.2344 46.558 15.3109 45.6429 13.367C45.2769 12.6017 44.9109 11.7397 44.8247 11.4671C44.6202 10.825 44.6202 10.0333 44.814 9.72547C45.1369 9.21531 46.0843 8.70515 47.107 8.48525C47.9359 8.30054 48.2481 7.76399 47.7852 7.35059C47.4945 7.0955 47.0101 7.1043 46.1381 7.35938C44.1142 7.9575 43.1561 8.87227 43.07 10.2796C43.0162 11.1944 43.1884 11.7925 44.0927 13.7364C45.1477 16.0233 45.3522 16.8061 45.1369 17.7033L45.0616 17.9848L44.1035 17.9584L43.1346 17.932L42.9301 17.4834C42.6286 16.8237 42.1011 16.3839 40.7447 15.6627C38.7208 14.572 38.5593 14.2641 38.9146 12.2851C38.9792 11.9684 38.9469 11.8893 38.7101 11.6957C38.3656 11.4143 37.9457 11.4055 37.6228 11.6694C37.3106 11.9244 37.063 13.0855 37.1706 13.8595C37.2567 14.528 37.6551 15.2757 38.1826 15.7243C38.3979 15.909 39.1299 16.3576 39.7974 16.7182C40.5079 17.1052 41.1107 17.501 41.2291 17.6593L41.4337 17.932L40.8846 17.9936C39.905 18.0903 39.9911 17.4307 39.9158 25.303C39.8619 32.1989 39.8619 32.2781 39.6143 32.9642C38.7854 35.3566 36.6969 37.3357 34.0272 38.2417C32.6169 38.7255 31.7557 38.8662 30.1839 38.8574C27.568 38.8486 25.458 38.1801 23.5956 36.764C22.2392 35.7349 21.2164 34.3363 20.7751 32.929L20.5705 32.2693L21.0227 32.2429C21.2595 32.2341 21.8516 32.1813 22.3253 32.1374C25.501 31.8119 27.9125 30.1583 28.9567 27.6075C29.2043 27.0006 29.2151 26.9214 29.2474 22.8049L29.2797 18.6269L29.8933 18.4598C30.6361 18.2487 31.5942 17.6857 31.9817 17.2196C32.6277 16.4631 32.7676 16.0673 32.7676 15.0734C32.7676 14.2202 32.7461 14.1058 32.4339 13.5781C31.6157 12.1883 30.1409 11.4671 28.117 11.4671H27.3419L27.3096 6.95477L27.2773 2.45128L26.9866 2.00269C26.6422 1.47494 25.9747 0.964779 25.2965 0.709698C24.5968 0.445824 23.2834 0.445824 22.5729 0.709698C21.927 0.947189 21.2057 1.54531 20.8612 2.09945L20.6028 2.53924L20.5705 6.99875L20.5382 11.4671H16.4044H12.2705L12.2382 6.95477L12.2059 2.45128L11.9152 2.00269C11.5707 1.46614 10.9033 0.955982 10.2251 0.709698C9.61146 0.489803 8.4811 0.42823 7.88901 0.595352ZM24.7905 1.9939C25.0274 2.09945 25.318 2.30175 25.4364 2.43369C25.6625 2.67997 25.6625 2.77673 25.6948 7.07791L25.7271 11.4671H23.9401H22.1638V7.21865V2.96144L22.4114 2.58322C22.8743 1.86196 23.9508 1.59808 24.7905 1.9939ZM29.6564 13.0239C30.6899 13.4725 31.1959 14.1498 31.2066 15.0646C31.2066 15.7682 30.9483 16.2432 30.2916 16.7358C29.4196 17.3955 30.1839 17.3603 16.4044 17.3603C2.78626 17.3603 3.45371 17.3867 2.59248 16.7798C1.89274 16.296 1.6559 15.865 1.6559 15.0734C1.6559 14.2817 1.89274 13.8507 2.59248 13.367C3.44294 12.7688 2.70013 12.7952 16.6197 12.8128L29.2151 12.8304L29.6564 13.0239ZM27.6541 22.5235C27.6541 25.602 27.6218 26.4904 27.4926 26.9214C26.9866 28.663 25.3288 30.1143 23.1865 30.6684C22.4437 30.862 22.336 30.862 16.4044 30.862H10.3758L9.51457 30.6245C7.53375 30.0703 6.18809 28.962 5.46682 27.2996C5.21921 26.7367 5.20845 26.6487 5.17615 22.6994L5.14386 18.6797H16.3936H27.6541V22.5235Z" fill="#454545"/>
<path d="M16.1568 19.1809C15.7908 19.3481 12.3675 23.0511 12.0768 23.5965C11.8507 24.0363 11.9799 24.4497 12.4751 24.8543L12.8842 25.1885H13.9715H15.0588V27.1236C15.0588 29.2522 15.1126 29.5073 15.6724 29.8327C16.1138 30.0878 16.6736 30.1582 17.1257 29.9999C17.5348 29.8591 17.5671 29.8239 20.0969 26.9917L21.4318 25.5052L21.3888 25.039C21.3027 24.1858 20.6783 23.8691 19.1281 23.8691H18.2884V21.8637C18.2884 20.0693 18.2668 19.8406 18.0838 19.5943C17.7071 19.0842 16.8243 18.8907 16.1568 19.1809ZM16.8566 24.5288C16.9212 24.6256 17.1042 24.8015 17.2657 24.9246C17.524 25.1181 17.664 25.1533 18.6221 25.1885L19.6879 25.2325L18.2023 26.8773L16.7274 28.5134L16.6736 26.6046C16.6305 24.9774 16.5875 24.6608 16.426 24.4585C16.103 24.045 15.7585 23.9307 14.7358 23.8779L13.7777 23.8252L15.1987 22.2419L16.6198 20.6586L16.6736 22.5058C16.7059 23.6668 16.7705 24.4145 16.8566 24.5288Z" fill="#454545"/>
</svg>
