<svg width="48" height="48" viewBox="0 0 48 48" fill="none" xmlns="http://www.w3.org/2000/svg">
<path d="M0.1875 0.237038C0 0.474075 0 0.628147 0 11.4963C0 22.3644 0 22.5185 0.1875 22.7556C0.421875 23.0519 0.76875 23.0637 0.975 22.7674C1.05938 22.6489 1.17188 22.2459 1.21875 21.8904C1.33125 20.9541 1.54688 20.4681 2.07188 19.8637C2.91563 18.9037 3.83438 18.8563 6.00938 19.6504C7.875 20.3378 8.45625 20.4444 10.2656 20.4326C11.7094 20.4207 12.0281 20.3852 13.5844 19.9822C14.5313 19.7452 16.0125 19.4607 16.8656 19.3541C18.5719 19.1526 18.75 19.0578 18.75 18.4296C18.75 17.837 18.5906 17.7541 17.625 17.7896L16.7812 17.837V15.4904V13.1556H24H31.2188V18.1926V23.2296H30.9375C30.7219 23.2296 30.525 23.0637 30.0656 22.5067C29.7469 22.1037 29.1281 21.44 28.6875 21.0252C27.7781 20.1481 25.725 18.8089 25.4063 18.8681C25.2844 18.88 25.1063 19.0341 25.0125 19.2119C24.6938 19.7452 24.8906 20.0415 25.9313 20.6696C28.1719 22.0089 29.6531 23.7037 31.2375 26.7259C32.3344 28.8119 33.0844 29.8311 34.1719 30.7319C35.6531 31.9407 36.8063 32.3319 39.2344 32.4741C41.25 32.5807 41.7938 32.7348 43.0781 33.5763C43.6313 33.9437 44.0438 34.3348 44.6344 35.0815C45.5438 36.2193 46.0781 37.2622 46.4719 38.6963C46.7344 39.6326 46.7344 39.68 46.7625 43.0459L46.7906 46.4593L36.375 46.483L25.95 46.5185L25.7719 46.803C25.5469 47.1585 25.5469 47.3007 25.7906 47.6919L25.9781 48H36.8063C47.5031 48 47.625 48 47.8125 47.763C48 47.5259 48 47.3719 48 24C48 0.628147 48 0.474075 47.8125 0.237038C47.625 0 47.5031 0 24 0C0.496875 0 0.375 0 0.1875 0.237038ZM7.78125 6.57778V11.6148H4.5H1.21875V6.57778V1.54074H4.5H7.78125V6.57778ZM23.4375 6.57778V11.6148H16.2188H9V6.57778V1.54074H16.2188H23.4375V6.57778ZM39 6.57778V11.6148H31.7813H24.5625V6.57778V1.54074H31.7813H39V6.57778ZM46.7812 6.57778V11.6148H43.5H40.2188V6.57778V1.54074H43.5H46.7812V6.57778ZM15.5625 15.5852C15.5625 18.003 15.5625 18.0148 15.3563 18.0622C12.7688 18.7022 11.7375 18.8919 10.4906 18.9393C8.84063 18.9985 8.23125 18.8919 6.14063 18.1689C3.77813 17.3393 2.775 17.3985 1.62188 18.3941L1.21875 18.7378V15.9407V13.1556H8.39062H15.5625V15.5852ZM46.7812 18.1926V23.2296H39.6094H32.4375V18.1926V13.1556H39.6094H46.7812V18.1926ZM46.7719 30.3644C46.7719 35.6741 46.7625 35.9585 46.6125 35.6741C45.7875 34.157 44.6625 32.9244 43.3594 32.1067C41.9719 31.2415 40.7719 30.9333 38.8406 30.9333C36.0563 30.9333 34.05 29.4756 32.3813 26.24C32.0063 25.4933 31.6875 24.8533 31.6875 24.8296C31.6875 24.7941 35.0813 24.7704 39.2344 24.7704H46.7812L46.7719 30.3644Z" fill="#454545"/>
<path d="M20.6719 6.2595C20.5406 6.39398 20.4375 6.58019 20.4375 6.67329C20.4375 6.89053 20.85 7.3457 21.0469 7.3457C21.2531 7.3457 21.6562 6.88019 21.6562 6.64226C21.6562 6.40432 21.2813 6.00088 21.0563 6.00088C20.9719 6.00088 20.7938 6.11467 20.6719 6.2595Z" fill="#454545"/>
<path d="M20.6346 8.96957C20.3158 9.4144 20.5408 9.93164 21.0564 9.93164C21.5814 9.93164 21.8346 9.30061 21.4689 8.89716C21.2064 8.6075 20.8689 8.63854 20.6346 8.96957Z" fill="#454545"/>
<path d="M34.05 6.16654C33.6187 6.49758 33.8625 7.27344 34.4062 7.27344C34.9312 7.27344 35.1656 6.63206 34.7812 6.20792C34.5562 5.95964 34.3312 5.9493 34.05 6.16654Z" fill="#454545"/>
<path d="M36.5156 6.2595C36.3844 6.39398 36.2812 6.58019 36.2812 6.67329C36.2812 6.76639 36.3844 6.9526 36.5156 7.08708C36.6375 7.23191 36.8063 7.3457 36.8906 7.3457C36.975 7.3457 37.1438 7.23191 37.2656 7.08708C37.3969 6.9526 37.5 6.76639 37.5 6.67329C37.5 6.58019 37.3969 6.39398 37.2656 6.2595C37.1438 6.11467 36.975 6.00088 36.8906 6.00088C36.8063 6.00088 36.6375 6.11467 36.5156 6.2595Z" fill="#454545"/>
<path d="M36.4689 8.8975C36.2439 9.14578 36.2346 9.39405 36.4314 9.7044C36.6377 10.0354 37.1627 10.0147 37.3689 9.67336C37.7439 9.04233 36.9658 8.34922 36.4689 8.8975Z" fill="#454545"/>
<path d="M34.2468 16.2928C33.8061 16.6341 34.0686 17.4824 34.6124 17.4824C34.8468 17.4824 35.1561 17.11 35.1561 16.8307C35.1561 16.3031 34.6311 15.9928 34.2468 16.2928Z" fill="#454545"/>
<path d="M36.6094 16.3962C36.4781 16.5307 36.375 16.7169 36.375 16.81C36.375 17.0169 36.7875 17.4824 36.9656 17.4824C37.2 17.4824 37.5938 17.0583 37.5938 16.81C37.5938 16.5617 37.2 16.1376 36.9656 16.1376C36.8906 16.1376 36.7313 16.2514 36.6094 16.3962Z" fill="#454545"/>
<path d="M34.1906 19.1171C33.9844 19.3654 33.9937 19.7895 34.2 19.9964C34.575 20.3689 35.1562 20.0895 35.1562 19.5309C35.1562 19.0033 34.5094 18.724 34.1906 19.1171Z" fill="#454545"/>
<path d="M44.2405 26.5962C43.9874 26.8755 44.0436 27.2893 44.3718 27.5583C44.6155 27.7548 44.653 27.7548 44.8874 27.61C45.2343 27.4031 45.2905 26.7824 44.9811 26.5445C44.6999 26.3169 44.4749 26.3376 44.2405 26.5962Z" fill="#454545"/>
<path d="M21.3657 18.301C20.9063 18.4665 20.6063 18.7665 20.3438 19.3355C19.6875 20.7734 14.7938 32.5562 14.7469 32.8148C14.6063 33.5803 15.15 34.5527 15.825 34.7596C16.0219 34.8114 17.2782 34.8631 18.6844 34.8631H21.1875V35.5665V36.2596L20.7469 36.5183C20.1938 36.8389 19.8188 37.4079 19.6875 38.132C19.6125 38.5045 19.5938 39.7355 19.6125 41.7217C19.6407 44.5872 19.65 44.7631 19.8469 45.1562C20.25 45.9941 21.0375 46.5527 21.7969 46.5527C22.5657 46.5527 23.3907 45.9631 23.7282 45.1562C23.8875 44.7838 23.9063 44.4424 23.9063 41.3803C23.9063 38.3493 23.8875 37.9769 23.7282 37.6045C23.5219 37.0976 23.0813 36.601 22.6969 36.4251L22.4157 36.2907L22.3875 33.5493C22.3594 30.9734 22.35 30.8079 22.1813 30.6631C21.9188 30.4562 21.5907 30.4872 21.375 30.7251C21.2063 30.9114 21.1875 31.0665 21.1875 32.2251V33.5183L18.5907 33.4976L15.9844 33.4665L15.9563 33.1976C15.9375 32.9803 18.9657 25.5631 21.3375 20.0182C21.4875 19.6769 21.5625 19.6045 21.7969 19.6045C22.0688 19.6045 22.0875 19.6458 24.8625 26.2769C26.4 29.9389 27.6563 33.0217 27.6563 33.1045C27.6563 33.4769 27.4688 33.5183 25.8094 33.5183C24.2063 33.5183 24.1782 33.5183 23.9532 33.7769C23.6532 34.0976 23.6532 34.3769 23.9625 34.6458C24.1969 34.8424 24.3375 34.8631 25.8188 34.8631C26.7 34.8631 27.5719 34.8114 27.7688 34.7596C27.9656 34.6976 28.2469 34.4803 28.4344 34.2527C28.875 33.7148 28.9594 33.1355 28.7063 32.432C28.4719 31.77 23.3907 19.6251 23.1469 19.1389C22.8 18.4665 21.9844 18.0838 21.3657 18.301ZM22.1719 37.5941C22.7532 37.8631 22.7813 38.0183 22.7813 41.401C22.7813 44.6183 22.7719 44.6803 22.3125 45.0734C22.1344 45.2286 21.525 45.2493 21.2719 45.1045C20.85 44.8458 20.8125 44.5769 20.8125 41.3907C20.8125 39.6941 20.85 38.2769 20.9063 38.132C20.9907 37.8631 21.4969 37.4493 21.7313 37.4493C21.7969 37.4493 21.9938 37.5114 22.1719 37.5941Z" fill="#454545"/>
<path d="M0.161856 25.0425C0.00952095 25.2521 0 26.2138 0 36.3854C0 47.3461 0 47.5063 0.190419 47.7529C0.380838 47.9995 0.50461 47.9995 8.97826 47.9995C18.5944 47.9995 18.0327 48.0488 17.9756 47.1611C17.9565 46.8282 17.8899 46.668 17.709 46.557C17.5281 46.4337 15.681 46.3967 9.3591 46.3967H1.23772L1.21868 35.7813C1.19012 25.437 1.19012 25.1658 1.00922 24.9932C0.752155 24.7589 0.342754 24.7713 0.161856 25.0425Z" fill="#454545"/>
<path d="M12.3467 28.4173C12.2623 28.5311 12.1405 29.0484 12.0655 29.6691C11.8592 31.2001 11.6342 31.4898 10.5373 31.6656C9.40296 31.8415 8.68108 32.5346 8.38108 33.7139C8.14671 34.6553 7.95921 35.0587 7.64046 35.276C7.24671 35.5449 6.60921 35.5449 6.20608 35.276C5.78421 34.9863 5.62483 34.5208 5.62483 33.5277C5.62483 32.7622 5.60608 32.6898 5.38108 32.4932C5.07171 32.2242 4.95921 32.2242 4.67796 32.4725C4.47171 32.6587 4.45296 32.7415 4.46234 33.6932C4.47171 34.4691 4.51859 34.8208 4.65921 35.1725C5.05296 36.1553 5.90608 36.7656 6.89046 36.7656C7.61233 36.7656 8.09046 36.5794 8.54983 36.1242C8.98108 35.6898 9.17796 35.2863 9.45921 34.2725C9.70296 33.3725 10.003 33.0415 10.6686 32.9484C11.3905 32.8553 11.7561 32.7105 12.1686 32.3898C12.7217 31.9346 13.0217 31.3139 13.1811 30.238C13.3498 29.0587 13.3498 28.6036 13.1623 28.407C12.9655 28.1898 12.5342 28.2001 12.3467 28.4173Z" fill="#454545"/>
<path d="M4.59374 29.0287C4.39686 29.277 4.43436 30.1045 4.64061 30.2701C4.91249 30.4873 5.31561 30.4459 5.47499 30.1873C5.68124 29.8666 5.66249 29.2459 5.45624 29.039C5.24061 28.8218 4.75311 28.8114 4.59374 29.0287Z" fill="#454545"/>
<path d="M31.3593 32.7933C31.1906 33.0002 31.1906 33.0519 31.3312 34.0554C31.6031 35.8761 32.0437 36.4554 33.5906 37.0243C34.0968 37.2105 34.5562 37.4588 34.6781 37.5933C34.7906 37.7174 34.9874 38.183 35.1187 38.6278C35.5874 40.1692 36.3187 40.8105 37.5937 40.8105C38.1937 40.8105 38.3624 40.7692 38.7374 40.5312C39.7218 39.8899 40.0312 39.1037 40.0312 37.2416C40.0312 35.845 39.9374 35.5864 39.4312 35.5864C38.9249 35.5864 38.8687 35.7623 38.8124 37.3554C38.7656 38.7623 38.7656 38.783 38.4843 39.1037C37.9499 39.714 37.0874 39.714 36.6187 39.0933C36.4874 38.9278 36.2906 38.4726 36.1874 38.0795C35.8406 36.7864 35.2968 36.2381 33.9374 35.783C32.9437 35.4519 32.6812 35.1416 32.5406 34.1381C32.3812 33.0105 32.3624 32.9278 32.1937 32.7519C31.9874 32.5243 31.5656 32.545 31.3593 32.7933Z" fill="#454545"/>
</svg>
