<svg width="48" height="46" viewBox="0 0 48 46" fill="none" xmlns="http://www.w3.org/2000/svg">
<path d="M1.26626 0.667652C1.05991 0.755566 0.750389 0.957767 0.581559 1.12481C-0.0468631 1.72262 3.40696e-05 0.157749 0.0187929 23.1825L0.0469312 44.0621L0.309555 44.4841C0.450247 44.7127 0.750389 45.0116 0.956736 45.1435L1.35067 45.3809H4.46464H7.57862L7.99131 45.1171C8.20704 44.9677 8.4978 44.6688 8.62911 44.4578C8.8636 44.0709 8.8636 44.0182 8.89174 41.8643C8.91988 39.728 8.91988 39.6488 8.72291 39.4203C8.46966 39.1214 7.97255 39.095 7.69117 39.3587C7.51296 39.5258 7.50358 39.6488 7.50358 41.6445C7.50358 43.6402 7.4942 43.7632 7.31599 43.9303C7.13778 44.0973 7.00647 44.1061 4.4834 44.1061C3.02021 44.1061 1.78213 44.0709 1.72585 44.0358C1.66957 44.0006 1.57578 43.8863 1.51012 43.7808C1.43509 43.6402 1.40695 38.3301 1.40695 22.9363V2.28527L1.60392 2.0479L1.79151 1.81933H4.45527H7.11902L7.30661 2.0479L7.50358 2.28527V19.6308V36.9763L7.74745 37.1521C8.05697 37.3807 8.35711 37.3895 8.63849 37.1697L8.8636 37.0026L8.89174 33.2575L8.91988 29.5123H10.9834C12.1745 29.5123 13.225 29.4684 13.4595 29.4156C13.9754 29.2925 14.6038 28.8002 14.8289 28.3343C14.9415 28.0969 15.0071 27.7628 15.0071 27.376V26.787H16.8174H18.6276L18.9371 27.376C19.9876 29.3892 21.9104 30.8574 24.2834 31.464C24.8555 31.6135 25.2682 31.6486 26.4031 31.6486C27.66 31.6486 27.8945 31.6311 28.6354 31.4201C30.9615 30.7519 32.7624 29.3541 33.8223 27.376L34.1412 26.787H35.6325C36.8518 26.787 37.2364 26.8222 37.7241 26.9628C38.8497 27.2881 39.8251 28.1409 40.2659 29.187C40.4066 29.5299 40.4629 29.9079 40.4911 30.6992C40.5379 31.9124 40.6036 32.141 41.0538 32.5014L41.3727 32.7652H44.1866C47.2911 32.7652 47.3474 32.7564 47.7601 32.2201C47.9665 31.9388 47.9758 31.8596 48.004 29.9959C48.0227 28.9321 47.9946 27.6398 47.9383 27.1211C47.6851 24.8441 46.6627 22.8396 44.8806 21.0989C44.2428 20.4747 44.0834 20.3692 43.8301 20.3692C43.4362 20.3692 43.1454 20.633 43.1454 20.9934C43.1454 21.2132 43.2767 21.3978 43.7645 21.8814C45.0588 23.1737 45.9593 24.6595 46.3532 26.1276C46.5314 26.8397 46.5595 27.1562 46.5595 29.2046L46.5689 31.4904L44.2522 31.5168L41.9261 31.5344V30.8135C41.9167 28.6947 40.8662 26.954 39.056 26.0661C38.0524 25.5738 37.4521 25.4683 35.5012 25.4683C33.4659 25.4683 33.2501 25.5386 32.7999 26.3474C32.1996 27.4376 31.9558 27.7804 31.3742 28.3607C29.292 30.4266 26.1499 30.9717 23.4017 29.7321C21.9292 29.0728 20.8505 28.0793 20.1658 26.743C19.7813 25.9958 19.528 25.7144 19.1059 25.565C18.9465 25.5034 18.0554 25.4683 16.9205 25.4683H15.0071L15.0259 21.9693L15.054 18.4791L18.4025 18.4351C21.6196 18.3912 21.7603 18.3824 22.0136 18.2066C22.5951 17.8021 22.6514 17.5912 22.6795 15.6922L22.7076 13.9515L22.9515 13.7757C23.186 13.6086 23.3267 13.5998 26.3093 13.5998C29.2451 13.5998 29.4421 13.6086 29.6484 13.7669C29.8642 13.9339 29.8735 13.9779 29.9204 15.7362C29.9767 17.7318 29.9955 17.8021 30.652 18.2241C30.9334 18.4 31.0835 18.4175 33.9254 18.4615C37.03 18.5143 37.4521 18.5582 38.8309 18.9714C39.1686 19.0681 39.797 19.3055 40.2284 19.4989C41.1195 19.8857 41.3727 19.9209 41.6447 19.6659C41.8792 19.4461 41.898 18.9538 41.6635 18.7692C41.429 18.567 40.416 18.1098 39.5719 17.8197C38.0712 17.301 37.2739 17.1955 34.1693 17.1428L31.3273 17.09V15.5515C31.3273 14.6372 31.2804 13.8812 31.2148 13.679C31.0835 13.2394 30.5864 12.6943 30.1549 12.5097L29.8266 12.3603V9.99536V7.62167H32.3403C35.7357 7.62167 36.1953 7.53376 37.1989 6.64582C38.7465 5.26557 38.5308 2.83913 36.7674 1.71383C35.8951 1.15997 35.5575 1.11601 31.8714 1.11601C28.6167 1.11601 28.5979 1.11601 28.1571 0.905022C27.1066 0.412701 25.8967 0.386326 24.8368 0.817104L24.2459 1.06327L20.6817 1.11601L17.1175 1.15997L16.4891 1.45009C15.7012 1.81054 15.0071 2.50506 14.7257 3.20837C14.4444 3.89411 14.4913 5.08095 14.8195 5.73151C15.1009 6.27658 15.8513 6.99748 16.414 7.25243C17.1081 7.56892 17.7178 7.62167 20.3628 7.62167H22.8859V9.98656V12.3515L22.5763 12.4482C22.4075 12.5009 22.1074 12.6943 21.9198 12.8789C21.3476 13.4328 21.2913 13.6526 21.2913 15.49V17.1164H18.1586H15.0259L14.9977 16.4307C14.9509 15.6219 14.6976 15.1647 14.0504 14.7691L13.6659 14.5229L11.2929 14.4966L8.91988 14.4702L8.89174 8.15795L8.8636 1.8457L8.58222 1.42371C8.37587 1.10722 8.16014 0.922604 7.79434 0.746773L7.29723 0.500614H4.46464C1.9322 0.500614 1.60392 0.518196 1.26626 0.667652ZM27.3317 1.99516C29.0763 2.61056 29.6297 4.68533 28.401 5.99526C27.8382 6.59307 27.2192 6.86561 26.4031 6.86561C23.9082 6.8744 22.7452 4.03477 24.5929 2.47869C25.362 1.82812 26.3562 1.66108 27.3317 1.99516ZM22.6045 2.83034C22.173 3.77982 22.1636 4.91391 22.5951 5.82822C22.7076 6.0568 22.7921 6.259 22.7921 6.27658C22.7921 6.29417 21.5821 6.30296 20.1002 6.28537C17.5114 6.259 17.3801 6.25021 17.0049 6.06559C16.0201 5.56448 15.6356 4.37764 16.1608 3.42816C16.3578 3.08529 16.9299 2.62814 17.3051 2.53143C17.4645 2.48748 18.7589 2.44352 20.1846 2.44352L22.7827 2.43473L22.6045 2.83034ZM35.7451 2.68089C37.0019 3.29629 37.227 4.77325 36.214 5.69635C35.5856 6.26779 35.3511 6.30296 32.4435 6.30296C29.6859 6.30296 29.9298 6.38208 30.2675 5.59964C30.5207 5.00183 30.4926 3.60399 30.2206 2.9798C30.108 2.72485 30.0142 2.49627 30.0142 2.47869C30.0142 2.45231 31.1867 2.43473 32.6311 2.43473H35.2479L35.7451 2.68089ZM25.0525 7.98212C25.9623 8.3162 27.2848 8.25465 28.1383 7.84146L28.4197 7.70079V9.99536V12.2811H26.3562H24.2928V9.98656C24.2928 7.83266 24.3021 7.69201 24.4616 7.75354C24.546 7.78871 24.818 7.89421 25.0525 7.98212ZM13.4126 15.9735C13.6002 16.1494 13.6002 16.2636 13.6002 21.9869V27.8332L13.3563 28.009C13.1219 28.1848 12.9906 28.1936 11.0115 28.1936H8.9105V21.9957V15.7977H11.0678C13.1031 15.7977 13.2344 15.8065 13.4126 15.9735Z" fill="#454545"/>
<path d="M43.5018 36.0438C42.939 36.2812 40.8755 38.7516 40.2565 39.9208C39.7406 40.8967 39.6093 41.4857 39.7594 42.233C39.9188 43.033 40.2565 43.666 40.8474 44.2638C42.7983 46.2419 46.2406 45.7759 47.5162 43.3671C47.9007 42.6198 48.0508 41.8198 47.9195 41.1692C47.7319 40.2373 46.8502 38.8131 45.5465 37.3625C44.3553 36.0262 44.027 35.8152 43.5018 36.0438ZM44.5804 38.3208C45.4808 39.367 46.3062 40.589 46.4751 41.1604C46.8033 42.2154 46.1937 43.3495 44.9837 43.9561C44.3928 44.2462 43.2673 44.2286 42.6295 43.9122C41.6822 43.4462 41.1382 42.6286 41.1382 41.6879C41.1382 41.2396 41.1944 41.0637 41.504 40.5011C41.8885 39.8241 42.667 38.7867 43.408 37.9691C43.6331 37.723 43.8394 37.512 43.8488 37.512C43.8676 37.512 44.1959 37.8812 44.5804 38.3208Z" fill="#454545"/>
</svg>
