<svg width="48" height="46" viewBox="0 0 48 46" fill="none" xmlns="http://www.w3.org/2000/svg">
<path d="M1.12765 0.54398C0.649361 0.803982 0.199207 1.35398 0.07729 1.84398C0.0116425 2.08398 -0.00711398 9.60398 0.00226424 23.054L0.0303989 43.894L0.292989 44.314C0.433662 44.544 0.724387 44.854 0.940086 45.004L1.33397 45.284L23.5041 45.314L45.6836 45.334L46.0962 45.124C46.3494 44.994 46.612 44.744 46.7621 44.504C47.0153 44.104 47.0153 44.084 47.0434 42.024L47.0716 39.944L46.8371 39.684C46.537 39.364 46.1806 39.364 45.8899 39.684C45.6554 39.924 45.6554 39.944 45.6554 41.764C45.6554 43.054 45.6179 43.634 45.5429 43.714C45.4585 43.804 42.3168 43.834 31.9914 43.834H18.5524V36.434V29.034H32.1039H45.6554V32.984V36.944L45.8899 37.184C46.1619 37.484 46.4901 37.504 46.7902 37.244L47.0153 37.054L47.0434 32.944L47.0716 28.844L47.3529 28.624C47.8124 28.274 48 27.734 48 26.684C48 24.854 47.4654 24.334 45.5617 24.334C44.6051 24.334 44.5301 24.324 44.5301 24.144C44.5301 23.694 44.6145 23.634 45.2522 23.634C46.462 23.634 47.0622 22.904 47.0622 21.414C47.0622 20.034 46.4714 19.324 45.2709 19.254C44.6614 19.214 44.6332 19.204 44.577 18.924C44.5394 18.764 44.3894 18.524 44.23 18.384L43.9486 18.134H41.7072C39.2314 18.134 39.025 18.174 38.8187 18.714C38.7343 18.924 38.7156 19.754 38.7343 21.674L38.7625 24.334H38.181H37.5902L37.5714 18.054L37.5433 11.784L37.337 11.474C36.8868 10.794 37.4307 10.834 27.518 10.834H18.5524V9.48398C18.5524 7.76398 18.4211 7.43398 17.7459 7.43398C17.6239 7.43398 17.4364 7.52398 17.3332 7.63398C17.155 7.82398 17.1457 7.96398 17.1457 12.934V18.034H9.26795H1.39024V10.134C1.39024 2.36398 1.39024 2.23398 1.57781 2.03398C1.76537 1.83398 1.88729 1.83398 9.24919 1.83398H16.7424L16.9206 2.04398C17.0706 2.22398 17.1081 2.46398 17.1457 3.65398C17.1832 4.88398 17.2113 5.06398 17.3707 5.19398C17.6333 5.39398 18.0178 5.36398 18.2804 5.14398C18.4867 4.96398 18.5055 4.87398 18.5336 3.79398C18.5899 1.86398 18.3086 1.07398 17.3989 0.583981L16.9206 0.333981H9.23043C1.57781 0.333981 1.53091 0.333981 1.12765 0.54398ZM36.1834 18.334V24.334H27.3679H18.5524V18.334V12.334H27.3679H36.1834V18.334ZM17.1269 31.704L17.1457 43.834H9.45551C1.88729 43.834 1.76537 43.834 1.57781 43.634C1.39024 43.434 1.39024 43.304 1.39024 31.484V19.534L9.24919 19.554L17.0988 19.584L17.1269 31.704ZM43.1983 21.774C43.1608 24.504 43.264 24.334 41.6134 24.334H40.413L40.263 24.034C40.1504 23.804 40.1223 23.334 40.1223 21.684V19.634H41.6791H43.2265L43.1983 21.774ZM45.5523 20.874C45.6179 20.954 45.6554 21.244 45.6367 21.554L45.6086 22.084L45.1209 22.114L44.6238 22.144V21.444V20.734H45.0365C45.2709 20.734 45.4866 20.794 45.5523 20.874ZM46.5745 26.564C46.5933 26.984 46.5558 27.304 46.4901 27.394C46.3963 27.514 44.3237 27.534 32.4697 27.534H18.5524V26.684V25.834L32.5541 25.854L46.5464 25.884L46.5745 26.564Z" fill="#454545"/>
<path d="M21.0373 14.173C20.8873 14.243 20.6716 14.4031 20.5684 14.5331C20.3902 14.7431 20.3809 14.8931 20.3809 18.2832C20.3809 21.6734 20.3902 21.8234 20.5684 22.0334C20.9811 22.5234 21.0561 22.5334 25.792 22.5234C30.5748 22.5234 30.7061 22.5034 31.0625 22.0034C31.2501 21.7234 31.2594 21.6134 31.2594 18.2832C31.2594 14.9531 31.2501 14.8431 31.0625 14.5631C30.9593 14.4131 30.7249 14.233 30.5467 14.163C30.059 13.983 21.4218 13.993 21.0373 14.173ZM29.8527 18.2832V20.9834L25.8014 21.0134L21.7407 21.0334V18.2832V15.5331L25.8014 15.5531L29.8527 15.5831V18.2832Z" fill="#454545"/>
<path d="M33.389 15.034C32.9391 15.484 33.239 16.334 33.839 16.334C34.1952 16.334 34.5889 15.944 34.5889 15.584C34.5889 15.234 34.1952 14.834 33.8577 14.834C33.7171 14.834 33.5015 14.924 33.389 15.034Z" fill="#454545"/>
<path d="M33.3703 18.1332C33.089 18.4332 33.1172 18.9631 33.4265 19.2231C33.8858 19.6131 34.4389 19.3931 34.5514 18.7831C34.6732 18.1032 33.8296 17.6432 33.3703 18.1332Z" fill="#454545"/>
<path d="M2.89062 21.5338C2.72188 21.7138 2.70312 21.8638 2.70312 23.0837C2.70312 24.3936 2.7125 24.4536 2.9375 24.6836C3.05938 24.8236 3.275 24.9336 3.40625 24.9336C3.5375 24.9336 3.75313 24.8236 3.875 24.6836C4.1 24.4536 4.10938 24.3936 4.10938 23.1037C4.10938 21.9038 4.09063 21.7538 3.92188 21.5538C3.66875 21.2638 3.14375 21.2638 2.89062 21.5338Z" fill="#454545"/>
<path d="M3.10625 11.8352C2.76875 11.9852 2.70312 12.2652 2.70312 13.6151C2.70312 15.145 2.79688 15.375 3.40625 15.375C4.01562 15.375 4.10938 15.145 4.10938 13.5851C4.10938 12.4652 4.08125 12.2252 3.95 12.0552C3.75313 11.8052 3.3875 11.7052 3.10625 11.8352Z" fill="#454545"/>
</svg>
