<svg width="48" height="48" viewBox="0 0 48 48" fill="none" xmlns="http://www.w3.org/2000/svg">
<path d="M0.816607 0.21249C0.647653 0.324986 0.394224 0.612473 0.25343 0.849964L0 1.28745V21.1741V41.0608L0.272202 42.1733C0.910469 44.7482 2.40289 46.7481 4.36462 47.6231C5.2 47.9981 7.03971 48.098 8.01589 47.8231C9.52708 47.3981 11.0852 45.9856 11.9487 44.2482L12.3148 43.5107L12.7653 44.3857C13.5444 45.9106 14.5863 46.9481 15.9567 47.5731C16.9422 48.023 18.6318 48.1355 19.6924 47.8231C21.382 47.3231 22.7523 45.9981 23.8693 43.7982C23.982 43.5607 23.982 43.5607 24.104 43.7982C25.2116 45.9981 26.582 47.3231 28.2715 47.8231C29.3321 48.1355 31.0217 48.023 32.0072 47.5731C33.3776 46.9481 34.4195 45.9106 35.1986 44.3857L35.6491 43.5107L35.9964 44.2232C36.4657 45.1857 37.2354 46.1231 37.5451 46.1231C37.8549 46.1231 38.2491 45.5981 38.2491 45.1982C38.2491 44.9857 38.0614 44.6107 37.7047 44.0732C37.0946 43.1857 36.6347 42.0233 36.4751 41.0233C36.4188 40.6608 36.3718 39.2359 36.3718 37.8735V35.3736L36.6347 35.3111C38.0614 34.9111 39.0563 34.2611 39.9668 33.1237C40.3329 32.6612 40.7928 31.9737 40.9711 31.5862L41.2903 30.8987L41.6563 31.6237C42.182 32.7112 43.2144 33.9111 44.1061 34.4986C44.8007 34.9611 45.8708 35.3611 46.3964 35.3736H46.6029V37.811C46.6029 40.5609 46.5278 41.1858 46.0679 42.4733C45.4578 44.1982 44.0968 45.6106 42.6888 45.9981C42.182 46.1481 40.8679 46.1106 39.7509 45.9231C39.2722 45.8481 39.0657 46.0356 38.9531 46.6481C38.8968 46.9231 38.9437 47.0606 39.1596 47.3606C39.5256 47.8481 40.4549 48.048 41.9098 47.9606C42.7264 47.9106 43.1581 47.8231 43.6744 47.5856C45.5516 46.7231 47.0253 44.7607 47.6823 42.2483L47.9639 41.1858L47.9921 21.3991C48.0108 1.84992 48.0108 1.61243 47.8231 1.13745C47.7199 0.862465 47.504 0.512478 47.335 0.349983L47.0253 0.0624962L31.7913 0.0249977C21.1097 0.0124969 16.5011 0.0374985 16.3697 0.137493C15.9191 0.449982 15.9567 1.44994 16.4354 1.73743C16.6043 1.83743 20.7155 1.87492 31.6318 1.87492H46.6029V2.87488V3.87484H23.982H1.36101V2.87488V1.87492H7.7343C14.0325 1.87492 14.1076 1.87492 14.3516 1.61243C14.6614 1.28745 14.6895 0.624973 14.4079 0.249989C14.2202 0 14.0982 0 7.67798 0C1.80217 0 1.0982 0.0249977 0.816607 0.21249ZM11.5921 11.212C11.5921 17.1368 11.5733 17.3368 11.0664 18.7367C10.7567 19.5867 9.67726 21.0491 9.00144 21.5241C8.28809 22.0366 7.53718 22.2491 6.47653 22.2491C5.43466 22.2491 4.79639 22.0616 3.99856 21.5366C3.2852 21.0741 2.30903 19.7617 1.93357 18.7742C1.38917 17.3368 1.36101 16.9743 1.36101 11.087V5.74976H6.47653H11.5921V11.212ZM23.231 11.287C23.231 15.9993 23.2123 16.9368 23.0809 17.5118C22.5928 19.6992 21.3162 21.3991 19.6736 22.0491C18.9791 22.3241 17.3365 22.3116 16.6513 22.0491C14.8209 21.3241 13.5256 19.4867 13.1408 17.0618C13.0282 16.3743 13 15.0869 13 10.9621V5.74976H18.1155H23.231V11.287ZM34.9639 10.9621C34.9639 15.0869 34.9357 16.3743 34.8231 17.0618C34.4383 19.4867 33.143 21.3241 31.3126 22.0491C30.6274 22.3116 28.9848 22.3241 28.2903 22.0491C26.6477 21.3991 25.3711 19.6992 24.883 17.5118C24.7516 16.9368 24.7329 15.9993 24.7329 11.287V5.74976H29.8484H34.9639V10.9621ZM46.6029 11.087C46.6029 16.9743 46.5747 17.3368 46.0303 18.7742C45.852 19.2492 45.4859 19.8867 45.1105 20.3867C44.1061 21.7116 43.0737 22.2491 41.4874 22.2491C40.4267 22.2491 39.6758 22.0366 38.9625 21.5241C38.2866 21.0491 37.2072 19.5867 36.8975 18.7367C36.3906 17.3368 36.3718 17.1368 36.3718 11.212V5.74976H41.4874H46.6029V11.087ZM12.756 20.5367C13.6101 22.2366 15.1401 23.574 16.6794 23.974L17.5054 24.1865V25.8239C17.5054 27.8489 17.3928 28.6863 16.9704 29.8613C16.1632 32.1112 14.4361 33.4986 12.4181 33.4986C10.9726 33.4986 9.78051 32.8612 8.81372 31.5737C7.72491 30.1113 7.36823 28.7488 7.36823 25.9864V24.149L7.77184 24.0615C8.2787 23.949 9.33935 23.4365 9.78989 23.0866C10.7379 22.3616 11.8361 20.8992 12.1834 19.8992C12.2397 19.7492 12.3054 19.6617 12.343 19.7117C12.3711 19.7742 12.5588 20.1367 12.756 20.5367ZM36.8412 21.7491C37.7141 22.8866 39.0563 23.8115 40.2014 24.0615L40.5957 24.149V25.9864C40.5957 28.7488 40.239 30.1113 39.1502 31.5737C38.1834 32.8612 36.9913 33.4986 35.5459 33.4986C33.5278 33.4986 31.8007 32.1112 30.9935 29.8613C30.5711 28.6863 30.4585 27.8489 30.4585 25.8239V24.1865L31.2845 23.974C32.852 23.574 34.382 22.2116 35.2549 20.4367L35.6491 19.6492L36.0152 20.3992C36.2217 20.8117 36.5877 21.4241 36.8412 21.7491ZM24.2917 20.2992C25.1834 22.1866 26.7603 23.6115 28.4217 24.0115L29.0505 24.1615V25.9239C29.0505 28.7238 28.6939 30.1113 27.5957 31.5612C26.6195 32.8737 25.4462 33.4986 23.982 33.4986C22.5177 33.4986 21.3444 32.8737 20.3682 31.5612C19.27 30.1113 18.9134 28.7238 18.9134 25.9239V24.1615L19.5516 24.0115C21.2036 23.6115 22.7805 22.1866 23.6722 20.2992C23.8224 19.9992 23.9538 19.7492 23.982 19.7492C24.0101 19.7492 24.1415 19.9992 24.2917 20.2992ZM3.44477 23.2366C4.27076 23.774 5.1343 24.124 5.65054 24.124H5.96029V25.8364C5.96029 26.8364 5.90397 27.9114 5.82888 28.3863C5.41588 30.9737 3.7639 33.0487 1.80217 33.4361L1.36101 33.5236V27.3114V21.0991L2.00866 21.9116C2.44982 22.4616 2.91913 22.8991 3.44477 23.2366ZM46.556 33.4736C46.4621 33.6111 45.3827 33.2236 44.7444 32.8112C43.4491 31.9987 42.4448 30.2863 42.135 28.3863C42.0599 27.9114 42.0036 26.8364 42.0036 25.8364V24.124H42.3134C42.8014 24.124 43.9653 23.649 44.6787 23.1491C45.0354 22.8991 45.6079 22.3366 45.9459 21.9116L46.556 21.1491L46.5841 27.2864C46.5935 30.6488 46.5841 33.4361 46.556 33.4736ZM8.03466 33.1612C8.91697 34.2611 9.9213 34.9111 11.3386 35.3111L11.5921 35.3736V37.911C11.5921 41.4608 11.348 42.5608 10.1841 44.1357C9.17978 45.4982 8.02527 46.1231 6.47653 46.1231C4.96534 46.1231 3.80144 45.5107 2.81588 44.1857C1.63321 42.6108 1.36101 41.4233 1.36101 37.836V35.3736H1.5769C2.09314 35.3611 3.16318 34.9611 3.85776 34.4986C4.75885 33.9111 5.83827 32.6487 6.33574 31.5862L6.65487 30.8987L7.02094 31.6237C7.21805 32.0362 7.66859 32.7237 8.03466 33.1612ZM19.561 33.1487C20.4527 34.2486 21.6635 35.0361 22.8838 35.3111L23.231 35.3861V38.0485C23.231 41.6733 23.0246 42.5483 21.7856 44.1982C20.7437 45.5731 19.7112 46.1231 18.1343 46.1231C17.2708 46.1231 16.3791 45.8731 15.7877 45.4857C14.6614 44.7357 13.7321 43.3232 13.3004 41.7108C13.0751 40.8733 13.0563 40.6358 13.0188 38.111L12.9812 35.4111L13.4412 35.3111C15.2621 34.9486 17.0736 33.3736 17.9372 31.4237L18.1906 30.8612L18.5848 31.6487C18.8007 32.0862 19.2419 32.7612 19.561 33.1487ZM30.0267 31.4237C30.8903 33.3736 32.7018 34.9486 34.5227 35.3111L34.9827 35.4111L34.9451 38.111C34.9076 40.6358 34.8888 40.8733 34.6635 41.7108C34.2318 43.3232 33.3025 44.7357 32.1762 45.4857C31.5848 45.8731 30.6931 46.1231 29.8296 46.1231C28.2527 46.1231 27.2202 45.5731 26.1783 44.1982C24.9394 42.5483 24.7329 41.6733 24.7329 38.0485V35.3986L25.2303 35.2611C27.0607 34.7361 28.5718 33.3986 29.4729 31.4737C29.6325 31.1362 29.7639 30.8737 29.7733 30.8737C29.7733 30.8737 29.8953 31.1237 30.0267 31.4237Z" fill="#454545"/>
</svg>
