<svg width="48" height="48" viewBox="0 0 48 48" fill="none" xmlns="http://www.w3.org/2000/svg">
<path d="M21.0082 10.6936C18.7301 11.3405 17.0707 12.8123 15.9739 15.1467C13.7239 19.9655 15.5239 28.7217 19.8176 33.8405C21.2614 35.5655 23.2207 36.8311 25.2364 37.328C26.9051 37.7405 28.9395 37.5436 30.327 36.8499C31.0957 36.4561 31.4989 36.0811 31.7989 35.4717C32.2957 34.4592 32.0051 33.4561 30.6364 31.4124C29.7551 30.0999 28.9114 29.1811 28.302 28.8717C27.8989 28.6561 27.7395 28.6374 26.6707 28.6374C25.5176 28.628 25.4707 28.6186 25.1426 28.3655C23.6332 27.2217 22.377 24.0061 22.4801 21.5498C22.5176 20.7342 22.5645 20.4717 22.752 20.1061C22.9395 19.7217 23.0426 19.628 23.352 19.5436C24.6645 19.1686 25.4051 18.3436 25.6395 17.003C25.8082 16.0561 25.8739 13.7967 25.752 13.0467C25.5645 11.8186 24.927 10.9655 23.9801 10.6467C23.3614 10.4311 21.8426 10.4592 21.0082 10.6936ZM23.877 12.3623C24.3176 12.8405 24.4207 13.8342 24.252 15.8967C24.1207 17.4623 23.8395 17.8655 22.6489 18.1842C22.0301 18.353 21.4957 18.9436 21.2332 19.7498C20.9239 20.7248 20.8864 22.4311 21.1489 23.7155C21.6551 26.1811 22.6114 28.1311 23.9051 29.3124C24.777 30.1186 25.4614 30.3249 26.4739 30.0905C27.3832 29.8749 27.9926 30.2967 29.1645 31.9749C30.027 33.203 30.5239 34.1311 30.5239 34.4874C30.5239 35.1061 29.5301 35.7155 28.1239 35.9686C27.0832 36.1467 26.0239 36.0342 24.8614 35.6124C22.3489 34.703 20.3051 32.5936 18.6645 29.1999C17.7176 27.2686 17.0239 24.9999 16.6864 22.8249C16.4707 21.428 16.4707 19.0748 16.677 17.9217C17.0614 15.8123 18.2614 13.8623 19.752 12.9155C21.2895 11.9311 23.2582 11.6686 23.877 12.3623Z" fill="black"/>
<path d="M22.1672 0.0277748C21.9891 0.046524 21.4359 0.112152 20.9484 0.1684C15.8109 0.749649 10.7953 3.21527 6.98906 7.01215C3.19219 10.8184 0.876563 15.5153 0.126563 20.9715C-0.0421875 22.1434 -0.0421875 25.7997 0.126563 26.9715C0.876563 32.4278 3.19219 37.1247 6.98906 40.9309C13.1578 47.0903 22.0547 49.4247 30.4641 47.0622C39.1735 44.6247 45.8953 37.284 47.5172 28.434C48.9797 20.5122 46.5516 12.6653 40.9078 7.01215C37.1672 3.2809 32.6672 1.02153 27.3234 0.205902C26.3859 0.0652771 22.8984 -0.0565987 22.1672 0.0277748ZM27.1359 2.0809C35.9484 3.37465 43.1766 9.87152 45.3703 18.4778C45.8766 20.484 46.0172 21.684 46.0172 23.9715C46.0172 26.259 45.8766 27.459 45.3703 29.4653C43.3922 37.2465 37.2234 43.4153 29.4422 45.3934C27.4359 45.8997 26.2359 46.0403 23.9484 46.0403C22.4953 46.0403 21.6328 45.9934 20.8547 45.8809C15.9047 45.1215 11.8172 43.059 8.33907 39.5809C5.39531 36.6465 3.52031 33.3747 2.52656 29.4653C2.02031 27.459 1.87969 26.259 1.87969 23.9715C1.87969 21.684 2.02031 20.484 2.52656 18.4778C4.33594 11.3715 9.68907 5.5309 16.6547 3.08403C18.1547 2.54965 20.4516 2.07153 22.2609 1.90277C23.1422 1.82777 26.1047 1.9309 27.1359 2.0809Z" fill="black"/>
</svg>
