<svg width="36" height="36" viewBox="0 0 36 36" fill="none" xmlns="http://www.w3.org/2000/svg">
<path d="M18 0C27.9408 0 36 8.05922 36 18C36 27.9408 27.9408 36 18 36C8.05922 36 0 27.9408 0 18C0 8.05922 8.05922 0 18 0ZM15.3077 26.5409V18.3466H14.1504C13.7988 18.3466 13.5141 18.0612 13.5141 17.7103V15.1158C13.5141 14.7663 13.8002 14.4802 14.1504 14.4802H15.3077V12.394C15.3077 10.4217 16.9073 8.82281 18.8796 8.82281H21.8496C22.2012 8.82281 22.4859 9.10758 22.4859 9.45914V12.053C22.4859 12.4045 22.2012 12.6893 21.8496 12.6893H20.0918C19.8914 12.6893 19.7262 12.8545 19.7262 13.0549V14.4816L21.8109 14.4802C22.1625 14.5048 22.4473 14.7417 22.4473 15.1158C22.3854 15.9947 22.2996 16.8827 22.2251 17.763C22.1977 18.0914 21.9213 18.3466 21.5916 18.3466H19.7262V26.5409C19.7262 26.8903 19.4407 27.1765 19.0905 27.1765L15.9441 27.1772C15.5932 27.1772 15.3077 26.8917 15.3077 26.5409ZM16.1388 26.3475H18.8951V17.5155H21.413L21.5993 15.3091H18.8951V13.0549C18.8951 12.394 19.4309 11.8582 20.0918 11.8582H21.6548V9.65391H18.8796C17.3658 9.65391 16.1388 10.8809 16.1388 12.394V15.3105H14.3452V17.5155H16.1388V26.3475ZM18 0.830391C8.51766 0.830391 0.830391 8.51766 0.830391 18C0.830391 27.4823 8.51766 35.1696 18 35.1696C27.4823 35.1696 35.1696 27.4823 35.1696 18C35.1696 8.51766 27.4823 0.830391 18 0.830391Z" fill="#454545"/>
</svg>
