<svg width="48" height="49" viewBox="0 0 48 49" fill="none" xmlns="http://www.w3.org/2000/svg">
<path d="M23.0381 0.147217C22.4378 0.319504 23.566 -0.666355 10.7105 10.896C5.18323 15.8636 0.566828 20.0654 0.44262 20.2282C0.328763 20.3909 0.173503 20.6684 0.111399 20.8503C-0.0438611 21.2619 -0.0335104 22.2477 0.12175 22.6497C0.825595 24.4013 3.258 24.966 4.77955 23.7217C5.03832 23.5207 5.27638 23.3485 5.30743 23.3485C5.33849 23.3485 5.36954 27.9715 5.36954 33.6186V43.8888L4.91411 44.0037C4.58289 44.0803 4.36552 44.2143 4.15851 44.4631C3.86869 44.8173 3.86869 44.8364 3.83764 46.3583C3.81694 47.8131 3.82729 47.9184 4.04465 48.2726C4.17921 48.4736 4.44833 48.7224 4.64499 48.8181C4.98656 48.9904 5.70076 49 24.0007 49C42.3007 49 43.0149 48.9904 43.3565 48.8181C43.5532 48.7224 43.8223 48.4736 43.9568 48.2726C44.1742 47.9184 44.1845 47.8131 44.1638 46.3583C44.1328 44.8364 44.1328 44.8173 43.843 44.4631C43.636 44.2143 43.4186 44.0803 43.0874 44.0037L42.6319 43.8888V33.6186C42.6319 27.9715 42.663 23.3485 42.694 23.3485C42.7251 23.3485 42.9632 23.5207 43.2219 23.7217C44.64 24.8799 46.9378 24.4683 47.7555 22.9082C48.0039 22.4392 48.0764 21.3863 47.9108 20.8886C47.6727 20.2473 47.3415 19.9027 44.3916 17.2706L41.4934 14.6863V12.3317C41.4934 10.092 41.483 9.95797 41.276 9.71869C41.0379 9.43154 40.5308 9.38369 40.1892 9.60383C40.0132 9.72826 39.9925 9.90055 39.9408 11.4798L39.889 13.2218L37.7878 11.3363L35.697 9.45069L35.7177 7.27796L35.7487 5.11481L37.8499 5.08609L39.9408 5.06695V6.07196C39.9408 6.95253 39.9718 7.10567 40.1478 7.26839C40.4583 7.55553 41.0069 7.52682 41.276 7.21096C41.4623 6.99082 41.4934 6.81853 41.4934 6.0241V5.09567L41.8867 5.02867C42.3835 4.96167 42.7562 4.69367 42.9839 4.26295C43.1081 4.01409 43.1495 3.63123 43.1495 2.5688C43.1495 0.951221 43.0149 0.558788 42.3318 0.204647C41.9177 -0.0154991 41.8867 -0.0154991 37.7257 0.0132141C33.6786 0.0419312 33.5234 0.0515022 33.2542 0.242931C32.6021 0.68322 32.54 0.855507 32.509 2.28165C32.4883 3.05695 32.5193 3.75566 32.5814 3.99495C32.7367 4.52138 33.2232 4.9521 33.7407 5.02867L34.1444 5.09567V6.56968V8.05325L31.2462 5.44024C26.0502 0.750221 25.5223 0.309933 24.9116 0.137646C24.2595 -0.0346413 23.6902 -0.0346413 23.0381 0.147217ZM24.539 1.55422C24.7874 1.65951 44.1224 18.9743 45.82 20.6014C46.4306 21.2045 46.4617 21.2427 46.4617 21.7117C46.4617 22.1329 46.4099 22.2477 46.1201 22.5445C45.851 22.8125 45.6854 22.8986 45.3128 22.9369C45.0126 22.9656 44.7435 22.9369 44.5675 22.8603C44.4226 22.7837 39.858 18.7159 34.4135 13.8248C28.9691 8.92426 24.4044 4.88509 24.2595 4.83724C24.0939 4.77981 23.9076 4.77981 23.742 4.83724C23.5971 4.88509 19.0324 8.92426 13.588 13.8248C8.15387 18.7159 3.57887 22.7837 3.43396 22.8603C3.258 22.9369 2.98888 22.9656 2.68872 22.9369C2.31609 22.8986 2.15048 22.8125 1.88136 22.5445C1.59154 22.2477 1.53979 22.1329 1.53979 21.7117C1.53979 21.2523 1.57084 21.1949 2.14013 20.6493C3.68238 19.1466 23.2141 1.65951 23.4625 1.55422C23.6178 1.48722 23.8558 1.43937 24.0007 1.43937C24.1457 1.43937 24.3837 1.48722 24.539 1.55422ZM41.5969 2.53051V3.63123H37.8189H34.0409V2.53051V1.42979H37.8189H41.5969V2.53051ZM32.5918 14.1886L41.0793 21.8266V32.8816V43.9271H32.0743H23.0692L23.0485 33.8866C23.0174 23.894 23.0174 23.8366 22.8001 23.5686C22.355 23.0039 22.0962 22.956 19.7777 22.9847C17.6972 23.0135 17.6661 23.0135 17.4695 23.2432C17.2211 23.5303 17.2211 23.8366 17.4695 24.1238C17.6661 24.3439 17.7282 24.3535 19.5707 24.4013L21.4648 24.4492V25.4542V26.4592L16.2688 26.4879L11.0624 26.507V25.4542V24.4013H12.8945C14.6334 24.4013 14.7369 24.3918 14.9646 24.1908C15.2855 23.9132 15.2751 23.5016 14.9439 23.2049C14.6955 22.9656 14.6851 22.9656 12.6668 22.9656C10.3896 22.9656 10.0687 23.0326 9.71682 23.559C9.50981 23.8749 9.50981 24.0089 9.50981 33.8962V43.9271H8.21597H6.92214V32.8816V21.8266L15.4407 14.1694C20.1192 9.95797 23.98 6.51225 24.0214 6.53139C24.0628 6.54096 27.9133 9.98669 32.5918 14.1886ZM21.4959 35.9062L21.4648 43.8793L16.2688 43.908L11.0624 43.9271V35.9349V27.9428H16.2895H21.5166L21.4959 35.9062ZM42.6319 46.4636V47.5643H24.0007H5.36954V46.4636V45.3628H24.0007H42.6319V46.4636Z" fill="#454545"/>
<path d="M26.2867 22.1566C26.09 22.2516 25.8312 22.4734 25.7174 22.6318C25.5 22.9276 25.5 22.9909 25.5 32.2957C25.5 41.3682 25.5104 41.6744 25.6967 42.0019C26.121 42.6989 25.9037 42.6778 32.4142 42.6461L38.3038 42.6144L38.6557 42.2237L39.0076 41.8223V32.4013C39.0076 23.1282 39.0076 22.9593 38.8006 22.6213C38.4073 21.9559 38.459 21.9665 32.259 21.9665C27.1147 21.9665 26.6075 21.9876 26.2867 22.1566ZM37.455 24.7125V25.8743L32.259 25.8531L27.0526 25.8215L27.0215 24.8287C27.0112 24.2795 27.0112 23.7725 27.0422 23.688C27.0837 23.5718 28.0773 23.5507 32.2797 23.5507H37.455V24.7125ZM31.4516 30.4686V33.4786H29.2262H27.0008V30.4686V27.4585H29.2262H31.4516V30.4686ZM37.455 30.4686V33.4786H35.2296H33.0042V30.4686V27.4585H35.2296H37.455V30.4686ZM31.4516 38.0729V41.083H29.2262H27.0008V38.0729V35.0629H29.2262H31.4516V38.0729ZM37.455 38.0729V41.083H35.2296H33.0042V38.0729V35.0629H35.2296H37.455V38.0729Z" fill="#454545"/>
<path d="M17.4796 31.1401C15.7925 31.6682 15.2025 33.6221 16.3204 34.9528C17.6556 36.5476 20.1915 35.7238 20.3571 33.6432C20.4192 32.9039 20.2329 32.3758 19.7257 31.816C19.1564 31.1823 18.2352 30.9077 17.4796 31.1401ZM18.5664 32.8933C18.7217 33.0412 18.8252 33.2735 18.8252 33.4319C18.8252 33.8227 18.4526 34.2135 18.08 34.2135C17.7591 34.2135 17.2726 33.8016 17.2726 33.5376C17.2726 32.7666 18.0593 32.3652 18.5664 32.8933Z" fill="#454545"/>
</svg>
