<svg width="48" height="46" viewBox="0 0 48 46" fill="none" xmlns="http://www.w3.org/2000/svg">
<path d="M9.94172 0.679384C9.49113 0.894648 9.02956 1.50456 8.94164 2.00683L8.8757 2.4254H6.95247C4.34786 2.4254 4.50172 2.24601 4.50172 5.29556C4.50172 7.55581 4.50172 7.57973 4.77647 7.86674C5.02923 8.15376 5.11715 8.16572 6.2601 8.16572C7.40305 8.16572 7.49097 8.15376 7.74374 7.86674C7.91958 7.68736 8.01849 7.43622 8.01849 7.209C8.01849 6.59909 7.60087 6.25228 6.86455 6.25228H6.2601V5.29556V4.33884H7.57889H8.89768L8.91966 12.3394C8.95263 20.2084 8.95263 20.3519 9.18341 20.6748C9.3043 20.8542 9.54608 21.1173 9.71093 21.2489C10.0077 21.5 10.1066 21.5 17.25 21.5C24.3934 21.5 24.4923 21.5 24.7891 21.2489C24.9539 21.1173 25.1957 20.8542 25.3166 20.6748C25.5364 20.3519 25.5474 20.1965 25.5803 14.2528L25.6133 8.16572H27.5365C30.1521 8.16572 29.9983 8.3451 29.9983 5.29556C29.9983 2.24601 30.1521 2.4254 27.5475 2.4254H25.6243L25.5584 2.00683C25.4704 1.4926 25.0089 0.882689 24.5363 0.679384C24.0198 0.440205 10.4363 0.440205 9.94172 0.679384ZM23.8439 11.0359V19.6464H17.25H10.6561V11.0359V2.4254H17.25H23.8439V11.0359ZM28.2399 5.29556V6.25228H26.9211H25.6023V5.29556V4.33884H26.9211H28.2399V5.29556Z" fill="#454545"/>
<path d="M36.9845 17.6169C36.7595 17.8192 36.7501 17.8632 36.7501 19.1562C36.7501 20.4492 36.7595 20.4932 36.9845 20.6955C37.1063 20.8186 37.2751 20.9154 37.3595 20.9154C37.472 20.9154 37.5001 21.0561 37.5001 21.751C37.5001 22.525 37.5188 22.613 37.7345 22.8065C37.9595 23.0264 37.9782 23.0264 39.7501 23.0264C41.522 23.0264 41.5407 23.0264 41.7657 22.8065C41.9813 22.613 42.0001 22.525 42.0001 21.751V20.9154H42.7501H43.5001V23.7301V26.5448H30.6095H17.7095L17.4845 26.7647C17.1751 27.0461 17.1751 27.4507 17.4845 27.7322L17.7095 27.9521H31.8282H45.947L46.172 28.172C46.4626 28.4359 46.472 28.7086 46.2188 30.5381C45.5532 35.3759 43.9688 39.3165 41.6345 41.9113C40.6313 43.0195 39.3751 43.7056 37.8282 44.0047C37.1532 44.1278 35.672 44.1366 23.672 44.119C8.71883 44.0839 9.92821 44.1366 8.48446 43.4681C7.58446 43.0547 6.86258 42.5006 6.14071 41.6474C3.9282 39.0614 2.4282 35.2439 1.78133 30.5205C1.5282 28.7174 1.53758 28.4359 1.8282 28.172L2.0532 27.9521H4.39695H6.74071L6.76883 32.0774C6.79696 36.0884 6.80633 36.2115 6.99383 36.449C7.09696 36.5809 7.30321 36.7744 7.44383 36.8712C7.69696 37.0471 7.80945 37.0559 11.6251 37.0559C15.4407 37.0559 15.5532 37.0471 15.8063 36.8712C15.947 36.7744 16.1532 36.5809 16.2563 36.449C16.4532 36.2115 16.4532 36.1235 16.4532 31.1186C16.4532 26.1138 16.4532 26.0258 16.2563 25.7883C16.1532 25.6564 15.947 25.4629 15.8063 25.3661C15.5626 25.1902 15.4126 25.1814 11.8313 25.155C9.37508 25.1374 7.99696 25.155 7.76258 25.2254C7.34071 25.3397 6.87196 25.8235 6.78758 26.2281L6.73133 26.536L4.18133 26.5624L1.62195 26.5887L1.16258 26.8526C0.562578 27.2045 0.168828 27.7938 0.112578 28.4447C0.0282028 29.421 0.515703 32.5612 1.06883 34.6282C2.10945 38.472 3.65633 41.3219 5.76571 43.3098C6.54383 44.0399 6.85321 44.2598 7.55633 44.6028C8.01571 44.8227 8.77508 45.1218 9.24383 45.2537L10.0782 45.5H24.0001H37.922L38.7563 45.2537C40.397 44.7699 41.372 44.207 42.4876 43.0899C45.2345 40.3544 47.1657 35.5694 47.8126 29.9136C47.972 28.559 47.9157 28.0665 47.5501 27.5123L47.2501 27.0637V23.1407C47.2501 20.3172 47.222 19.121 47.1376 18.8571C46.9876 18.3733 46.2095 17.6433 45.6938 17.5025C45.4126 17.4234 44.1657 17.397 41.2595 17.397H37.2095L36.9845 17.6169ZM45.5157 19.0242L45.7501 19.2353V22.8944V26.5448H45.3751H45.0095L44.9813 23.475C44.9532 20.5283 44.9438 20.3876 44.7563 20.1589C44.6532 20.027 44.447 19.8335 44.3063 19.7367C44.0626 19.5608 43.9126 19.552 41.147 19.5256L38.2501 19.4992V19.1562V18.8043H41.7657H45.2907L45.5157 19.0242ZM40.5001 21.2672V21.619H39.7501H39.0001V21.2672V20.9154H39.7501H40.5001V21.2672ZM15.0001 31.1186V35.6925H11.6251H8.25008V31.1186V26.5448H11.6251H15.0001V31.1186Z" fill="#454545"/>
</svg>
