<svg width="48" height="48" viewBox="0 0 48 48" fill="none" xmlns="http://www.w3.org/2000/svg">
<path d="M21.6391 0.0199203C19.6703 0.254295 17.9453 0.629295 16.286 1.18242C14.5703 1.7543 12.3578 2.79492 11.8235 3.27304C11.5047 3.55429 11.5235 4.10742 11.8516 4.36054C11.9922 4.47305 12.1797 4.55742 12.2735 4.55742C12.3766 4.55742 12.9953 4.28555 13.661 3.94804C15.8266 2.86054 17.6735 2.23242 20.0453 1.78242C21.611 1.48242 24.7891 1.36992 26.411 1.55742C30.5641 2.03555 34.2297 3.48867 37.5578 5.98242C38.5891 6.76054 40.8578 8.96367 41.6266 9.94804C43.4641 12.2918 44.936 15.1793 45.686 17.9262C46.3141 20.2043 46.436 21.1887 46.436 23.9637C46.436 26.7387 46.3141 27.723 45.686 30.0012C44.936 32.748 43.4641 35.6355 41.6266 37.9793C40.8578 38.9637 38.5891 41.1668 37.5578 41.9449C34.3141 44.373 30.8172 45.7887 26.7578 46.3324C25.4266 46.5012 22.5391 46.5012 21.2078 46.3324C15.9297 45.6293 11.5047 43.4168 7.81097 39.6105C4.33285 36.0293 2.27972 31.7637 1.6141 26.7387C1.45472 25.5293 1.43597 22.7543 1.58597 21.4512C2.00785 17.5324 3.5266 13.7074 5.94534 10.4543C6.62035 9.54492 8.62659 7.45429 9.85472 6.38554C10.286 6.00117 10.3891 5.86054 10.3891 5.61679C10.3891 5.22305 10.136 4.9418 9.72347 4.87617C9.41409 4.81992 9.32972 4.86679 8.55159 5.51367C7.51097 6.38554 5.85159 8.10117 5.0266 9.16055C2.50472 12.4043 0.882845 16.1543 0.207846 20.2793C0.0109705 21.5449 -0.0734045 25.0418 0.0765955 26.4574C0.620345 31.8199 2.91722 36.7605 6.68597 40.6418C10.736 44.8137 15.8172 47.298 21.4891 47.8699C23.1016 48.0387 26.4297 47.9449 27.8735 47.6918C32.9266 46.8199 37.0703 44.7293 40.661 41.2605C43.9516 38.0824 46.1922 34.2293 47.2797 29.8887C47.8328 27.6762 47.936 26.748 47.936 23.9637C47.936 21.1793 47.8328 20.2512 47.2797 18.0387C45.1328 9.49804 38.2797 2.68242 29.7485 0.610542C27.8453 0.151169 26.8328 0.0386696 24.3578 0.0105438C23.0453 -0.00820541 21.8172 0.0011673 21.6391 0.0199203Z" fill="black"/>
<path d="M12.6295 15.1889C12.442 15.2545 12.1701 15.3951 12.0201 15.4982C11.6733 15.7514 11.167 16.7357 11.0451 17.4201C10.8951 18.2076 10.9701 30.5545 11.1201 30.9951C11.3264 31.6045 11.8983 32.2326 12.5358 32.5607L13.1264 32.8701H20.1483C27.0483 32.8701 27.1701 32.8701 27.3576 32.6826C27.5545 32.4857 27.6014 32.0357 27.4514 31.7451C27.2545 31.3889 26.9826 31.3701 20.1201 31.3701C12.7983 31.3701 13.1545 31.3982 12.7139 30.7889L12.4983 30.4795L12.4701 24.142C12.4608 20.6545 12.4795 17.7201 12.517 17.6076C12.5826 17.4295 13.1076 17.8139 17.7483 21.4514C20.5889 23.6639 23.0358 25.5482 23.1858 25.6326C23.5514 25.8295 24.4139 25.8295 24.7795 25.6326C24.9389 25.5482 27.3858 23.6639 30.217 21.442L35.3733 17.4107L35.4483 17.6826C35.4858 17.842 35.5045 20.7576 35.4951 24.1701C35.467 31.0795 35.4951 30.7795 34.8295 31.1826C34.5576 31.3514 34.342 31.3701 32.317 31.3701C30.0295 31.3701 29.5889 31.4264 29.4201 31.7451C29.2701 32.0264 29.317 32.4482 29.5139 32.6639C29.7014 32.8701 29.7576 32.8701 32.2701 32.8701H34.8295L35.4014 32.5795C36.0576 32.2514 36.3764 31.9139 36.7233 31.1826L36.967 30.667V23.9639V17.2607L36.5733 16.4639C36.1608 15.6295 35.8608 15.3295 35.2233 15.1514C35.0264 15.0951 30.7795 15.0576 23.9358 15.0576C15.217 15.067 12.9014 15.0951 12.6295 15.1889ZM33.8639 16.642C33.2826 17.1857 24.1045 24.2451 23.9733 24.2451C23.8514 24.2451 14.6358 17.1576 14.1014 16.642C14.0451 16.5951 18.0014 16.5576 23.9826 16.5576C29.8326 16.5576 33.9201 16.5951 33.8639 16.642Z" fill="black"/>
</svg>
