<svg width="36" height="36" viewBox="0 0 36 36" fill="none" xmlns="http://www.w3.org/2000/svg">
<path d="M18 0.00634766C27.9373 0.00634766 35.9937 8.06275 35.9937 18C35.9937 27.9373 27.9373 35.9937 18 35.9937C8.06275 35.9937 0.00634766 27.9373 0.00634766 18C0.00634766 8.06275 8.06275 0.00634766 18 0.00634766ZM24.0272 24.6938C24.0258 24.6973 23.5055 25.996 22.1098 25.3871C21.3511 25.0552 16.6289 21.2077 15.5728 20.3991C17.6302 18.5499 19.6875 16.7006 21.7435 14.8493L14.0217 19.7529C12.7582 19.3275 11.494 18.9049 10.2319 18.4767C9.10619 18.1153 8.97752 16.8631 10.2361 16.3864L24.8984 10.6334C25.039 10.5736 26.6717 9.95275 26.6717 11.404L24.0272 24.6938ZM23.2481 24.402L25.8385 11.3407C25.7949 11.1474 25.2148 11.3991 25.2134 11.3998L10.516 17.164C10.0568 17.3166 10.0456 17.5317 10.5033 17.6949L13.9092 18.8417L23.0752 13.0226C23.3867 12.8328 23.8563 12.6985 24.1285 13.0254C24.4034 13.3566 24.1728 13.7637 23.9056 14.0133C23.6412 14.2601 18.4549 18.9232 16.8694 20.3485L22.4838 24.646C22.9767 24.8365 23.194 24.506 23.2481 24.402ZM18 0.837441C8.52119 0.837441 0.836738 8.52119 0.836738 18C0.836738 27.4789 8.52119 35.1626 18 35.1626C27.4789 35.1626 35.1633 27.4789 35.1633 18C35.1633 8.52119 27.4789 0.837441 18 0.837441Z" fill="black"/>
</svg>
