<svg width="48" height="48" viewBox="0 0 48 48" fill="none" xmlns="http://www.w3.org/2000/svg">
<path d="M0.234375 0.231976L0 0.455425V21.5992V42.743L0.234375 42.9665L0.459375 43.1992H11.25H22.0406L22.2656 42.9665L22.5 42.743V32.5389V22.344H32.7656H43.0406L43.2656 22.1113L43.5 21.8878V11.1716V0.455425L43.2656 0.231976L43.0406 -0.000782013H21.75H0.459375L0.234375 0.231976ZM8.93438 1.74025C8.83125 2.40129 8.56875 3.36025 8.33438 3.91887C7.29375 6.45129 4.77188 8.41577 2.04375 8.82542L1.5 8.90922V5.19439V1.48887H5.24063H8.97188L8.93438 1.74025ZM20.9813 6.72129L20.9531 11.963L20.4 12.0282C19.0219 12.2051 17.4375 12.8196 16.1813 13.6854C15.375 14.244 14.175 15.4451 13.6594 16.2271C12.8906 17.3816 12.2719 18.983 12.1125 20.2585L12.0469 20.8078L9.20625 20.8544L6.35625 20.9009L6.17813 21.1244C5.95312 21.4037 5.95312 21.7947 6.17813 22.074L6.35625 22.2975L9.20625 22.344L12.0469 22.3906L12.1125 22.9399C12.5063 26.0589 14.6906 28.973 17.6625 30.3603C18.5156 30.7513 19.5656 31.0678 20.4 31.1703L20.9531 31.2354L20.9813 36.4771L21 41.7096L15.7313 41.6909L10.4531 41.663L10.3875 41.1137C9.92813 37.492 7.06875 34.2054 3.4875 33.1906C3.0375 33.0603 2.41875 32.9206 2.10938 32.8834L1.54688 32.8182L1.51875 27.5765L1.5 22.344H2.76562C3.99375 22.344 4.05 22.3347 4.26562 22.1113C4.575 21.8134 4.575 21.3851 4.26562 21.0871C4.05 20.8637 3.99375 20.8544 2.76562 20.8544H1.5L1.51875 15.622L1.54688 10.3803L2.10938 10.3151C4.65938 9.99853 7.32188 8.3506 8.8125 6.15335C9.60938 4.97094 10.4062 2.85749 10.4062 1.90784C10.4062 1.74956 10.4344 1.58197 10.4719 1.55405C10.5 1.5168 12.8906 1.48887 15.7688 1.48887H21L20.9813 6.72129ZM33.1125 2.08474C33.5063 5.19439 35.6906 8.11784 38.6531 9.49577C39.5156 9.89611 40.5563 10.2127 41.4 10.3151L41.9531 10.3803L41.9813 15.622L42 20.8544L36.7313 20.8358L31.4531 20.8078L31.3875 20.2492C31.1438 18.322 30.0844 16.1899 28.6406 14.7654C28.1906 14.3092 28.0781 14.244 27.7594 14.244C27.4688 14.244 27.3469 14.2999 27.1969 14.4861C26.8781 14.8958 26.9438 15.1099 27.6281 15.8454C28.8844 17.214 29.6344 18.6851 29.8875 20.3144L29.9719 20.8544H26.2313H22.5V17.1489V13.434L23.0906 13.5271C23.4094 13.5737 24.0281 13.7413 24.4688 13.8903C24.9094 14.0485 25.4063 14.1789 25.5844 14.1789C26.1938 14.1882 26.475 13.434 26.0344 12.9965C25.6781 12.6427 24.2531 12.1771 23.1 12.0282L22.5469 11.963L22.5188 6.72129L22.5 1.48887L27.7688 1.50749L33.0469 1.53542L33.1125 2.08474ZM42 5.19439V8.90922L41.4656 8.82542C38.0063 8.30405 35.1469 5.4737 34.6125 2.01956L34.5281 1.48887H38.2688H42V5.19439ZM21 17.1303V20.8544H17.2688H13.5281L13.6125 20.3144C14.1656 16.7671 17.0063 14.0299 20.7188 13.4713C20.85 13.4434 20.9625 13.4247 20.9813 13.4154C20.9906 13.4154 21 15.082 21 17.1303ZM21 26.0496V29.7644L20.4656 29.6806C17.0063 29.1592 14.1469 26.3289 13.6125 22.8747L13.5281 22.344H17.2688H21V26.0496ZM3 34.5778C6.10313 35.4996 8.4 38.0692 8.8875 41.1696L8.97188 41.7096H5.23125H1.5V38.004V34.2892L2.04375 34.373C2.33438 34.4196 2.76562 34.5127 3 34.5778Z" fill="#454545"/>
<path d="M25.7344 24.25L25.5 24.49V32V39.51L25.7344 39.75C26.0063 40.05 26.4281 40.07 26.7281 39.81C26.9531 39.62 26.9531 39.58 27 37.38L27.0469 35.15L27.6094 35.08C30.7313 34.67 33.675 32.33 35.0625 29.17C35.4656 28.25 35.7844 27.14 35.8875 26.24L35.9531 25.65L41.2313 25.62L46.5 25.6L46.4813 31.22L46.4531 36.85L45.9 36.92C44.5219 37.11 42.9375 37.77 41.6813 38.7C40.875 39.3 39.675 40.59 39.1594 41.43C38.3906 42.67 37.7719 44.39 37.6125 45.76L37.5469 46.35L32.2688 46.38L27 46.4V44.25C27 42.09 27 42.09 26.7656 41.85C26.625 41.69 26.4281 41.6 26.25 41.6C26.0719 41.6 25.875 41.69 25.7344 41.85L25.5 42.09V44.8V47.51L25.7344 47.75L25.9594 48H36.75H47.5406L47.7656 47.75L48 47.51V36V24.49L47.7656 24.25L47.5406 24H36.75H25.9594L25.7344 24.25ZM34.4344 25.87C34.3313 26.58 34.0688 27.61 33.8344 28.21C32.7938 30.93 30.2719 33.04 27.5438 33.48L27 33.57V29.58V25.6H30.7406H34.4719L34.4344 25.87ZM46.5 42.4V46.4H42.7688H39.0281L39.1125 45.82C39.6656 42.01 42.5063 39.07 46.2188 38.47C46.35 38.44 46.4625 38.42 46.4813 38.41C46.4906 38.41 46.5 40.2 46.5 42.4Z" fill="#454545"/>
</svg>
