<svg width="561" height="186" viewBox="0 0 561 186" fill="none" xmlns="http://www.w3.org/2000/svg">
<path d="M70.6 72.6H71.6V72.2412L71.3719 71.9643L70.6 72.6ZM61.4 65.4L61.0061 66.3192L61.0128 66.322L61.4 65.4ZM40.7 65.4L41.1229 66.3062L40.7 65.4ZM33 71.8L33.7955 72.4061L33.8022 72.397L33 71.8ZM28.1 82.6L29.0675 82.853L29.0684 82.8494L28.1 82.6ZM27.8 113.3L26.8238 113.517L26.8258 113.526L26.828 113.535L27.8 113.3ZM32 123.5L31.1711 124.06L31.1778 124.069L32 123.5ZM38.6 129.2L38.1809 130.108L38.1906 130.112L38.2004 130.117L38.6 129.2ZM60.4 127.7L59.8902 126.84L60.4 127.7ZM70.6 118.6L71.3757 119.231L71.6 118.955V118.6H70.6ZM95.3 0.399994H96.3V-0.600006H95.3V0.399994ZM95.3 149V150H96.3V149H95.3ZM74 144.5L73.0218 144.708L73.0293 144.743L73.0393 144.778L74 144.5ZM71.9 134.6L72.8782 134.393L72.463 132.435L71.1468 133.942L71.9 134.6ZM57.6 146.1L57.1227 145.221L57.1181 145.224L57.6 146.1ZM23.5 147L23.9472 146.106L23.5 147ZM11.4 136.9L10.5986 137.498L10.6036 137.505L10.6087 137.511L11.4 136.9ZM3.6 120.4L2.63588 120.666L2.63848 120.675L3.6 120.4ZM4 76.8L3.04657 76.4984H3.04656L4 76.8ZM12.9 59.8L13.6788 60.4273L12.9 59.8ZM26.8 48.6L27.2428 49.4967L27.2516 49.4922L26.8 48.6ZM59.7 47.2L59.2952 48.1144H59.2953L59.7 47.2ZM70.6 54.5L69.9081 55.222L71.6 56.8434V54.5H70.6ZM70.6 0.399994V-0.600006H69.6V0.399994H70.6ZM71.3719 71.9643C68.4911 68.4661 65.2994 65.9531 61.7872 64.478L61.0128 66.322C64.1673 67.6469 67.1089 69.9339 69.8281 73.2357L71.3719 71.9643ZM61.7939 64.4809C58.3943 63.0239 54.7259 62.3 50.8 62.3V64.3C54.4741 64.3 57.8723 64.9761 61.0061 66.3191L61.7939 64.4809ZM50.8 62.3C46.9393 62.3 43.4255 63.0246 40.2771 64.4938L41.1229 66.3062C43.9745 64.9754 47.1941 64.3 50.8 64.3V62.3ZM40.2771 64.4938C37.1152 65.9694 34.4219 68.2143 32.1978 71.203L33.8022 72.397C35.8447 69.6524 38.2848 67.6306 41.1229 66.3062L40.2771 64.4938ZM32.2046 71.194C29.9706 74.1261 28.289 77.8573 27.1316 82.3506L29.0684 82.8494C30.1777 78.5427 31.7628 75.0739 33.7954 72.406L32.2046 71.194ZM27.1325 82.347C25.9719 86.7846 25.4 92.0071 25.4 98H27.4C27.4 92.1262 27.9614 87.082 29.0675 82.853L27.1325 82.347ZM25.4 98C25.4 104.047 25.8698 109.224 26.8238 113.517L28.7762 113.083C27.8635 108.976 27.4 103.953 27.4 98H25.4ZM26.828 113.535C27.8475 117.749 29.2869 121.268 31.1712 124.059L32.8288 122.941C31.1131 120.399 29.7525 117.118 28.772 113.065L26.828 113.535ZM31.1778 124.069C33.0686 126.8 35.4022 128.825 38.1809 130.108L39.0191 128.292C36.5978 127.175 34.5314 125.4 32.8222 122.931L31.1778 124.069ZM38.2004 130.117C40.9417 131.312 43.9801 131.9 47.3 131.9V129.9C44.2199 129.9 41.4583 129.355 38.9996 128.283L38.2004 130.117ZM47.3 131.9C52.5722 131.9 57.124 130.804 60.9098 128.56L59.8902 126.84C56.476 128.863 52.2945 129.9 47.3 129.9V131.9ZM60.9098 128.56C64.6302 126.356 68.1166 123.237 71.3757 119.231L69.8243 117.969C66.6834 121.83 63.3698 124.778 59.8902 126.84L60.9098 128.56ZM71.6 118.6L71.6 72.6H69.6L69.6 118.6H71.6ZM94.3 0.399994L94.3 149H96.3L96.3 0.399994H94.3ZM95.3 148L80.2 148V150L95.3 150V148ZM80.2 148C78.7186 148 77.6076 147.661 76.7874 147.066C75.9715 146.474 75.3464 145.558 74.9607 144.222L73.0393 144.778C73.5203 146.442 74.3618 147.776 75.6126 148.684C76.859 149.589 78.4148 150 80.2 150V148ZM74.9782 144.292L72.8782 134.393L70.9218 134.808L73.0218 144.708L74.9782 144.292ZM71.1468 133.942C67.0898 138.588 62.4159 142.346 57.1227 145.221L58.0773 146.979C63.5841 143.987 68.4436 140.078 72.6532 135.258L71.1468 133.942ZM57.1181 145.224C51.9559 148.063 45.8939 149.5 38.9 149.5V151.5C46.1727 151.5 52.5774 150.004 58.0819 146.976L57.1181 145.224ZM38.9 149.5C33.4436 149.5 28.465 148.364 23.9472 146.106L23.0528 147.894C27.8684 150.302 33.1564 151.5 38.9 151.5V149.5ZM23.9472 146.106C19.4238 143.844 15.5055 140.578 12.1913 136.289L10.6087 137.511C14.0945 142.022 18.2429 145.489 23.0528 147.894L23.9472 146.106ZM12.2014 136.302C8.95459 131.951 6.40195 126.567 4.56152 120.125L2.63848 120.675C4.53138 127.3 7.17875 132.916 10.5986 137.498L12.2014 136.302ZM4.56408 120.134C2.79281 113.705 1.9 106.331 1.9 98H-0.0999994C-0.0999994 106.469 0.80719 114.028 2.63592 120.666L4.56408 120.134ZM1.9 98C1.9 90.4913 2.92079 83.5274 4.95344 77.1016L3.04656 76.4984C0.945873 83.1393 -0.0999994 90.3087 -0.0999994 98H1.9ZM4.95344 77.1016C6.9868 70.6735 9.89829 65.1203 13.6788 60.4273L12.1212 59.1727C8.16838 64.0797 5.14653 69.8598 3.04657 76.4984L4.95344 77.1016ZM13.6788 60.4273C17.4565 55.7377 21.9761 52.0975 27.2428 49.4966L26.3572 47.7034C20.8239 50.4359 16.0768 54.2623 12.1212 59.1727L13.6788 60.4273ZM27.2516 49.4922C32.4965 46.8374 38.4057 45.5 45 45.5V43.5C38.1276 43.5 31.9035 44.8959 26.3484 47.7078L27.2516 49.4922ZM45 45.5C50.6326 45.5 55.3872 46.3846 59.2952 48.1144L60.1048 46.2856C55.8794 44.4153 50.8341 43.5 45 43.5V45.5ZM59.2953 48.1144C63.2561 49.8676 66.7922 52.2359 69.9081 55.222L71.2919 53.778C68.0078 50.6307 64.2772 48.1324 60.1047 46.2856L59.2953 48.1144ZM71.6 54.5L71.6 0.399994L69.6 0.399994L69.6 54.5H71.6ZM70.6 1.39999L95.3 1.39999V-0.600006L70.6 -0.600006V1.39999ZM185.777 85.9V86.9H186.777V85.9H185.777ZM184.377 76.9L183.419 77.1894L183.423 77.2029L183.428 77.2162L184.377 76.9ZM173.477 64.4L173.056 65.3073L173.069 65.3134L173.083 65.3191L173.477 64.4ZM146.977 68.6L146.275 67.8871L146.269 67.8929L146.977 68.6ZM139.177 85.9L138.188 85.7499L138.013 86.9H139.177V85.9ZM138.677 100.8V99.8H137.598L137.679 100.876L138.677 100.8ZM141.477 114.5L140.542 114.855L140.544 114.86L141.477 114.5ZM147.277 124L146.551 124.688L146.56 124.697L147.277 124ZM155.777 129.6L155.415 130.532L155.426 130.537L155.438 130.541L155.777 129.6ZM177.077 130L176.773 129.047L176.767 129.049L177.077 130ZM184.677 126.9L184.219 126.011L184.207 126.017L184.677 126.9ZM190.377 123.8L189.888 122.927L189.88 122.932L189.873 122.936L190.377 123.8ZM199.777 124.7L198.939 125.246L198.964 125.284L198.991 125.319L199.777 124.7ZM206.877 133.7L207.637 134.349L208.17 133.725L207.662 133.081L206.877 133.7ZM197.677 141.8L198.208 142.647L198.22 142.64L197.677 141.8ZM186.977 147L187.303 147.945L187.313 147.942L186.977 147ZM175.677 149.7L175.54 148.709L175.538 148.71L175.677 149.7ZM144.677 147L144.312 147.931L144.321 147.935L144.677 147ZM128.677 136.5L127.959 137.197L127.964 137.202L128.677 136.5ZM117.977 119.3L117.041 119.654L117.043 119.657L117.977 119.3ZM117.477 75.8L118.415 76.1466L118.416 76.1434L117.477 75.8ZM127.177 59.7L126.443 59.02L126.443 59.0204L127.177 59.7ZM142.677 48.8L142.278 47.8829L142.274 47.8845L142.677 48.8ZM181.277 47.9L181.63 46.9646L181.277 47.9ZM195.377 57L194.664 57.7012L194.669 57.7071L195.377 57ZM204.577 71.6L203.641 71.9547L203.647 71.9677L204.577 71.6ZM206.777 98.9L207.622 99.434L207.628 99.4243L207.634 99.4145L206.777 98.9ZM186.777 85.9C186.777 82.6015 186.295 79.494 185.325 76.5838L183.428 77.2162C184.324 79.906 184.777 82.7984 184.777 85.9H186.777ZM185.334 76.6106C184.431 73.6232 183.035 71 181.141 68.7551L179.612 70.0449C181.318 72.0667 182.589 74.4435 183.419 77.1894L185.334 76.6106ZM181.141 68.7551C179.231 66.4922 176.8 64.7365 173.87 63.4809L173.083 65.3191C175.753 66.4635 177.922 68.0411 179.612 70.0449L181.141 68.7551ZM173.897 63.4927C171.007 62.1532 167.658 61.5 163.877 61.5V63.5C167.429 63.5 170.48 64.1135 173.056 65.3073L173.897 63.4927ZM163.877 61.5C156.545 61.5 150.637 63.596 146.275 67.8872L147.678 69.3128C151.583 65.4707 156.942 63.5 163.877 63.5V61.5ZM146.269 67.8929C142.011 72.1516 139.343 78.1381 138.188 85.7499L140.165 86.0501C141.277 78.7285 143.809 73.1818 147.684 69.3071L146.269 67.8929ZM139.177 86.9H185.777V84.9H139.177V86.9ZM137.679 100.876C138.085 106.213 139.033 110.878 140.542 114.855L142.412 114.145C140.987 110.389 140.068 105.921 139.674 100.724L137.679 100.876ZM140.544 114.86C142.05 118.762 144.047 122.045 146.551 124.688L148.003 123.312C145.706 120.888 143.837 117.838 142.409 114.14L140.544 114.86ZM146.56 124.697C149.062 127.269 152.017 129.215 155.415 130.532L156.138 128.668C153.003 127.452 150.291 125.664 147.993 123.303L146.56 124.697ZM155.438 130.541C158.893 131.785 162.676 132.4 166.777 132.4V130.4C162.877 130.4 159.327 129.815 156.115 128.659L155.438 130.541ZM166.777 132.4C170.85 132.4 174.393 131.925 177.386 130.951L176.767 129.049C174.027 129.941 170.704 130.4 166.777 130.4V132.4ZM177.38 130.953C180.356 130.006 182.947 128.951 185.146 127.783L184.207 126.017C182.139 127.116 179.664 128.127 176.773 129.047L177.38 130.953ZM185.135 127.789C187.345 126.65 189.261 125.608 190.88 124.664L189.873 122.936C188.292 123.858 186.408 124.883 184.219 126.011L185.135 127.789ZM190.865 124.673C192.419 123.802 193.852 123.4 195.177 123.4V121.4C193.435 121.4 191.668 121.931 189.888 122.927L190.865 124.673ZM195.177 123.4C196.957 123.4 198.15 124.036 198.939 125.246L200.614 124.154C199.403 122.297 197.53 121.4 195.177 121.4V123.4ZM198.991 125.319L206.091 134.319L207.662 133.081L200.562 124.081L198.991 125.319ZM206.116 133.051C203.443 136.18 200.449 138.815 197.133 140.96L198.22 142.64C201.704 140.385 204.843 137.62 207.637 134.349L206.116 133.051ZM197.145 140.953C193.806 143.048 190.304 144.75 186.64 146.058L187.313 147.942C191.115 146.584 194.747 144.818 198.208 142.647L197.145 140.953ZM186.65 146.055C183.045 147.3 179.342 148.185 175.54 148.709L175.813 150.691C179.744 150.148 183.574 149.233 187.303 147.945L186.65 146.055ZM175.538 148.71C171.781 149.237 168.127 149.5 164.577 149.5V151.5C168.226 151.5 171.973 151.23 175.816 150.69L175.538 148.71ZM164.577 149.5C157.554 149.5 151.042 148.352 145.032 146.065L144.321 147.935C150.577 150.315 157.332 151.5 164.577 151.5V149.5ZM145.041 146.069C139.036 143.719 133.822 140.296 129.389 135.798L127.964 137.202C132.598 141.904 138.051 145.481 144.312 147.931L145.041 146.069ZM129.394 135.803C124.966 131.245 121.468 125.631 118.911 118.943L117.043 119.657C119.685 126.569 123.321 132.422 127.959 137.197L129.394 135.803ZM118.912 118.946C116.363 112.215 115.077 104.405 115.077 95.5H113.077C113.077 104.595 114.39 112.652 117.041 119.654L118.912 118.946ZM115.077 95.5C115.077 88.6099 116.192 82.1614 118.415 76.1466L116.539 75.4533C114.228 81.7053 113.077 88.3901 113.077 95.5H115.077ZM118.416 76.1434C120.64 70.0594 123.806 64.8091 127.91 60.3796L126.443 59.0204C122.147 63.6575 118.846 69.1406 116.537 75.4566L118.416 76.1434ZM127.91 60.38C132.078 55.8859 137.13 52.3302 143.079 49.7155L142.274 47.8845C136.089 50.6031 130.808 54.3141 126.443 59.02L127.91 60.38ZM143.075 49.7171C149.066 47.1125 155.827 45.8 163.377 45.8V43.8C155.593 43.8 148.554 45.1541 142.278 47.8829L143.075 49.7171ZM163.377 45.8C169.735 45.8 175.581 46.8158 180.923 48.8354L181.63 46.9646C176.039 44.8509 169.951 43.8 163.377 43.8V45.8ZM180.923 48.8354C186.26 50.8531 190.836 53.8086 194.664 57.7011L196.09 56.2989C192.051 52.1914 187.226 49.0802 181.63 46.9646L180.923 48.8354ZM194.669 57.7071C198.492 61.5294 201.486 66.2716 203.642 71.9547L205.512 71.2453C203.267 65.3284 200.128 60.3372 196.084 56.2929L194.669 57.7071ZM203.647 71.9677C205.859 77.563 206.977 84.0013 206.977 91.3H208.977C208.977 83.7987 207.828 77.1036 205.507 71.2323L203.647 71.9677ZM206.977 91.3C206.977 93.1357 206.878 94.6464 206.689 95.844C206.497 97.0556 206.224 97.8775 205.919 98.3855L207.634 99.4145C208.129 98.5892 208.456 97.4777 208.664 96.156C208.875 94.8203 208.977 93.1976 208.977 91.3H206.977ZM205.931 98.366C205.396 99.2133 204.288 99.8 202.177 99.8V101.8C204.599 101.8 206.557 101.12 207.622 99.434L205.931 98.366ZM202.177 99.8H138.677V101.8H202.177V99.8ZM289.112 66.4L288.266 65.8674L288.264 65.87L289.112 66.4ZM287.013 68.7L287.491 69.5779L287.521 69.5618L287.549 69.5437L287.013 68.7ZM280.312 68.3L279.865 69.1944L279.874 69.1987L279.883 69.2029L280.312 68.3ZM275.613 66.1L275.179 67.001L275.192 67.0076L275.206 67.0138L275.613 66.1ZM269.413 63.8L269.13 64.7594L269.138 64.7615L269.413 63.8ZM249.812 65.9L249.219 65.0954L249.209 65.1023L249.812 65.9ZM247.812 79.6L247.074 80.2743L247.089 80.291L247.105 80.3071L247.812 79.6ZM253.513 83.5L253.076 84.3996L253.086 84.4042L253.513 83.5ZM261.612 86.6L261.315 87.5549L261.325 87.5579L261.335 87.5607L261.612 86.6ZM270.712 89.5L270.384 90.4445L270.39 90.4466L270.712 89.5ZM279.913 93.2L279.49 94.1062L279.498 94.1101L279.506 94.1138L279.913 93.2ZM287.913 98.4L287.238 99.138L287.249 99.1481L287.26 99.1578L287.913 98.4ZM293.613 105.9L292.71 106.331L292.714 106.339L292.718 106.347L293.613 105.9ZM293.113 130.2L292.193 129.806L292.19 129.813L293.113 130.2ZM285.312 141L285.967 141.756L285.975 141.749L285.312 141ZM272.413 148.1L272.725 149.05L272.732 149.047L272.413 148.1ZM244.413 149.6L244.605 148.619L244.597 148.617L244.59 148.616L244.413 149.6ZM234.712 147L234.366 147.938L234.372 147.94L234.712 147ZM226.113 143L225.604 143.861L225.614 143.867L226.113 143ZM219.212 138L218.357 137.481L217.928 138.189L218.544 138.743L219.212 138ZM224.913 128.6L224.073 128.057L224.065 128.069L224.057 128.081L224.913 128.6ZM227.512 126L228.027 126.857L227.512 126ZM235.613 126.4L235.068 127.238L235.077 127.244L235.086 127.25L235.613 126.4ZM240.413 129.2L239.927 130.074L240.413 129.2ZM246.712 132L246.373 132.941L246.381 132.943L246.712 132ZM263.513 132.3L263.82 133.252L263.829 133.249L263.838 133.246L263.513 132.3ZM268.712 129.5L268.083 128.723L268.074 128.73L268.065 128.738L268.712 129.5ZM271.712 125.6L270.795 125.201L270.791 125.211L270.787 125.221L271.712 125.6ZM270.513 115L269.774 115.674L269.782 115.683L269.79 115.691L270.513 115ZM264.812 111L264.376 111.9L264.385 111.904L264.812 111ZM256.712 108L256.415 108.955L256.428 108.959L256.441 108.962L256.712 108ZM247.413 105L247.09 105.947L247.096 105.949L247.413 105ZM238.113 101.3L237.673 102.198L237.685 102.204L237.697 102.21L238.113 101.3ZM230.012 95.8L229.326 96.5277L229.337 96.5372L230.012 95.8ZM224.312 87.7L223.396 88.1008L223.4 88.1088L223.403 88.1167L224.312 87.7ZM224.712 64.1L223.797 63.6983L224.712 64.1ZM232.012 54.2L232.671 54.9526L232.672 54.9516L232.012 54.2ZM244.113 47.4L244.441 48.3447L244.448 48.342L244.113 47.4ZM280.212 48.3L280.586 47.3723L280.212 48.3ZM294.712 57.5L295.559 58.0326L295.988 57.3511L295.413 56.7868L294.712 57.5ZM288.264 65.87C287.644 66.8625 287.04 67.4973 286.476 67.8563L287.549 69.5437C288.452 68.9694 289.247 68.0708 289.961 66.93L288.264 65.87ZM286.534 67.8221C285.99 68.1185 285.236 68.3 284.212 68.3V70.3C285.456 70.3 286.568 70.0815 287.491 69.5779L286.534 67.8221ZM284.212 68.3C283.198 68.3 282.046 68.0178 280.742 67.3971L279.883 69.2029C281.379 69.9155 282.827 70.3 284.212 70.3V68.3ZM280.76 67.4056C279.409 66.7304 277.828 65.9905 276.019 65.1862L275.206 67.0138C276.997 67.8095 278.549 68.5363 279.865 69.1944L280.76 67.4056ZM276.046 65.199C274.186 64.3031 272.064 63.5176 269.687 62.8385L269.138 64.7615C271.428 65.4158 273.439 66.1636 275.179 67.001L276.046 65.199ZM269.695 62.8406C267.312 62.1399 264.512 61.8 261.312 61.8V63.8C264.379 63.8 266.98 64.1268 269.13 64.7594L269.695 62.8406ZM261.312 61.8C256.315 61.8 252.247 62.8601 249.219 65.0954L250.406 66.7046C252.978 64.8066 256.577 63.8 261.312 63.8V61.8ZM249.209 65.1023C246.234 67.3518 244.712 70.3431 244.712 74H246.712C246.712 70.9902 247.924 68.5815 250.416 66.6977L249.209 65.1023ZM244.712 74C244.712 76.4332 245.495 78.545 247.074 80.2743L248.551 78.9257C247.33 77.5883 246.712 75.9668 246.712 74H244.712ZM247.105 80.3071C248.668 81.8694 250.666 83.2292 253.076 84.3995L253.949 82.6005C251.692 81.5041 249.891 80.2639 248.52 78.8929L247.105 80.3071ZM253.086 84.4042C255.534 85.5607 258.279 86.6101 261.315 87.5549L261.91 85.6451C258.946 84.7232 256.291 83.706 253.94 82.5957L253.086 84.4042ZM261.335 87.5607C264.317 88.4222 267.333 89.3835 270.384 90.4445L271.041 88.5555C267.958 87.4832 264.908 86.5111 261.89 85.6393L261.335 87.5607ZM270.39 90.4466C273.489 91.5016 276.522 92.7215 279.49 94.1062L280.335 92.2938C277.303 90.8785 274.202 89.6317 271.035 88.5533L270.39 90.4466ZM279.506 94.1138C282.412 95.4051 284.987 97.0801 287.238 99.138L288.587 97.662C286.171 95.4532 283.413 93.6616 280.319 92.2862L279.506 94.1138ZM287.26 99.1578C289.552 101.132 291.368 103.519 292.71 106.331L294.515 105.469C293.057 102.414 291.073 99.8018 288.565 97.6422L287.26 99.1578ZM292.718 106.347C294.1 109.11 294.812 112.483 294.812 116.5H296.812C296.812 112.251 296.059 108.556 294.507 105.453L292.718 106.347ZM294.812 116.5C294.812 121.309 293.936 125.74 292.193 129.806L294.032 130.594C295.889 126.26 296.812 121.558 296.812 116.5H294.812ZM292.19 129.813C290.517 133.803 288.008 137.281 284.65 140.251L285.975 141.749C289.551 138.586 292.241 134.863 294.035 130.587L292.19 129.813ZM284.658 140.244C281.306 143.145 277.125 145.453 272.093 147.153L272.732 149.047C277.967 147.28 282.386 144.855 285.967 141.756L284.658 140.244ZM272.1 147.15C267.156 148.776 261.398 149.6 254.812 149.6V151.6C261.56 151.6 267.536 150.757 272.725 149.05L272.1 147.15ZM254.812 149.6C251.342 149.6 247.94 149.273 244.605 148.619L244.22 150.581C247.685 151.261 251.216 151.6 254.812 151.6V149.6ZM244.59 148.616C241.311 148.026 238.132 147.173 235.053 146.06L234.372 147.94C237.56 149.093 240.847 149.974 244.235 150.584L244.59 148.616ZM235.059 146.062C232.042 144.947 229.226 143.637 226.611 142.133L225.614 143.867C228.332 145.43 231.25 146.786 234.366 147.938L235.059 146.062ZM226.62 142.139C224.071 140.635 221.826 139.007 219.881 137.257L218.544 138.743C220.599 140.593 222.954 142.298 225.605 143.861L226.62 142.139ZM220.068 138.519L225.768 129.118L224.057 128.081L218.357 137.481L220.068 138.519ZM225.752 129.143C226.416 128.118 227.177 127.367 228.027 126.857L226.998 125.143C225.848 125.833 224.876 126.815 224.073 128.057L225.752 129.143ZM228.027 126.857C228.83 126.376 229.905 126.1 231.312 126.1V124.1C229.654 124.1 228.195 124.424 226.998 125.143L228.027 126.857ZM231.312 126.1C232.645 126.1 233.89 126.473 235.068 127.238L236.157 125.562C234.668 124.594 233.047 124.1 231.312 124.1V126.1ZM235.086 127.25C236.502 128.127 238.116 129.068 239.927 130.074L240.898 128.326C239.109 127.332 237.523 126.406 236.139 125.55L235.086 127.25ZM239.927 130.074C241.783 131.105 243.934 132.06 246.373 132.941L247.052 131.059C244.691 130.207 242.642 129.295 240.898 128.326L239.927 130.074ZM246.381 132.943C248.989 133.86 252.211 134.3 256.013 134.3V132.3C252.348 132.3 249.369 131.874 247.044 131.057L246.381 132.943ZM256.013 134.3C259.016 134.3 261.626 133.959 263.82 133.252L263.206 131.348C261.266 131.974 258.876 132.3 256.013 132.3V134.3ZM263.838 133.246C266.056 132.483 267.909 131.496 269.36 130.262L268.065 128.738C266.85 129.771 265.235 130.65 263.187 131.354L263.838 133.246ZM269.342 130.277C270.854 129.053 271.966 127.621 272.638 125.979L270.787 125.221C270.259 126.512 269.371 127.681 268.083 128.723L269.342 130.277ZM272.63 125.999C273.348 124.345 273.712 122.643 273.712 120.9H271.712C271.712 122.357 271.41 123.788 270.795 125.201L272.63 125.999ZM273.712 120.9C273.712 118.279 272.904 116.053 271.235 114.309L269.79 115.691C271.055 117.014 271.712 118.721 271.712 120.9H273.712ZM271.251 114.326C269.742 112.673 267.726 111.27 265.24 110.096L264.385 111.904C266.699 112.997 268.483 114.26 269.774 115.674L271.251 114.326ZM265.249 110.1C262.853 108.936 260.096 107.917 256.984 107.038L256.441 108.962C259.463 109.816 262.106 110.797 264.376 111.9L265.249 110.1ZM257.01 107.045C254.016 106.114 250.923 105.116 247.729 104.051L247.096 105.949C250.302 107.017 253.409 108.019 256.415 108.955L257.01 107.045ZM247.735 104.053C244.634 102.998 241.565 101.777 238.528 100.39L237.697 102.21C240.794 103.623 243.925 104.869 247.09 105.947L247.735 104.053ZM238.552 100.402C235.636 98.976 233.016 97.1964 230.688 95.0628L229.337 96.5372C231.809 98.8036 234.589 100.691 237.673 102.198L238.552 100.402ZM230.699 95.0724C228.468 92.969 226.64 90.3778 225.222 87.2833L223.403 88.1167C224.918 91.4222 226.891 94.231 229.326 96.5276L230.699 95.0724ZM225.229 87.2992C223.898 84.2572 223.212 80.5347 223.212 76.1H221.212C221.212 80.732 221.927 84.7428 223.396 88.1008L225.229 87.2992ZM223.212 76.1C223.212 72.0365 224.018 68.1735 225.628 64.5017L223.797 63.6983C222.074 67.6265 221.212 71.7635 221.212 76.1H223.212ZM225.628 64.5017C227.235 60.8395 229.579 57.6584 232.671 54.9526L231.354 53.4474C228.046 56.3416 225.524 59.7605 223.797 63.6983L225.628 64.5017ZM232.672 54.9516C235.827 52.1832 239.742 49.976 244.441 48.3447L243.784 46.4553C238.883 48.1573 234.732 50.4834 231.353 53.4484L232.672 54.9516ZM244.448 48.342C249.186 46.6546 254.669 45.8 260.913 45.8V43.8C254.49 43.8 248.773 44.6787 243.777 46.458L244.448 48.342ZM260.913 45.8C267.868 45.8 274.172 46.948 279.839 49.2277L280.586 47.3723C274.653 44.9854 268.09 43.8 260.913 43.8V45.8ZM279.839 49.2277C285.536 51.5193 290.252 54.5187 294.012 58.2132L295.413 56.7868C291.439 52.8813 286.489 49.7473 280.586 47.3723L279.839 49.2277ZM293.866 56.9674L288.266 65.8674L289.959 66.9326L295.559 58.0326L293.866 56.9674ZM340.003 46.4H341.003V45.4H340.003V46.4ZM340.003 149V150H341.003V149H340.003ZM315.203 149H314.203V150H315.203V149ZM315.203 46.4V45.4H314.203V46.4H315.203ZM342.103 22.5L343.01 22.9211L342.103 22.5ZM338.603 27.4L337.913 26.6766L337.904 26.6847L337.896 26.6929L338.603 27.4ZM333.603 30.8L333.985 31.724L333.999 31.7185L334.012 31.7125L333.603 30.8ZM321.303 30.8L320.882 31.707L320.901 31.7159L320.921 31.724L321.303 30.8ZM313.003 22.5L312.084 22.8939L312.09 22.9076L312.096 22.9211L313.003 22.5ZM313.003 10.3L312.091 9.89093L312.085 9.90421L312.079 9.91764L313.003 10.3ZM321.303 2L321.697 2.91914L321.705 2.91589L321.712 2.91251L321.303 2ZM333.603 2L333.194 2.91251L333.207 2.91846L333.221 2.92402L333.603 2ZM338.603 5.3L337.896 6.0071L337.904 6.01532L337.913 6.02335L338.603 5.3ZM342.103 10.3L343.016 9.89094V9.89093L342.103 10.3ZM339.003 46.4L339.003 149H341.003L341.003 46.4H339.003ZM340.003 148H315.203L315.203 150H340.003L340.003 148ZM316.203 149L316.203 46.4H314.203L314.203 149H316.203ZM315.203 47.4H340.003V45.4H315.203V47.4ZM342.403 16.5C342.403 18.4933 341.999 20.349 341.196 22.0789L343.01 22.9211C343.94 20.9176 344.403 18.7733 344.403 16.5H342.403ZM341.196 22.0789C340.381 23.8339 339.288 25.3643 337.913 26.6766L339.294 28.1233C340.852 26.6357 342.092 24.8994 343.01 22.9211L341.196 22.0789ZM337.896 26.6929C336.588 28.001 335.024 29.0671 333.194 29.8875L334.012 31.7125C336.049 30.7996 337.818 29.599 339.31 28.1071L337.896 26.6929ZM333.221 29.876C331.415 30.6233 329.479 31 327.403 31V33C329.727 33 331.925 32.5767 333.985 31.724L333.221 29.876ZM327.403 31C325.398 31 323.495 30.6248 321.685 29.876L320.921 31.724C322.978 32.5752 325.141 33 327.403 33V31ZM321.724 29.893C319.96 29.0737 318.424 28.0068 317.11 26.6929L315.696 28.1071C317.182 29.5932 318.913 30.793 320.882 31.707L321.724 29.893ZM317.11 26.6929C315.796 25.379 314.729 23.8435 313.91 22.0789L312.096 22.9211C313.01 24.8898 314.21 26.621 315.696 28.1071L317.11 26.6929ZM313.922 22.1061C313.178 20.3701 312.803 18.5049 312.803 16.5H310.803C310.803 18.7618 311.228 20.8965 312.084 22.8939L313.922 22.1061ZM312.803 16.5C312.803 14.4243 313.18 12.4883 313.927 10.6823L312.079 9.91764C311.226 11.9784 310.803 14.1757 310.803 16.5H312.803ZM313.916 10.709C314.736 8.8789 315.802 7.3152 317.11 6.0071L315.696 4.59289C314.204 6.08479 313.004 7.85443 312.091 9.89093L313.916 10.709ZM317.11 6.0071C318.418 4.69939 319.944 3.67034 321.697 2.91914L320.909 1.08085C318.929 1.92965 317.188 3.1006 315.696 4.59289L317.11 6.0071ZM321.712 2.91251C323.516 2.10392 325.41 1.7 327.403 1.7V-0.300003C325.13 -0.300003 322.957 0.162735 320.894 1.08749L321.712 2.91251ZM327.403 1.7C329.468 1.7 331.394 2.10574 333.194 2.91251L334.012 1.08749C331.945 0.160921 329.739 -0.300003 327.403 -0.300003V1.7ZM333.221 2.92402C335.04 3.67665 336.594 4.70526 337.896 6.0071L339.31 4.59289C337.812 3.09473 336.033 1.92334 333.985 1.07598L333.221 2.92402ZM337.913 6.02335C339.281 7.32995 340.374 8.88847 341.191 10.709L343.016 9.89093C342.098 7.84485 340.858 6.07005 339.294 4.57664L337.913 6.02335ZM341.191 10.709C341.997 12.5088 342.403 14.4354 342.403 16.5H344.403C344.403 14.1645 343.942 11.9579 343.016 9.89094L341.191 10.709ZM410.684 94L411.017 94.943L411.029 94.9387L411.042 94.9341L410.684 94ZM416.284 90.5L415.593 89.7774L415.585 89.785L415.577 89.7929L416.284 90.5ZM419.684 85.2L418.752 84.839L418.747 84.8522L418.742 84.8656L419.684 85.2ZM416.284 66.4L415.577 67.1071L415.585 67.115L415.593 67.1226L416.284 66.4ZM388.984 66.4L389.684 67.115L389.684 67.1148L388.984 66.4ZM385.584 85.1L384.642 85.4344L384.647 85.4478L384.652 85.461L385.584 85.1ZM388.984 90.5L388.262 91.1912L388.277 91.2073L388.293 91.2226L388.984 90.5ZM394.684 94L394.327 94.9341L394.344 94.9403L394.36 94.9459L394.684 94ZM428.784 148.7L428.058 149.388L428.784 148.7ZM423.884 145.8L423.55 146.742L423.564 146.747L423.577 146.752L423.884 145.8ZM416.584 144.2L416.463 145.193L416.466 145.193L416.584 144.2ZM407.784 143.5L407.719 144.498L407.731 144.499L407.742 144.499L407.784 143.5ZM398.184 143L398.144 143.999L398.144 143.999L398.184 143ZM388.584 142.2L388.711 141.208L388.383 141.166L388.095 141.328L388.584 142.2ZM381.884 147.6L381.118 146.957L381.112 146.965L381.106 146.972L381.884 147.6ZM380.684 159.8L379.814 160.292L379.821 160.304L380.684 159.8ZM384.984 163.9L384.479 164.763L384.485 164.766L384.491 164.77L384.984 163.9ZM392.684 166.5L392.892 165.522L392.882 165.52L392.872 165.518L392.684 166.5ZM416.084 166.4L415.888 165.419L415.879 165.421L415.87 165.423L416.084 166.4ZM424.284 163.5L423.806 162.622L423.79 162.631L423.774 162.64L424.284 163.5ZM429.084 159.1L428.227 158.586L428.222 158.593L428.218 158.6L429.084 159.1ZM455.184 49.9H456.184V48.9H455.184V49.9ZM449.884 64.5L450.066 65.4834L450.07 65.4827L449.884 64.5ZM440.684 66.2L440.503 65.2166L439.307 65.4376L439.755 66.5684L440.684 66.2ZM439.684 91.6L438.79 91.1528L438.787 91.1587L439.684 91.6ZM431.284 102L431.907 102.782L431.284 102ZM418.484 108.7L418.785 109.654L418.793 109.651L418.484 108.7ZM391.384 109.9L391.566 108.917L391.193 108.847L390.867 109.044L391.384 109.9ZM389.384 121L388.912 121.881L388.931 121.891L388.95 121.901L389.384 121ZM396.984 123L397.111 122.008L396.984 123ZM407.684 123.8L407.651 124.799L407.659 124.8L407.668 124.8L407.684 123.8ZM419.984 124.4L419.905 125.397L419.984 124.4ZM432.284 126.2L432.073 127.177L432.08 127.179L432.088 127.181L432.284 126.2ZM442.984 130.1L443.483 129.233L442.984 130.1ZM450.484 137.5L449.625 138.012L449.632 138.023L449.638 138.033L450.484 137.5ZM449.984 162.6L449.101 162.131L449.096 162.142L449.984 162.6ZM440.284 174L439.669 173.212L439.663 173.217L440.284 174ZM424.684 182L424.377 181.048L424.365 181.052L424.684 182ZM383.484 182.8L383.743 181.834L383.732 181.831L383.484 182.8ZM369.184 176.8L369.739 175.968L369.729 175.961L369.184 176.8ZM360.684 168.2L361.553 167.704L360.684 168.2ZM362.184 146L361.44 145.332L361.44 145.333L362.184 146ZM374.184 138.2L374.541 139.134L376.639 138.334L374.64 137.31L374.184 138.2ZM367.684 132.6L366.86 133.166L367.684 132.6ZM366.084 118.7L365.143 118.361L365.139 118.372L365.136 118.384L366.084 118.7ZM368.584 113.8L367.768 113.222L367.76 113.234L367.752 113.245L368.584 113.8ZM372.784 109.3L373.428 110.066L373.436 110.058L373.445 110.051L372.784 109.3ZM378.684 105.4L379.132 106.294L380.855 105.433L379.158 104.52L378.684 105.4ZM366.384 94.2L365.538 94.7322L365.543 94.7408L366.384 94.2ZM364.984 64.1L364.09 63.6528L364.087 63.6587L364.984 64.1ZM373.484 53.6L374.107 54.3823L374.109 54.3809L373.484 53.6ZM386.384 46.9L386.091 45.9439L386.088 45.9451L386.384 46.9ZM415.084 46L414.85 46.9721L414.858 46.974L414.866 46.9758L415.084 46ZM425.684 49.9L425.208 50.7793L425.431 50.9H425.684V49.9ZM402.684 96.2C405.835 96.2 408.619 95.7895 411.017 94.943L410.352 93.057C408.217 93.8105 405.667 94.2 402.684 94.2V96.2ZM411.042 94.9341C413.417 94.0256 415.41 92.7886 416.991 91.2071L415.577 89.7929C414.225 91.1447 412.485 92.241 410.327 93.0659L411.042 94.9341ZM416.976 91.2226C418.626 89.6443 419.843 87.7432 420.627 85.5344L418.742 84.8656C418.059 86.7901 417.01 88.4224 415.593 89.7774L416.976 91.2226ZM420.617 85.561C421.466 83.3669 421.884 80.9762 421.884 78.4H419.884C419.884 80.7571 419.502 82.8998 418.752 84.839L420.617 85.561ZM421.884 78.4C421.884 73.1175 420.277 68.8355 416.976 65.6774L415.593 67.1226C418.425 69.8312 419.884 73.5491 419.884 78.4H421.884ZM416.991 65.6929C413.736 62.4374 408.901 60.9 402.684 60.9V62.9C408.601 62.9 412.833 64.3626 415.577 67.1071L416.991 65.6929ZM402.684 60.9C396.465 60.9 391.604 62.4381 388.285 65.6852L389.684 67.1148C392.498 64.3619 396.77 62.9 402.684 62.9V60.9ZM388.285 65.685C385.054 68.8446 383.484 73.1241 383.484 78.4H385.484C385.484 73.5426 386.915 69.8221 389.684 67.115L388.285 65.685ZM383.484 78.4C383.484 80.9032 383.867 83.2507 384.642 85.4344L386.527 84.7656C385.835 82.816 385.484 80.6968 385.484 78.4H383.484ZM384.652 85.461C385.497 87.6449 386.7 89.5585 388.262 91.1912L389.707 89.8088C388.335 88.3748 387.272 86.6884 386.517 84.739L384.652 85.461ZM388.293 91.2226C389.936 92.7936 391.954 94.0266 394.327 94.9341L395.042 93.0659C392.881 92.24 391.1 91.1397 389.676 89.7774L388.293 91.2226ZM394.36 94.9459C396.818 95.7885 399.597 96.2 402.684 96.2V94.2C399.772 94.2 397.218 93.8115 395.009 93.0541L394.36 94.9459ZM431.584 153.6C431.584 151.384 430.912 149.492 429.51 148.012L428.058 149.388C429.057 150.441 429.584 151.816 429.584 153.6H431.584ZM429.51 148.012C428.17 146.598 426.379 145.554 424.191 144.848L423.577 146.752C425.523 147.379 426.999 148.269 428.058 149.388L429.51 148.012ZM424.219 144.858C422.066 144.094 419.557 143.547 416.703 143.207L416.466 145.193C419.212 145.52 421.57 146.04 423.55 146.742L424.219 144.858ZM416.705 143.207C413.943 142.87 410.983 142.635 407.827 142.501L407.742 144.499C410.852 144.631 413.759 144.863 416.463 145.193L416.705 143.207ZM407.849 142.502C404.774 142.302 401.565 142.134 398.224 142.001L398.144 143.999C401.47 144.132 404.662 144.298 407.719 144.498L407.849 142.502ZM398.225 142.001C394.986 141.869 391.815 141.604 388.711 141.208L388.458 143.192C391.621 143.596 394.849 143.865 398.144 143.999L398.225 142.001ZM388.095 141.328C385.273 142.911 382.941 144.784 381.118 146.957L382.651 148.243C384.295 146.282 386.429 144.556 389.074 143.072L388.095 141.328ZM381.106 146.972C379.291 149.222 378.384 151.846 378.384 154.8H380.384C380.384 152.288 381.144 150.111 382.663 148.228L381.106 146.972ZM378.384 154.8C378.384 156.768 378.86 158.605 379.814 160.292L381.555 159.308C380.775 157.928 380.384 156.432 380.384 154.8H378.384ZM379.821 160.304C380.857 162.08 382.428 163.561 384.479 164.763L385.49 163.037C383.674 161.973 382.378 160.72 381.548 159.296L379.821 160.304ZM384.491 164.77C386.615 165.973 389.294 166.869 392.496 167.482L392.872 165.518C389.808 164.931 387.354 164.093 385.477 163.03L384.491 164.77ZM392.476 167.478C395.7 168.164 399.607 168.5 404.184 168.5V166.5C399.695 166.5 395.936 166.169 392.892 165.522L392.476 167.478ZM404.184 168.5C408.833 168.5 412.876 168.13 416.299 167.377L415.87 165.423C412.626 166.137 408.735 166.5 404.184 166.5V168.5ZM416.28 167.381C419.687 166.699 422.536 165.701 424.795 164.36L423.774 162.64C421.766 163.832 419.149 164.767 415.888 165.419L416.28 167.381ZM424.763 164.378C427.084 163.112 428.838 161.528 429.951 159.6L428.218 158.6C427.331 160.139 425.885 161.488 423.806 162.622L424.763 164.378ZM429.942 159.615C431.038 157.788 431.584 155.776 431.584 153.6H429.584C429.584 155.424 429.131 157.079 428.227 158.586L429.942 159.615ZM454.184 49.9V59.1H456.184V49.9H454.184ZM454.184 59.1C454.184 60.3507 453.816 61.267 453.146 61.9495C452.455 62.6537 451.347 63.2064 449.699 63.5173L450.07 65.4827C451.955 65.1269 453.497 64.4463 454.573 63.3505C455.67 62.233 456.184 60.7826 456.184 59.1H454.184ZM449.703 63.5166L440.503 65.2166L440.866 67.1833L450.066 65.4834L449.703 63.5166ZM439.755 66.5684C441.104 69.9727 441.784 73.7129 441.784 77.8H443.784C443.784 73.4871 443.065 69.4939 441.614 65.8316L439.755 66.5684ZM441.784 77.8C441.784 82.7266 440.781 87.1713 438.79 91.1528L440.579 92.0472C442.721 87.762 443.784 83.0067 443.784 77.8H441.784ZM438.787 91.1587C436.853 95.0907 434.148 98.4416 430.661 101.218L431.907 102.782C435.621 99.8251 438.516 96.2426 440.582 92.0413L438.787 91.1587ZM430.661 101.218C427.166 104.001 423.009 106.181 418.176 107.749L418.793 109.651C423.826 108.019 428.202 105.733 431.907 102.782L430.661 101.218ZM418.184 107.746C413.425 109.246 408.26 110 402.684 110V112C408.442 112 413.811 111.221 418.785 109.654L418.184 107.746ZM402.684 110C400.718 110 398.82 109.902 396.991 109.706L396.778 111.694C398.682 111.898 400.651 112 402.684 112V110ZM396.991 109.706C395.149 109.508 393.341 109.245 391.566 108.917L391.202 110.883C393.028 111.221 394.887 111.492 396.778 111.694L396.991 109.706ZM390.867 109.044C387.545 111.051 385.584 113.483 385.584 116.4H387.584C387.584 114.517 388.824 112.615 391.901 110.756L390.867 109.044ZM385.584 116.4C385.584 117.588 385.854 118.674 386.43 119.62C387.005 120.564 387.85 121.312 388.912 121.881L389.857 120.119C389.052 119.688 388.497 119.169 388.139 118.58C387.781 117.993 387.584 117.278 387.584 116.4H385.584ZM388.95 121.901C391.014 122.897 393.663 123.584 396.858 123.992L397.111 122.008C394.039 121.616 391.621 120.969 389.819 120.099L388.95 121.901ZM396.858 123.992C400.029 124.397 403.628 124.665 407.651 124.799L407.718 122.801C403.741 122.668 400.206 122.403 397.111 122.008L396.858 123.992ZM407.668 124.8C411.646 124.866 415.725 125.065 419.905 125.397L420.064 123.403C415.844 123.068 411.723 122.867 407.701 122.8L407.668 124.8ZM419.905 125.397C424.062 125.727 428.118 126.32 432.073 127.177L432.496 125.223C428.451 124.346 424.307 123.74 420.064 123.403L419.905 125.397ZM432.088 127.181C435.996 127.962 439.458 129.227 442.486 130.967L443.483 129.233C440.244 127.373 436.573 126.038 432.48 125.219L432.088 127.181ZM442.486 130.967C445.469 132.681 447.846 135.024 449.625 138.012L451.343 136.988C449.39 133.709 446.766 131.119 443.483 129.233L442.486 130.967ZM449.638 138.033C451.442 140.894 452.384 144.659 452.384 149.4H454.384C454.384 144.407 453.393 140.239 451.33 136.967L449.638 138.033ZM452.384 149.4C452.384 153.759 451.296 157.999 449.101 162.131L450.867 163.069C453.206 158.668 454.384 154.108 454.384 149.4H452.384ZM449.096 162.142C446.97 166.265 443.836 169.956 439.669 173.212L440.9 174.788C445.266 171.377 448.599 167.469 450.873 163.058L449.096 162.142ZM439.663 173.217C435.574 176.461 430.487 179.077 424.377 181.048L424.991 182.952C431.282 180.923 436.594 178.205 440.906 174.783L439.663 173.217ZM424.365 181.052C418.354 183.078 411.465 184.1 403.684 184.1V186.1C411.637 186.1 418.748 185.056 425.004 182.948L424.365 181.052ZM403.684 184.1C396.013 184.1 389.371 183.339 383.743 181.834L383.226 183.766C389.065 185.328 395.889 186.1 403.684 186.1V184.1ZM383.732 181.831C378.078 180.385 373.422 178.423 369.739 175.968L368.63 177.632C372.547 180.243 377.425 182.282 383.237 183.769L383.732 181.831ZM369.729 175.961C366.035 173.564 363.326 170.807 361.553 167.704L359.816 168.696C361.776 172.127 364.733 175.103 368.64 177.639L369.729 175.961ZM361.553 167.704C359.767 164.578 358.884 161.348 358.884 158H356.884C356.884 161.719 357.869 165.289 359.816 168.696L361.553 167.704ZM358.884 158C358.884 153.415 360.246 149.662 362.929 146.667L361.44 145.333C358.389 148.738 356.884 152.985 356.884 158H358.884ZM362.928 146.668C365.733 143.544 369.588 141.024 374.541 139.134L373.828 137.266C368.647 139.243 364.502 141.922 361.44 145.332L362.928 146.668ZM374.64 137.31C372.042 135.979 370.007 134.219 368.509 132.034L366.86 133.166C368.562 135.648 370.86 137.621 373.728 139.09L374.64 137.31ZM368.509 132.034C367.056 129.916 366.284 127.066 366.284 123.4H364.284C364.284 127.334 365.112 130.617 366.86 133.166L368.509 132.034ZM366.284 123.4C366.284 121.984 366.53 120.524 367.033 119.016L365.136 118.384C364.572 120.076 364.284 121.749 364.284 123.4H366.284ZM367.025 119.039C367.596 117.454 368.391 115.893 369.416 114.355L367.752 113.245C366.645 114.907 365.773 116.612 365.143 118.361L367.025 119.039ZM369.4 114.378C370.479 112.855 371.819 111.417 373.428 110.066L372.141 108.534C370.416 109.983 368.956 111.545 367.768 113.222L369.4 114.378ZM373.445 110.051C375.039 108.648 376.931 107.395 379.132 106.294L378.237 104.506C375.904 105.672 373.863 107.018 372.124 108.549L373.445 110.051ZM379.158 104.52C374.098 101.794 370.128 98.1742 367.226 93.6592L365.543 94.7408C368.641 99.5591 372.871 103.406 378.21 106.28L379.158 104.52ZM367.231 93.6678C364.411 89.1816 362.984 83.9048 362.984 77.8H360.984C360.984 84.2285 362.491 89.8851 365.538 94.7322L367.231 93.6678ZM362.984 77.8C362.984 72.8681 363.957 68.4552 365.882 64.5413L364.087 63.6587C362.012 67.8781 360.984 72.5985 360.984 77.8H362.984ZM365.879 64.5472C367.881 60.5434 370.622 57.1579 374.107 54.3823L372.861 52.8177C369.147 55.7754 366.221 59.3899 364.09 63.6528L365.879 64.5472ZM374.109 54.3809C377.669 51.533 381.855 49.3549 386.681 47.8549L386.088 45.9451C381.047 47.5117 376.633 49.8004 372.86 52.8191L374.109 54.3809ZM386.678 47.856C391.572 46.3552 396.905 45.6 402.684 45.6V43.6C396.73 43.6 391.197 44.3782 386.091 45.9439L386.678 47.856ZM402.684 45.6C407.014 45.6 411.068 46.0591 414.85 46.9721L415.319 45.0279C411.368 44.0742 407.155 43.6 402.684 43.6V45.6ZM414.866 46.9758C418.65 47.8241 422.096 49.0935 425.208 50.7793L426.161 49.0207C422.873 47.2398 419.252 45.9092 415.303 45.0242L414.866 46.9758ZM425.684 50.9H455.184V48.9H425.684V50.9ZM493.948 59L492.97 59.2054L493.349 61.0134L494.656 59.7071L493.948 59ZM500.448 53.3L501.056 54.0944L501.059 54.0918L500.448 53.3ZM507.748 48.8L508.177 49.7038L508.186 49.699L507.748 48.8ZM516.048 45.9L516.27 46.8751L516.281 46.8727L516.291 46.8701L516.048 45.9ZM540.548 47.7L540.141 48.6133L540.153 48.6184L540.548 47.7ZM551.348 55.7L550.578 56.3373L550.584 56.3453L550.591 56.3532L551.348 55.7ZM557.948 68L556.992 68.2922L556.995 68.3002L556.997 68.3082L557.948 68ZM560.248 149V150H561.248V149H560.248ZM535.548 149H534.548V150H535.548V149ZM531.248 69.2L530.478 69.8373L530.484 69.8446L531.248 69.2ZM506.148 66.9L505.689 66.012L506.148 66.9ZM495.548 74.8L494.841 74.0929L494.548 74.3858V74.8H495.548ZM495.548 149V150H496.548V149H495.548ZM470.848 149H469.848V150H470.848V149ZM470.848 46.4V45.4H469.848V46.4H470.848ZM492.248 50.9L493.227 50.6946L493.215 50.6383L493.197 50.5838L492.248 50.9ZM494.656 59.7071C496.692 57.6709 498.825 55.8002 501.056 54.0944L499.841 52.5056C497.538 54.2665 495.339 56.1957 493.241 58.2929L494.656 59.7071ZM501.059 54.0918C503.339 52.3333 505.711 50.8715 508.177 49.7037L507.32 47.8963C504.719 49.1284 502.225 50.6667 499.838 52.5082L501.059 54.0918ZM508.186 49.699C510.715 48.4672 513.409 47.5255 516.27 46.8751L515.827 44.9249C512.822 45.6078 509.982 46.5994 507.31 47.901L508.186 49.699ZM516.291 46.8701C519.134 46.1593 522.252 45.8 525.648 45.8V43.8C522.112 43.8 518.829 44.174 515.806 44.9299L516.291 46.8701ZM525.648 45.8C531.133 45.8 535.957 46.7465 540.141 48.6132L540.956 46.7868C536.473 44.7869 531.364 43.8 525.648 43.8V45.8ZM540.153 48.6184C544.348 50.4256 547.817 52.9987 550.578 56.3373L552.119 55.0627C549.146 51.468 545.416 48.7078 540.944 46.7816L540.153 48.6184ZM550.591 56.3532C553.424 59.6363 555.561 63.6094 556.992 68.2922L558.905 67.7078C557.402 62.7906 555.14 58.5637 552.106 55.0468L550.591 56.3532ZM556.997 68.3082C558.494 72.9281 559.248 78.0557 559.248 83.7H561.248C561.248 77.8776 560.47 72.5385 558.9 67.6918L556.997 68.3082ZM559.248 83.7V149H561.248V83.7H559.248ZM560.248 148H535.548V150H560.248V148ZM536.548 149V83.7H534.548V149H536.548ZM536.548 83.7C536.548 77.2928 535.084 72.1973 532.013 68.5554L530.484 69.8446C533.147 73.0027 534.548 77.5739 534.548 83.7H536.548ZM532.019 68.5627C528.908 64.8005 524.216 63 518.148 63V65C523.814 65 527.856 66.6661 530.478 69.8373L532.019 68.5627ZM518.148 63C513.724 63 509.566 64.0039 505.689 66.012L506.608 67.788C510.197 65.9294 514.039 65 518.148 65V63ZM505.689 66.012C501.854 67.9979 498.239 70.6956 494.841 74.0929L496.256 75.5071C499.525 72.2377 502.977 69.6687 506.608 67.788L505.689 66.012ZM494.548 74.8L494.548 149H496.548L496.548 74.8H494.548ZM495.548 148H470.848L470.848 150H495.548L495.548 148ZM471.848 149L471.848 46.4H469.848L469.848 149H471.848ZM470.848 47.4L485.948 47.4V45.4L470.848 45.4V47.4ZM485.948 47.4C487.391 47.4 488.499 47.7363 489.342 48.3387C490.185 48.9404 490.851 49.8707 491.3 51.2162L493.197 50.5838C492.646 48.9293 491.762 47.6096 490.505 46.7113C489.248 45.8137 487.706 45.4 485.948 45.4V47.4ZM491.27 51.1054L492.97 59.2054L494.927 58.7946L493.227 50.6946L491.27 51.1054Z" fill="#454545" fill-opacity="0.2"/>
</svg>
