<svg width="955" height="424" viewBox="0 0 955 424" fill="none" xmlns="http://www.w3.org/2000/svg">
<path d="M209.5 279.96C210.74 279.96 211.853 279.787 212.84 279.44C213.827 279.093 214.66 278.613 215.34 278C216.033 277.387 216.56 276.667 216.92 275.84C217.293 275 217.48 274.087 217.48 273.1C217.48 270.927 216.813 269.253 215.48 268.08C214.147 266.907 212.153 266.32 209.5 266.32H204.24V279.96H209.5ZM209.5 264.7C212.82 264.7 215.32 265.427 217 266.88C218.693 268.333 219.54 270.407 219.54 273.1C219.54 274.34 219.307 275.48 218.84 276.52C218.373 277.56 217.707 278.46 216.84 279.22C215.973 279.967 214.92 280.553 213.68 280.98C212.44 281.393 211.047 281.6 209.5 281.6H204.24V293H202.18V264.7H209.5ZM225.795 277.9C226.102 277.087 226.449 276.367 226.835 275.74C227.235 275.1 227.689 274.56 228.195 274.12C228.715 273.68 229.289 273.347 229.915 273.12C230.555 272.88 231.262 272.76 232.035 272.76C232.449 272.76 232.855 272.8 233.255 272.88C233.655 272.947 234.009 273.073 234.315 273.26L234.155 274.58C234.089 274.793 233.962 274.9 233.775 274.9C233.615 274.9 233.369 274.853 233.035 274.76C232.715 274.667 232.289 274.62 231.755 274.62C230.982 274.62 230.295 274.74 229.695 274.98C229.109 275.207 228.575 275.553 228.095 276.02C227.629 276.487 227.215 277.067 226.855 277.76C226.509 278.44 226.189 279.227 225.895 280.12V293H223.975V273.1H224.995C225.222 273.1 225.382 273.147 225.475 273.24C225.569 273.333 225.629 273.493 225.655 273.72L225.795 277.9ZM244.863 272.78C246.29 272.78 247.563 273.027 248.683 273.52C249.816 274 250.77 274.687 251.543 275.58C252.316 276.473 252.903 277.553 253.303 278.82C253.716 280.073 253.923 281.48 253.923 283.04C253.923 284.6 253.716 286.007 253.303 287.26C252.903 288.513 252.316 289.587 251.543 290.48C250.77 291.373 249.816 292.06 248.683 292.54C247.563 293.02 246.29 293.26 244.863 293.26C243.436 293.26 242.156 293.02 241.023 292.54C239.903 292.06 238.95 291.373 238.163 290.48C237.39 289.587 236.796 288.513 236.383 287.26C235.983 286.007 235.783 284.6 235.783 283.04C235.783 281.48 235.983 280.073 236.383 278.82C236.796 277.553 237.39 276.473 238.163 275.58C238.95 274.687 239.903 274 241.023 273.52C242.156 273.027 243.436 272.78 244.863 272.78ZM244.863 291.76C246.05 291.76 247.083 291.56 247.963 291.16C248.856 290.747 249.596 290.16 250.183 289.4C250.783 288.64 251.23 287.727 251.523 286.66C251.816 285.58 251.963 284.373 251.963 283.04C251.963 281.72 251.816 280.52 251.523 279.44C251.23 278.36 250.783 277.44 250.183 276.68C249.596 275.907 248.856 275.313 247.963 274.9C247.083 274.487 246.05 274.28 244.863 274.28C243.676 274.28 242.636 274.487 241.743 274.9C240.863 275.313 240.123 275.907 239.523 276.68C238.936 277.44 238.49 278.36 238.183 279.44C237.89 280.52 237.743 281.72 237.743 283.04C237.743 284.373 237.89 285.58 238.183 286.66C238.49 287.727 238.936 288.64 239.523 289.4C240.123 290.16 240.863 290.747 241.743 291.16C242.636 291.56 243.676 291.76 244.863 291.76ZM261.408 273.1V295.54C261.408 296.233 261.308 296.873 261.108 297.46C260.908 298.047 260.608 298.553 260.208 298.98C259.821 299.42 259.328 299.76 258.728 300C258.141 300.253 257.448 300.38 256.648 300.38C256.261 300.38 255.914 300.347 255.608 300.28C255.301 300.213 255.001 300.107 254.708 299.96L254.808 299C254.848 298.88 254.901 298.807 254.968 298.78C255.034 298.767 255.128 298.767 255.248 298.78C255.354 298.807 255.494 298.833 255.668 298.86C255.841 298.9 256.061 298.92 256.328 298.92C257.408 298.92 258.208 298.627 258.728 298.04C259.248 297.453 259.508 296.62 259.508 295.54V273.1H261.408ZM262.228 266.24C262.228 266.48 262.174 266.707 262.068 266.92C261.974 267.12 261.841 267.3 261.668 267.46C261.508 267.62 261.321 267.747 261.108 267.84C260.894 267.933 260.668 267.98 260.428 267.98C260.188 267.98 259.961 267.933 259.748 267.84C259.534 267.747 259.348 267.62 259.188 267.46C259.028 267.3 258.901 267.12 258.808 266.92C258.714 266.707 258.668 266.48 258.668 266.24C258.668 266 258.714 265.773 258.808 265.56C258.901 265.333 259.028 265.14 259.188 264.98C259.348 264.82 259.534 264.693 259.748 264.6C259.961 264.507 260.188 264.46 260.428 264.46C260.668 264.46 260.894 264.507 261.108 264.6C261.321 264.693 261.508 264.82 261.668 264.98C261.841 265.14 261.974 265.333 262.068 265.56C262.174 265.773 262.228 266 262.228 266.24ZM282.154 281.04C282.154 279.973 282.001 279.02 281.694 278.18C281.401 277.327 280.981 276.607 280.434 276.02C279.887 275.433 279.234 274.987 278.474 274.68C277.727 274.36 276.901 274.2 275.994 274.2C274.967 274.2 274.047 274.36 273.234 274.68C272.421 275 271.714 275.46 271.114 276.06C270.527 276.66 270.054 277.38 269.694 278.22C269.334 279.06 269.094 280 268.974 281.04H282.154ZM268.874 282.26V282.64C268.874 284.133 269.047 285.447 269.394 286.58C269.741 287.713 270.234 288.667 270.874 289.44C271.514 290.2 272.287 290.773 273.194 291.16C274.101 291.547 275.114 291.74 276.234 291.74C277.234 291.74 278.101 291.633 278.834 291.42C279.567 291.193 280.181 290.947 280.674 290.68C281.181 290.4 281.581 290.153 281.874 289.94C282.167 289.713 282.381 289.6 282.514 289.6C282.687 289.6 282.821 289.667 282.914 289.8L283.434 290.44C283.114 290.84 282.687 291.213 282.154 291.56C281.634 291.907 281.047 292.207 280.394 292.46C279.754 292.7 279.061 292.893 278.314 293.04C277.581 293.187 276.841 293.26 276.094 293.26C274.734 293.26 273.494 293.027 272.374 292.56C271.254 292.08 270.294 291.387 269.494 290.48C268.694 289.573 268.074 288.467 267.634 287.16C267.207 285.84 266.994 284.333 266.994 282.64C266.994 281.213 267.194 279.9 267.594 278.7C268.007 277.487 268.594 276.447 269.354 275.58C270.127 274.7 271.067 274.013 272.174 273.52C273.294 273.027 274.561 272.78 275.974 272.78C277.094 272.78 278.134 272.973 279.094 273.36C280.054 273.747 280.887 274.313 281.594 275.06C282.301 275.793 282.854 276.7 283.254 277.78C283.667 278.86 283.874 280.1 283.874 281.5C283.874 281.793 283.834 281.993 283.754 282.1C283.674 282.207 283.541 282.26 283.354 282.26H268.874ZM302.433 275.76C302.367 275.827 302.3 275.887 302.233 275.94C302.18 275.98 302.1 276 301.993 276C301.86 276 301.68 275.913 301.453 275.74C301.227 275.553 300.92 275.353 300.533 275.14C300.147 274.927 299.66 274.733 299.073 274.56C298.5 274.373 297.8 274.28 296.973 274.28C295.827 274.28 294.807 274.487 293.913 274.9C293.033 275.3 292.287 275.88 291.673 276.64C291.06 277.4 290.593 278.32 290.273 279.4C289.967 280.48 289.813 281.693 289.813 283.04C289.813 284.44 289.973 285.68 290.293 286.76C290.627 287.84 291.093 288.753 291.693 289.5C292.293 290.233 293.02 290.793 293.873 291.18C294.727 291.567 295.673 291.76 296.713 291.76C297.673 291.76 298.473 291.647 299.113 291.42C299.767 291.193 300.3 290.947 300.713 290.68C301.14 290.413 301.473 290.167 301.713 289.94C301.953 289.713 302.153 289.6 302.313 289.6C302.473 289.6 302.607 289.667 302.713 289.8L303.213 290.44C302.907 290.84 302.52 291.213 302.053 291.56C301.587 291.907 301.06 292.207 300.473 292.46C299.887 292.713 299.247 292.907 298.553 293.04C297.873 293.187 297.16 293.26 296.413 293.26C295.147 293.26 293.987 293.033 292.933 292.58C291.893 292.113 290.993 291.447 290.233 290.58C289.487 289.7 288.9 288.627 288.473 287.36C288.06 286.093 287.853 284.653 287.853 283.04C287.853 281.52 288.053 280.133 288.453 278.88C288.853 277.627 289.44 276.547 290.213 275.64C290.987 274.733 291.927 274.033 293.033 273.54C294.153 273.033 295.433 272.78 296.873 272.78C298.167 272.78 299.313 272.987 300.313 273.4C301.313 273.813 302.187 274.373 302.933 275.08L302.433 275.76ZM313.361 293.32C312.014 293.32 310.961 292.947 310.201 292.2C309.454 291.453 309.081 290.3 309.081 288.74V275.14H306.221C306.074 275.14 305.954 275.1 305.861 275.02C305.767 274.94 305.721 274.827 305.721 274.68V273.94L309.121 273.7L309.601 266.58C309.627 266.46 309.681 266.353 309.761 266.26C309.841 266.167 309.954 266.12 310.101 266.12H311.001V273.72H317.281V275.14H311.001V288.64C311.001 289.187 311.067 289.66 311.201 290.06C311.347 290.447 311.541 290.767 311.781 291.02C312.034 291.273 312.327 291.46 312.661 291.58C312.994 291.7 313.354 291.76 313.741 291.76C314.221 291.76 314.634 291.693 314.981 291.56C315.327 291.413 315.627 291.26 315.881 291.1C316.134 290.927 316.341 290.773 316.501 290.64C316.661 290.493 316.787 290.42 316.881 290.42C316.987 290.42 317.094 290.487 317.201 290.62L317.721 291.46C317.214 292.02 316.567 292.473 315.781 292.82C315.007 293.153 314.201 293.32 313.361 293.32ZM332.572 275.56C332.465 275.747 332.312 275.84 332.112 275.84C331.965 275.84 331.778 275.76 331.552 275.6C331.325 275.427 331.018 275.24 330.632 275.04C330.258 274.827 329.792 274.64 329.232 274.48C328.672 274.307 327.992 274.22 327.192 274.22C326.472 274.22 325.812 274.327 325.212 274.54C324.625 274.74 324.118 275.013 323.692 275.36C323.278 275.707 322.958 276.113 322.732 276.58C322.505 277.033 322.392 277.513 322.392 278.02C322.392 278.647 322.552 279.167 322.872 279.58C323.192 279.993 323.605 280.347 324.112 280.64C324.632 280.933 325.225 281.187 325.892 281.4C326.558 281.613 327.232 281.827 327.912 282.04C328.605 282.253 329.285 282.493 329.952 282.76C330.618 283.013 331.205 283.333 331.712 283.72C332.232 284.107 332.652 284.58 332.972 285.14C333.292 285.7 333.452 286.38 333.452 287.18C333.452 288.047 333.298 288.853 332.992 289.6C332.685 290.347 332.232 290.993 331.632 291.54C331.045 292.087 330.318 292.52 329.452 292.84C328.585 293.16 327.592 293.32 326.472 293.32C325.072 293.32 323.865 293.1 322.852 292.66C321.838 292.207 320.932 291.62 320.132 290.9L320.572 290.22C320.638 290.113 320.712 290.033 320.792 289.98C320.885 289.927 321.005 289.9 321.152 289.9C321.325 289.9 321.532 290.007 321.772 290.22C322.025 290.433 322.358 290.667 322.772 290.92C323.185 291.16 323.692 291.387 324.292 291.6C324.905 291.813 325.658 291.92 326.552 291.92C327.392 291.92 328.132 291.807 328.772 291.58C329.412 291.34 329.945 291.02 330.372 290.62C330.798 290.22 331.118 289.753 331.332 289.22C331.558 288.673 331.672 288.1 331.672 287.5C331.672 286.833 331.512 286.28 331.192 285.84C330.872 285.4 330.452 285.027 329.932 284.72C329.412 284.413 328.818 284.153 328.152 283.94C327.498 283.727 326.825 283.513 326.132 283.3C325.438 283.087 324.758 282.853 324.092 282.6C323.438 282.347 322.852 282.027 322.332 281.64C321.812 281.253 321.392 280.787 321.072 280.24C320.752 279.68 320.592 278.987 320.592 278.16C320.592 277.453 320.745 276.773 321.052 276.12C321.358 275.467 321.792 274.893 322.352 274.4C322.925 273.907 323.618 273.513 324.432 273.22C325.245 272.927 326.158 272.78 327.172 272.78C328.385 272.78 329.458 272.953 330.392 273.3C331.338 273.647 332.198 274.18 332.972 274.9L332.572 275.56Z" fill="white"/>
<path d="M218.04 193.184V164.816C218.04 163.984 218.072 163.072 218.136 162.08C218.2 161.088 218.296 160.08 218.424 159.056L193.368 193.184H218.04ZM235.944 193.184V198.08C235.944 198.592 235.784 199.024 235.464 199.376C235.176 199.728 234.712 199.904 234.072 199.904H225.528V218H218.04V199.904H187.512C186.872 199.904 186.312 199.728 185.832 199.376C185.384 198.992 185.096 198.528 184.968 197.984L184.104 193.616L217.56 149.216H225.528V193.184H235.944ZM290.576 149.216V153.056C290.576 154.144 290.448 155.04 290.192 155.744C289.968 156.448 289.744 157.04 289.52 157.52L261.008 214.976C260.592 215.808 260.016 216.528 259.28 217.136C258.544 217.712 257.568 218 256.352 218H250.208L279.104 161.264C279.52 160.464 279.952 159.728 280.4 159.056C280.848 158.384 281.328 157.744 281.84 157.136H245.936C245.392 157.136 244.912 156.928 244.496 156.512C244.08 156.064 243.872 155.568 243.872 155.024V149.216H290.576ZM322.119 211.664C324.423 211.664 326.503 211.296 328.359 210.56C330.247 209.824 331.847 208.8 333.159 207.488C334.503 206.176 335.527 204.624 336.231 202.832C336.967 201.04 337.335 199.088 337.335 196.976C337.335 194.736 336.983 192.72 336.279 190.928C335.575 189.104 334.567 187.568 333.255 186.32C331.975 185.04 330.439 184.064 328.647 183.392C326.855 182.72 324.887 182.384 322.743 182.384C320.439 182.384 318.359 182.784 316.503 183.584C314.647 184.352 313.063 185.408 311.751 186.752C310.471 188.064 309.479 189.6 308.775 191.36C308.103 193.088 307.767 194.896 307.767 196.784C307.767 198.992 308.087 201.008 308.727 202.832C309.367 204.656 310.295 206.224 311.511 207.536C312.759 208.848 314.263 209.872 316.023 210.608C317.815 211.312 319.847 211.664 322.119 211.664ZM317.127 174.992C316.519 175.76 315.927 176.512 315.351 177.248C314.807 177.952 314.279 178.656 313.767 179.36C315.399 178.24 317.191 177.376 319.143 176.768C321.095 176.16 323.223 175.856 325.527 175.856C328.311 175.856 330.935 176.32 333.399 177.248C335.863 178.144 338.007 179.472 339.831 181.232C341.687 182.96 343.159 185.104 344.247 187.664C345.335 190.192 345.879 193.088 345.879 196.352C345.879 199.52 345.303 202.464 344.151 205.184C342.999 207.904 341.383 210.272 339.303 212.288C337.255 214.304 334.775 215.888 331.863 217.04C328.983 218.192 325.799 218.768 322.311 218.768C318.855 218.768 315.719 218.224 312.903 217.136C310.087 216.016 307.687 214.448 305.703 212.432C303.751 210.384 302.231 207.92 301.143 205.04C300.087 202.128 299.559 198.88 299.559 195.296C299.559 192.288 300.215 189.088 301.527 185.696C302.871 182.272 304.999 178.624 307.911 174.752L325.383 151.28C325.831 150.704 326.439 150.224 327.207 149.84C328.007 149.424 328.919 149.216 329.943 149.216H337.527L317.127 174.992Z" fill="white"/>
<path d="M455.336 275.672V285H453.704V275.672L445.32 262.36H446.76C446.909 262.36 447.032 262.397 447.128 262.472C447.224 262.536 447.304 262.632 447.368 262.76L453.848 273.16C453.987 273.405 454.115 273.645 454.232 273.88C454.349 274.104 454.451 274.328 454.536 274.552C454.621 274.328 454.717 274.104 454.824 273.88C454.931 273.645 455.053 273.405 455.192 273.16L461.672 262.76C461.725 262.643 461.8 262.547 461.896 262.472C462.003 262.397 462.131 262.36 462.28 262.36H463.72L455.336 275.672ZM474.448 275.432C474.448 274.579 474.326 273.816 474.08 273.144C473.846 272.461 473.51 271.885 473.072 271.416C472.635 270.947 472.112 270.589 471.504 270.344C470.907 270.088 470.246 269.96 469.52 269.96C468.699 269.96 467.963 270.088 467.312 270.344C466.662 270.6 466.096 270.968 465.616 271.448C465.147 271.928 464.768 272.504 464.48 273.176C464.192 273.848 464 274.6 463.904 275.432H474.448ZM463.824 276.408V276.712C463.824 277.907 463.963 278.957 464.24 279.864C464.518 280.771 464.912 281.533 465.424 282.152C465.936 282.76 466.555 283.219 467.28 283.528C468.006 283.837 468.816 283.992 469.712 283.992C470.512 283.992 471.206 283.907 471.792 283.736C472.379 283.555 472.87 283.357 473.264 283.144C473.67 282.92 473.99 282.723 474.224 282.552C474.459 282.371 474.63 282.28 474.736 282.28C474.875 282.28 474.982 282.333 475.056 282.44L475.472 282.952C475.216 283.272 474.875 283.571 474.448 283.848C474.032 284.125 473.563 284.365 473.04 284.568C472.528 284.76 471.974 284.915 471.376 285.032C470.79 285.149 470.198 285.208 469.6 285.208C468.512 285.208 467.52 285.021 466.624 284.648C465.728 284.264 464.96 283.709 464.32 282.984C463.68 282.259 463.184 281.373 462.832 280.328C462.491 279.272 462.32 278.067 462.32 276.712C462.32 275.571 462.48 274.52 462.8 273.56C463.131 272.589 463.6 271.757 464.208 271.064C464.827 270.36 465.579 269.811 466.464 269.416C467.36 269.021 468.374 268.824 469.504 268.824C470.4 268.824 471.232 268.979 472 269.288C472.768 269.597 473.435 270.051 474 270.648C474.566 271.235 475.008 271.96 475.328 272.824C475.659 273.688 475.824 274.68 475.824 275.8C475.824 276.035 475.792 276.195 475.728 276.28C475.664 276.365 475.558 276.408 475.408 276.408H463.824ZM488.88 277.304C487.365 277.357 486.058 277.48 484.96 277.672C483.872 277.853 482.97 278.104 482.256 278.424C481.552 278.744 481.029 279.128 480.688 279.576C480.346 280.013 480.176 280.515 480.176 281.08C480.176 281.613 480.261 282.077 480.432 282.472C480.613 282.856 480.848 283.176 481.136 283.432C481.434 283.677 481.776 283.859 482.16 283.976C482.544 284.093 482.944 284.152 483.36 284.152C483.978 284.152 484.544 284.088 485.056 283.96C485.578 283.821 486.058 283.635 486.496 283.4C486.944 283.155 487.36 282.867 487.744 282.536C488.128 282.205 488.506 281.848 488.88 281.464V277.304ZM479.52 271.336C480.352 270.504 481.226 269.875 482.144 269.448C483.061 269.021 484.101 268.808 485.264 268.808C486.117 268.808 486.864 268.947 487.504 269.224C488.144 269.491 488.672 269.88 489.088 270.392C489.514 270.893 489.834 271.507 490.048 272.232C490.261 272.947 490.368 273.747 490.368 274.632V285H489.76C489.44 285 489.242 284.851 489.168 284.552L488.944 282.504C488.506 282.931 488.069 283.315 487.632 283.656C487.205 283.997 486.757 284.285 486.288 284.52C485.818 284.755 485.312 284.936 484.768 285.064C484.224 285.192 483.626 285.256 482.976 285.256C482.432 285.256 481.904 285.176 481.392 285.016C480.88 284.856 480.421 284.611 480.016 284.28C479.621 283.949 479.301 283.528 479.056 283.016C478.821 282.493 478.704 281.869 478.704 281.144C478.704 280.472 478.896 279.848 479.28 279.272C479.664 278.696 480.266 278.195 481.088 277.768C481.909 277.341 482.96 277 484.24 276.744C485.53 276.488 487.077 276.339 488.88 276.296V274.632C488.88 273.16 488.56 272.029 487.92 271.24C487.29 270.44 486.352 270.04 485.104 270.04C484.336 270.04 483.68 270.147 483.136 270.36C482.602 270.573 482.149 270.808 481.776 271.064C481.402 271.32 481.098 271.555 480.864 271.768C480.629 271.981 480.432 272.088 480.272 272.088C480.154 272.088 480.058 272.061 479.984 272.008C479.909 271.955 479.845 271.885 479.792 271.8L479.52 271.336ZM496.924 272.92C497.169 272.269 497.446 271.693 497.756 271.192C498.076 270.68 498.438 270.248 498.844 269.896C499.26 269.544 499.718 269.277 500.22 269.096C500.732 268.904 501.297 268.808 501.916 268.808C502.246 268.808 502.572 268.84 502.892 268.904C503.212 268.957 503.494 269.059 503.74 269.208L503.612 270.264C503.558 270.435 503.457 270.52 503.308 270.52C503.18 270.52 502.982 270.483 502.716 270.408C502.46 270.333 502.118 270.296 501.692 270.296C501.073 270.296 500.524 270.392 500.044 270.584C499.574 270.765 499.148 271.043 498.764 271.416C498.39 271.789 498.06 272.253 497.772 272.808C497.494 273.352 497.238 273.981 497.004 274.696V285H495.468V269.08H496.284C496.465 269.08 496.593 269.117 496.668 269.192C496.742 269.267 496.79 269.395 496.812 269.576L496.924 272.92ZM515.345 271.048C515.259 271.197 515.137 271.272 514.977 271.272C514.859 271.272 514.71 271.208 514.529 271.08C514.347 270.941 514.102 270.792 513.793 270.632C513.494 270.461 513.121 270.312 512.673 270.184C512.225 270.045 511.681 269.976 511.041 269.976C510.465 269.976 509.937 270.061 509.457 270.232C508.987 270.392 508.582 270.611 508.241 270.888C507.91 271.165 507.654 271.491 507.473 271.864C507.291 272.227 507.201 272.611 507.201 273.016C507.201 273.517 507.329 273.933 507.585 274.264C507.841 274.595 508.171 274.877 508.577 275.112C508.993 275.347 509.467 275.549 510.001 275.72C510.534 275.891 511.073 276.061 511.617 276.232C512.171 276.403 512.715 276.595 513.249 276.808C513.782 277.011 514.251 277.267 514.657 277.576C515.073 277.885 515.409 278.264 515.665 278.712C515.921 279.16 516.049 279.704 516.049 280.344C516.049 281.037 515.926 281.683 515.681 282.28C515.435 282.877 515.073 283.395 514.593 283.832C514.123 284.269 513.542 284.616 512.849 284.872C512.155 285.128 511.361 285.256 510.465 285.256C509.345 285.256 508.379 285.08 507.569 284.728C506.758 284.365 506.033 283.896 505.393 283.32L505.745 282.776C505.798 282.691 505.857 282.627 505.921 282.584C505.995 282.541 506.091 282.52 506.209 282.52C506.347 282.52 506.513 282.605 506.705 282.776C506.907 282.947 507.174 283.133 507.505 283.336C507.835 283.528 508.241 283.709 508.721 283.88C509.211 284.051 509.814 284.136 510.529 284.136C511.201 284.136 511.793 284.045 512.305 283.864C512.817 283.672 513.243 283.416 513.585 283.096C513.926 282.776 514.182 282.403 514.353 281.976C514.534 281.539 514.625 281.08 514.625 280.6C514.625 280.067 514.497 279.624 514.241 279.272C513.985 278.92 513.649 278.621 513.233 278.376C512.817 278.131 512.342 277.923 511.809 277.752C511.286 277.581 510.747 277.411 510.193 277.24C509.638 277.069 509.094 276.883 508.561 276.68C508.038 276.477 507.569 276.221 507.153 275.912C506.737 275.603 506.401 275.229 506.145 274.792C505.889 274.344 505.761 273.789 505.761 273.128C505.761 272.563 505.883 272.019 506.129 271.496C506.374 270.973 506.721 270.515 507.169 270.12C507.627 269.725 508.182 269.411 508.833 269.176C509.483 268.941 510.214 268.824 511.025 268.824C511.995 268.824 512.854 268.963 513.601 269.24C514.358 269.517 515.046 269.944 515.665 270.52L515.345 271.048Z" fill="white"/>
<path d="M481.84 211.952C484.08 211.952 486.08 211.648 487.84 211.04C489.632 210.4 491.136 209.52 492.352 208.4C493.6 207.248 494.544 205.888 495.184 204.32C495.856 202.72 496.192 200.96 496.192 199.04C496.192 196.672 495.792 194.656 494.992 192.992C494.224 191.296 493.168 189.92 491.824 188.864C490.512 187.808 488.992 187.04 487.264 186.56C485.536 186.048 483.728 185.792 481.84 185.792C479.952 185.792 478.144 186.048 476.416 186.56C474.688 187.04 473.152 187.808 471.808 188.864C470.496 189.92 469.44 191.296 468.64 192.992C467.872 194.656 467.488 196.672 467.488 199.04C467.488 200.96 467.808 202.72 468.448 204.32C469.12 205.888 470.064 207.248 471.28 208.4C472.528 209.52 474.032 210.4 475.792 211.04C477.584 211.648 479.6 211.952 481.84 211.952ZM481.84 155.072C479.792 155.072 477.984 155.376 476.416 155.984C474.88 156.592 473.584 157.424 472.528 158.48C471.504 159.536 470.72 160.768 470.176 162.176C469.664 163.584 469.408 165.088 469.408 166.688C469.408 168.256 469.632 169.776 470.08 171.248C470.528 172.72 471.248 174.032 472.24 175.184C473.232 176.304 474.512 177.216 476.08 177.92C477.68 178.592 479.6 178.928 481.84 178.928C484.08 178.928 485.984 178.592 487.552 177.92C489.152 177.216 490.448 176.304 491.44 175.184C492.432 174.032 493.152 172.72 493.6 171.248C494.048 169.776 494.272 168.256 494.272 166.688C494.272 165.088 494 163.584 493.456 162.176C492.944 160.768 492.16 159.536 491.104 158.48C490.08 157.424 488.784 156.592 487.216 155.984C485.68 155.376 483.888 155.072 481.84 155.072ZM491.68 182.144C495.968 183.36 499.264 185.392 501.568 188.24C503.872 191.088 505.024 194.736 505.024 199.184C505.024 202.192 504.448 204.912 503.296 207.344C502.176 209.744 500.592 211.792 498.544 213.488C496.528 215.184 494.096 216.496 491.248 217.424C488.4 218.32 485.264 218.768 481.84 218.768C478.416 218.768 475.28 218.32 472.432 217.424C469.584 216.496 467.136 215.184 465.088 213.488C463.04 211.792 461.456 209.744 460.336 207.344C459.216 204.912 458.656 202.192 458.656 199.184C458.656 194.736 459.808 191.088 462.112 188.24C464.416 185.392 467.712 183.36 472 182.144C468.384 180.8 465.648 178.8 463.792 176.144C461.968 173.456 461.056 170.256 461.056 166.544C461.056 164.016 461.552 161.648 462.544 159.44C463.536 157.232 464.944 155.312 466.768 153.68C468.592 152.048 470.768 150.768 473.296 149.84C475.856 148.912 478.704 148.448 481.84 148.448C484.944 148.448 487.776 148.912 490.336 149.84C492.896 150.768 495.088 152.048 496.912 153.68C498.736 155.312 500.144 157.232 501.136 159.44C502.128 161.648 502.624 164.016 502.624 166.544C502.624 170.256 501.696 173.456 499.84 176.144C498.016 178.8 495.296 180.8 491.68 182.144Z" fill="white"/>
<path d="M632.816 262.36V285H631.168V274.152H616.992V285H615.344V262.36H616.992V272.92H631.168V262.36H632.816ZM647.13 277.304C645.615 277.357 644.308 277.48 643.21 277.672C642.122 277.853 641.22 278.104 640.506 278.424C639.802 278.744 639.279 279.128 638.938 279.576C638.596 280.013 638.426 280.515 638.426 281.08C638.426 281.613 638.511 282.077 638.682 282.472C638.863 282.856 639.098 283.176 639.386 283.432C639.684 283.677 640.026 283.859 640.41 283.976C640.794 284.093 641.194 284.152 641.61 284.152C642.228 284.152 642.794 284.088 643.306 283.96C643.828 283.821 644.308 283.635 644.746 283.4C645.194 283.155 645.61 282.867 645.994 282.536C646.378 282.205 646.756 281.848 647.13 281.464V277.304ZM637.77 271.336C638.602 270.504 639.476 269.875 640.394 269.448C641.311 269.021 642.351 268.808 643.514 268.808C644.367 268.808 645.114 268.947 645.754 269.224C646.394 269.491 646.922 269.88 647.338 270.392C647.764 270.893 648.084 271.507 648.298 272.232C648.511 272.947 648.618 273.747 648.618 274.632V285H648.01C647.69 285 647.492 284.851 647.418 284.552L647.194 282.504C646.756 282.931 646.319 283.315 645.882 283.656C645.455 283.997 645.007 284.285 644.538 284.52C644.068 284.755 643.562 284.936 643.018 285.064C642.474 285.192 641.876 285.256 641.226 285.256C640.682 285.256 640.154 285.176 639.642 285.016C639.13 284.856 638.671 284.611 638.266 284.28C637.871 283.949 637.551 283.528 637.306 283.016C637.071 282.493 636.954 281.869 636.954 281.144C636.954 280.472 637.146 279.848 637.53 279.272C637.914 278.696 638.516 278.195 639.338 277.768C640.159 277.341 641.21 277 642.49 276.744C643.78 276.488 645.327 276.339 647.13 276.296V274.632C647.13 273.16 646.81 272.029 646.17 271.24C645.54 270.44 644.602 270.04 643.354 270.04C642.586 270.04 641.93 270.147 641.386 270.36C640.852 270.573 640.399 270.808 640.026 271.064C639.652 271.32 639.348 271.555 639.114 271.768C638.879 271.981 638.682 272.088 638.522 272.088C638.404 272.088 638.308 272.061 638.234 272.008C638.159 271.955 638.095 271.885 638.042 271.8L637.77 271.336ZM655.254 281.528C655.563 281.987 655.883 282.376 656.214 282.696C656.555 283.005 656.912 283.261 657.286 283.464C657.659 283.656 658.054 283.795 658.47 283.88C658.896 283.965 659.344 284.008 659.814 284.008C660.752 284.008 661.574 283.837 662.278 283.496C662.982 283.155 663.568 282.675 664.038 282.056C664.518 281.427 664.875 280.68 665.11 279.816C665.355 278.941 665.478 277.981 665.478 276.936C665.478 274.568 665.04 272.829 664.166 271.72C663.291 270.6 662.038 270.04 660.406 270.04C659.35 270.04 658.395 270.312 657.542 270.856C656.688 271.4 655.926 272.157 655.254 273.128V281.528ZM655.19 271.944C655.894 270.984 656.715 270.221 657.654 269.656C658.603 269.091 659.664 268.808 660.838 268.808C662.79 268.808 664.31 269.485 665.398 270.84C666.496 272.195 667.046 274.227 667.046 276.936C667.046 278.099 666.891 279.187 666.582 280.2C666.283 281.203 665.835 282.077 665.238 282.824C664.651 283.56 663.926 284.141 663.062 284.568C662.208 284.995 661.222 285.208 660.102 285.208C659.024 285.208 658.091 285.011 657.302 284.616C656.512 284.221 655.83 283.64 655.254 282.872V290.632H653.718V269.08H654.566C654.832 269.08 654.987 269.213 655.03 269.48L655.19 271.944ZM672.91 281.528C673.219 281.987 673.539 282.376 673.87 282.696C674.211 283.005 674.569 283.261 674.942 283.464C675.315 283.656 675.71 283.795 676.126 283.88C676.553 283.965 677.001 284.008 677.47 284.008C678.409 284.008 679.23 283.837 679.934 283.496C680.638 283.155 681.225 282.675 681.694 282.056C682.174 281.427 682.531 280.68 682.766 279.816C683.011 278.941 683.134 277.981 683.134 276.936C683.134 274.568 682.697 272.829 681.822 271.72C680.947 270.6 679.694 270.04 678.062 270.04C677.006 270.04 676.051 270.312 675.198 270.856C674.345 271.4 673.582 272.157 672.91 273.128V281.528ZM672.846 271.944C673.55 270.984 674.371 270.221 675.31 269.656C676.259 269.091 677.321 268.808 678.494 268.808C680.446 268.808 681.966 269.485 683.054 270.84C684.153 272.195 684.702 274.227 684.702 276.936C684.702 278.099 684.547 279.187 684.238 280.2C683.939 281.203 683.491 282.077 682.894 282.824C682.307 283.56 681.582 284.141 680.718 284.568C679.865 284.995 678.878 285.208 677.758 285.208C676.681 285.208 675.747 285.011 674.958 284.616C674.169 284.221 673.486 283.64 672.91 282.872V290.632H671.374V269.08H672.222C672.489 269.08 672.643 269.213 672.686 269.48L672.846 271.944ZM701.519 269.08L692.367 290.12C692.303 290.269 692.218 290.392 692.111 290.488C692.015 290.584 691.871 290.632 691.679 290.632H690.591L693.391 284.408L686.655 269.08H687.919C688.079 269.08 688.207 269.123 688.303 269.208C688.399 269.283 688.463 269.368 688.495 269.464L693.855 281.848C693.919 282.008 693.973 282.173 694.015 282.344C694.069 282.504 694.117 282.669 694.159 282.84C694.213 282.669 694.266 282.504 694.319 282.344C694.383 282.173 694.447 282.008 694.511 281.848L699.807 269.464C699.861 269.347 699.935 269.256 700.031 269.192C700.127 269.117 700.234 269.08 700.351 269.08H701.519ZM723.328 271.208C723.275 271.261 723.221 271.309 723.168 271.352C723.125 271.384 723.061 271.4 722.976 271.4C722.869 271.4 722.725 271.331 722.544 271.192C722.363 271.043 722.117 270.883 721.808 270.712C721.499 270.541 721.109 270.387 720.64 270.248C720.181 270.099 719.621 270.024 718.96 270.024C718.043 270.024 717.227 270.189 716.512 270.52C715.808 270.84 715.211 271.304 714.72 271.912C714.229 272.52 713.856 273.256 713.6 274.12C713.355 274.984 713.232 275.955 713.232 277.032C713.232 278.152 713.36 279.144 713.616 280.008C713.883 280.872 714.256 281.603 714.736 282.2C715.216 282.787 715.797 283.235 716.48 283.544C717.163 283.853 717.92 284.008 718.752 284.008C719.52 284.008 720.16 283.917 720.672 283.736C721.195 283.555 721.621 283.357 721.952 283.144C722.293 282.931 722.56 282.733 722.752 282.552C722.944 282.371 723.104 282.28 723.232 282.28C723.36 282.28 723.467 282.333 723.552 282.44L723.952 282.952C723.707 283.272 723.397 283.571 723.024 283.848C722.651 284.125 722.229 284.365 721.76 284.568C721.291 284.771 720.779 284.925 720.224 285.032C719.68 285.149 719.109 285.208 718.512 285.208C717.499 285.208 716.571 285.027 715.728 284.664C714.896 284.291 714.176 283.757 713.568 283.064C712.971 282.36 712.501 281.501 712.16 280.488C711.829 279.475 711.664 278.323 711.664 277.032C711.664 275.816 711.824 274.707 712.144 273.704C712.464 272.701 712.933 271.837 713.552 271.112C714.171 270.387 714.923 269.827 715.808 269.432C716.704 269.027 717.728 268.824 718.88 268.824C719.915 268.824 720.832 268.989 721.632 269.32C722.432 269.651 723.131 270.099 723.728 270.664L723.328 271.208ZM729.398 261.72V285H727.862V261.72H729.398ZM736.476 269.08V285H734.956V269.08H736.476ZM737.132 263.592C737.132 263.784 737.09 263.965 737.004 264.136C736.93 264.296 736.828 264.44 736.7 264.568C736.572 264.696 736.423 264.797 736.252 264.872C736.082 264.947 735.9 264.984 735.708 264.984C735.516 264.984 735.335 264.947 735.164 264.872C734.994 264.797 734.844 264.696 734.716 264.568C734.588 264.44 734.487 264.296 734.412 264.136C734.338 263.965 734.3 263.784 734.3 263.592C734.3 263.4 734.338 263.219 734.412 263.048C734.487 262.867 734.588 262.712 734.716 262.584C734.844 262.456 734.994 262.355 735.164 262.28C735.335 262.205 735.516 262.168 735.708 262.168C735.9 262.168 736.082 262.205 736.252 262.28C736.423 262.355 736.572 262.456 736.7 262.584C736.828 262.712 736.93 262.867 737.004 263.048C737.09 263.219 737.132 263.4 737.132 263.592ZM753.073 275.432C753.073 274.579 752.951 273.816 752.705 273.144C752.471 272.461 752.135 271.885 751.697 271.416C751.26 270.947 750.737 270.589 750.129 270.344C749.532 270.088 748.871 269.96 748.145 269.96C747.324 269.96 746.588 270.088 745.937 270.344C745.287 270.6 744.721 270.968 744.241 271.448C743.772 271.928 743.393 272.504 743.105 273.176C742.817 273.848 742.625 274.6 742.529 275.432H753.073ZM742.449 276.408V276.712C742.449 277.907 742.588 278.957 742.865 279.864C743.143 280.771 743.537 281.533 744.049 282.152C744.561 282.76 745.18 283.219 745.905 283.528C746.631 283.837 747.441 283.992 748.337 283.992C749.137 283.992 749.831 283.907 750.417 283.736C751.004 283.555 751.495 283.357 751.889 283.144C752.295 282.92 752.615 282.723 752.849 282.552C753.084 282.371 753.255 282.28 753.361 282.28C753.5 282.28 753.607 282.333 753.681 282.44L754.097 282.952C753.841 283.272 753.5 283.571 753.073 283.848C752.657 284.125 752.188 284.365 751.665 284.568C751.153 284.76 750.599 284.915 750.001 285.032C749.415 285.149 748.823 285.208 748.225 285.208C747.137 285.208 746.145 285.021 745.249 284.648C744.353 284.264 743.585 283.709 742.945 282.984C742.305 282.259 741.809 281.373 741.457 280.328C741.116 279.272 740.945 278.067 740.945 276.712C740.945 275.571 741.105 274.52 741.425 273.56C741.756 272.589 742.225 271.757 742.833 271.064C743.452 270.36 744.204 269.811 745.089 269.416C745.985 269.021 746.999 268.824 748.129 268.824C749.025 268.824 749.857 268.979 750.625 269.288C751.393 269.597 752.06 270.051 752.625 270.648C753.191 271.235 753.633 271.96 753.953 272.824C754.284 273.688 754.449 274.68 754.449 275.8C754.449 276.035 754.417 276.195 754.353 276.28C754.289 276.365 754.183 276.408 754.033 276.408H742.449ZM760.049 271.864C760.785 270.947 761.633 270.211 762.593 269.656C763.563 269.101 764.641 268.824 765.825 268.824C766.699 268.824 767.467 268.963 768.129 269.24C768.801 269.517 769.355 269.917 769.793 270.44C770.23 270.963 770.561 271.592 770.785 272.328C771.009 273.064 771.121 273.896 771.121 274.824V285H769.585V274.824C769.585 273.331 769.243 272.163 768.561 271.32C767.878 270.467 766.838 270.04 765.441 270.04C764.406 270.04 763.435 270.307 762.529 270.84C761.633 271.363 760.833 272.093 760.129 273.032V285H758.593V269.08H759.441C759.707 269.08 759.862 269.213 759.905 269.48L760.049 271.864ZM780.32 285.256C779.242 285.256 778.4 284.957 777.792 284.36C777.194 283.763 776.896 282.84 776.896 281.592V270.712H774.608C774.49 270.712 774.394 270.68 774.32 270.616C774.245 270.552 774.208 270.461 774.208 270.344V269.752L776.928 269.56L777.312 263.864C777.333 263.768 777.376 263.683 777.44 263.608C777.504 263.533 777.594 263.496 777.712 263.496H778.432V269.576H783.456V270.712H778.432V281.512C778.432 281.949 778.485 282.328 778.592 282.648C778.709 282.957 778.864 283.213 779.056 283.416C779.258 283.619 779.493 283.768 779.76 283.864C780.026 283.96 780.314 284.008 780.624 284.008C781.008 284.008 781.338 283.955 781.616 283.848C781.893 283.731 782.133 283.608 782.336 283.48C782.538 283.341 782.704 283.219 782.832 283.112C782.96 282.995 783.061 282.936 783.136 282.936C783.221 282.936 783.306 282.989 783.392 283.096L783.808 283.768C783.402 284.216 782.885 284.579 782.256 284.856C781.637 285.123 780.992 285.256 780.32 285.256ZM795.689 271.048C795.603 271.197 795.481 271.272 795.321 271.272C795.203 271.272 795.054 271.208 794.873 271.08C794.691 270.941 794.446 270.792 794.137 270.632C793.838 270.461 793.465 270.312 793.017 270.184C792.569 270.045 792.025 269.976 791.385 269.976C790.809 269.976 790.281 270.061 789.801 270.232C789.331 270.392 788.926 270.611 788.585 270.888C788.254 271.165 787.998 271.491 787.817 271.864C787.635 272.227 787.545 272.611 787.545 273.016C787.545 273.517 787.673 273.933 787.929 274.264C788.185 274.595 788.515 274.877 788.921 275.112C789.337 275.347 789.811 275.549 790.345 275.72C790.878 275.891 791.417 276.061 791.961 276.232C792.515 276.403 793.059 276.595 793.593 276.808C794.126 277.011 794.595 277.267 795.001 277.576C795.417 277.885 795.753 278.264 796.009 278.712C796.265 279.16 796.393 279.704 796.393 280.344C796.393 281.037 796.27 281.683 796.025 282.28C795.779 282.877 795.417 283.395 794.937 283.832C794.467 284.269 793.886 284.616 793.193 284.872C792.499 285.128 791.705 285.256 790.809 285.256C789.689 285.256 788.723 285.08 787.913 284.728C787.102 284.365 786.377 283.896 785.737 283.32L786.089 282.776C786.142 282.691 786.201 282.627 786.265 282.584C786.339 282.541 786.435 282.52 786.553 282.52C786.691 282.52 786.857 282.605 787.049 282.776C787.251 282.947 787.518 283.133 787.849 283.336C788.179 283.528 788.585 283.709 789.065 283.88C789.555 284.051 790.158 284.136 790.873 284.136C791.545 284.136 792.137 284.045 792.649 283.864C793.161 283.672 793.587 283.416 793.929 283.096C794.27 282.776 794.526 282.403 794.697 281.976C794.878 281.539 794.969 281.08 794.969 280.6C794.969 280.067 794.841 279.624 794.585 279.272C794.329 278.92 793.993 278.621 793.577 278.376C793.161 278.131 792.686 277.923 792.153 277.752C791.63 277.581 791.091 277.411 790.537 277.24C789.982 277.069 789.438 276.883 788.905 276.68C788.382 276.477 787.913 276.221 787.497 275.912C787.081 275.603 786.745 275.229 786.489 274.792C786.233 274.344 786.105 273.789 786.105 273.128C786.105 272.563 786.227 272.019 786.473 271.496C786.718 270.973 787.065 270.515 787.513 270.12C787.971 269.725 788.526 269.411 789.177 269.176C789.827 268.941 790.558 268.824 791.369 268.824C792.339 268.824 793.198 268.963 793.945 269.24C794.702 269.517 795.39 269.944 796.009 270.52L795.689 271.048Z" fill="white"/>
<path d="M668.376 209.888C669.304 209.888 670.04 210.16 670.584 210.704C671.128 211.248 671.4 211.952 671.4 212.816V218H625.512V215.072C625.512 214.464 625.64 213.84 625.896 213.2C626.152 212.56 626.552 211.968 627.096 211.424L649.128 189.296C650.952 187.44 652.616 185.664 654.12 183.968C655.624 182.24 656.904 180.512 657.96 178.784C659.016 177.056 659.832 175.312 660.408 173.552C660.984 171.76 661.272 169.856 661.272 167.84C661.272 165.824 660.952 164.064 660.312 162.56C659.672 161.024 658.792 159.76 657.672 158.768C656.584 157.776 655.288 157.04 653.784 156.56C652.28 156.048 650.664 155.792 648.936 155.792C647.176 155.792 645.56 156.048 644.088 156.56C642.616 157.072 641.304 157.792 640.152 158.72C639.032 159.616 638.088 160.688 637.32 161.936C636.552 163.184 636.008 164.56 635.688 166.064C635.304 167.184 634.776 167.936 634.104 168.32C633.464 168.672 632.552 168.768 631.368 168.608L626.904 167.84C627.352 164.704 628.216 161.936 629.496 159.536C630.808 157.104 632.44 155.072 634.392 153.44C636.376 151.808 638.632 150.576 641.16 149.744C643.688 148.88 646.424 148.448 649.368 148.448C652.28 148.448 655 148.88 657.528 149.744C660.056 150.608 662.248 151.872 664.104 153.536C665.96 155.168 667.416 157.168 668.472 159.536C669.528 161.904 670.056 164.592 670.056 167.6C670.056 170.16 669.672 172.544 668.904 174.752C668.136 176.928 667.096 179.008 665.784 180.992C664.472 182.976 662.952 184.912 661.224 186.8C659.528 188.688 657.72 190.592 655.8 192.512L637.656 211.04C638.936 210.688 640.232 210.416 641.544 210.224C642.856 210 644.12 209.888 645.336 209.888H668.376ZM704.528 211.952C706.768 211.952 708.768 211.648 710.528 211.04C712.32 210.4 713.824 209.52 715.04 208.4C716.288 207.248 717.232 205.888 717.872 204.32C718.544 202.72 718.88 200.96 718.88 199.04C718.88 196.672 718.48 194.656 717.68 192.992C716.912 191.296 715.856 189.92 714.512 188.864C713.2 187.808 711.68 187.04 709.952 186.56C708.224 186.048 706.416 185.792 704.528 185.792C702.64 185.792 700.832 186.048 699.104 186.56C697.376 187.04 695.84 187.808 694.496 188.864C693.184 189.92 692.128 191.296 691.328 192.992C690.56 194.656 690.176 196.672 690.176 199.04C690.176 200.96 690.496 202.72 691.136 204.32C691.808 205.888 692.752 207.248 693.968 208.4C695.216 209.52 696.72 210.4 698.48 211.04C700.272 211.648 702.288 211.952 704.528 211.952ZM704.528 155.072C702.48 155.072 700.672 155.376 699.104 155.984C697.568 156.592 696.272 157.424 695.216 158.48C694.192 159.536 693.408 160.768 692.864 162.176C692.352 163.584 692.096 165.088 692.096 166.688C692.096 168.256 692.32 169.776 692.768 171.248C693.216 172.72 693.936 174.032 694.928 175.184C695.92 176.304 697.2 177.216 698.768 177.92C700.368 178.592 702.288 178.928 704.528 178.928C706.768 178.928 708.672 178.592 710.24 177.92C711.84 177.216 713.136 176.304 714.128 175.184C715.12 174.032 715.84 172.72 716.288 171.248C716.736 169.776 716.96 168.256 716.96 166.688C716.96 165.088 716.688 163.584 716.144 162.176C715.632 160.768 714.848 159.536 713.792 158.48C712.768 157.424 711.472 156.592 709.904 155.984C708.368 155.376 706.576 155.072 704.528 155.072ZM714.368 182.144C718.656 183.36 721.952 185.392 724.256 188.24C726.56 191.088 727.712 194.736 727.712 199.184C727.712 202.192 727.136 204.912 725.984 207.344C724.864 209.744 723.28 211.792 721.232 213.488C719.216 215.184 716.784 216.496 713.936 217.424C711.088 218.32 707.952 218.768 704.528 218.768C701.104 218.768 697.968 218.32 695.12 217.424C692.272 216.496 689.824 215.184 687.776 213.488C685.728 211.792 684.144 209.744 683.023 207.344C681.904 204.912 681.344 202.192 681.344 199.184C681.344 194.736 682.496 191.088 684.8 188.24C687.104 185.392 690.4 183.36 694.688 182.144C691.072 180.8 688.336 178.8 686.48 176.144C684.656 173.456 683.743 170.256 683.743 166.544C683.743 164.016 684.24 161.648 685.232 159.44C686.224 157.232 687.632 155.312 689.456 153.68C691.28 152.048 693.456 150.768 695.984 149.84C698.544 148.912 701.392 148.448 704.528 148.448C707.632 148.448 710.464 148.912 713.024 149.84C715.584 150.768 717.776 152.048 719.6 153.68C721.424 155.312 722.832 157.232 723.824 159.44C724.816 161.648 725.312 164.016 725.312 166.544C725.312 170.256 724.384 173.456 722.528 176.144C720.704 178.8 717.984 180.8 714.368 182.144ZM785.175 183.632C785.175 189.648 784.519 194.864 783.207 199.28C781.927 203.664 780.167 207.296 777.927 210.176C775.687 213.056 773.031 215.2 769.959 216.608C766.919 218.016 763.655 218.72 760.167 218.72C756.647 218.72 753.367 218.016 750.327 216.608C747.319 215.2 744.695 213.056 742.455 210.176C740.215 207.296 738.455 203.664 737.175 199.28C735.895 194.864 735.255 189.648 735.255 183.632C735.255 177.616 735.895 172.4 737.175 167.984C738.455 163.568 740.215 159.92 742.455 157.04C744.695 154.128 747.319 151.968 750.327 150.56C753.367 149.152 756.647 148.448 760.167 148.448C763.655 148.448 766.919 149.152 769.959 150.56C773.031 151.968 775.687 154.128 777.927 157.04C780.167 159.92 781.927 163.568 783.207 167.984C784.519 172.4 785.175 177.616 785.175 183.632ZM776.295 183.632C776.295 178.384 775.847 173.984 774.951 170.432C774.087 166.848 772.903 163.968 771.399 161.792C769.927 159.616 768.215 158.064 766.263 157.136C764.311 156.176 762.279 155.696 760.167 155.696C758.055 155.696 756.023 156.176 754.071 157.136C752.119 158.064 750.407 159.616 748.935 161.792C747.463 163.968 746.279 166.848 745.383 170.432C744.519 173.984 744.087 178.384 744.087 183.632C744.087 188.88 744.519 193.28 745.383 196.832C746.279 200.384 747.463 203.248 748.935 205.424C750.407 207.6 752.119 209.168 754.071 210.128C756.023 211.056 758.055 211.52 760.167 211.52C762.279 211.52 764.311 211.056 766.263 210.128C768.215 209.168 769.927 207.6 771.399 205.424C772.903 203.248 774.087 200.384 774.951 196.832C775.847 193.28 776.295 188.88 776.295 183.632Z" fill="white"/>
<path d="M260.623 2H29V422H309" stroke="white" stroke-width="3" stroke-linecap="round"/>
<path d="M721.377 422H953V2.00001H673" stroke="white" stroke-width="3" stroke-linecap="round"/>
<path d="M885.272 408.72C885.936 408.72 886.52 408.632 887.024 408.456C887.536 408.28 887.964 408.036 888.308 407.724C888.66 407.404 888.924 407.024 889.1 406.584C889.276 406.144 889.364 405.66 889.364 405.132C889.364 404.036 889.024 403.18 888.344 402.564C887.672 401.948 886.648 401.64 885.272 401.64H882.512V408.72H885.272ZM885.272 399.804C886.36 399.804 887.304 399.932 888.104 400.188C888.912 400.436 889.58 400.792 890.108 401.256C890.636 401.72 891.028 402.28 891.284 402.936C891.548 403.592 891.68 404.324 891.68 405.132C891.68 405.932 891.54 406.664 891.26 407.328C890.98 407.992 890.568 408.564 890.024 409.044C889.488 409.524 888.82 409.9 888.02 410.172C887.228 410.436 886.312 410.568 885.272 410.568H882.512V417H880.196V399.804H885.272ZM895.9 407.28C896.284 406.448 896.756 405.8 897.316 405.336C897.876 404.864 898.56 404.628 899.368 404.628C899.624 404.628 899.868 404.656 900.1 404.712C900.34 404.768 900.552 404.856 900.736 404.976L900.58 406.572C900.532 406.772 900.412 406.872 900.22 406.872C900.108 406.872 899.944 406.848 899.728 406.8C899.512 406.752 899.268 406.728 898.996 406.728C898.612 406.728 898.268 406.784 897.964 406.896C897.668 407.008 897.4 407.176 897.16 407.4C896.928 407.616 896.716 407.888 896.524 408.216C896.34 408.536 896.172 408.904 896.02 409.32V417H893.872V404.844H895.096C895.328 404.844 895.488 404.888 895.576 404.976C895.664 405.064 895.724 405.216 895.756 405.432L895.9 407.28ZM907.246 404.652C908.134 404.652 908.934 404.8 909.646 405.096C910.358 405.392 910.966 405.812 911.47 406.356C911.974 406.9 912.358 407.56 912.622 408.336C912.894 409.104 913.03 409.964 913.03 410.916C913.03 411.876 912.894 412.74 912.622 413.508C912.358 414.276 911.974 414.932 911.47 415.476C910.966 416.02 910.358 416.44 909.646 416.736C908.934 417.024 908.134 417.168 907.246 417.168C906.35 417.168 905.542 417.024 904.822 416.736C904.11 416.44 903.502 416.02 902.998 415.476C902.494 414.932 902.106 414.276 901.834 413.508C901.57 412.74 901.438 411.876 901.438 410.916C901.438 409.964 901.57 409.104 901.834 408.336C902.106 407.56 902.494 406.9 902.998 406.356C903.502 405.812 904.11 405.392 904.822 405.096C905.542 404.8 906.35 404.652 907.246 404.652ZM907.246 415.5C908.446 415.5 909.342 415.1 909.934 414.3C910.526 413.492 910.822 412.368 910.822 410.928C910.822 409.48 910.526 408.352 909.934 407.544C909.342 406.736 908.446 406.332 907.246 406.332C906.638 406.332 906.106 406.436 905.65 406.644C905.202 406.852 904.826 407.152 904.522 407.544C904.226 407.936 904.002 408.42 903.85 408.996C903.706 409.564 903.634 410.208 903.634 410.928C903.634 412.368 903.93 413.492 904.522 414.3C905.122 415.1 906.03 415.5 907.246 415.5ZM917.995 404.844V417.9C917.995 418.388 917.931 418.84 917.803 419.256C917.675 419.68 917.471 420.048 917.191 420.36C916.911 420.672 916.551 420.916 916.111 421.092C915.679 421.276 915.159 421.368 914.551 421.368C914.295 421.368 914.059 421.348 913.843 421.308C913.627 421.268 913.411 421.208 913.195 421.128L913.279 419.976C913.295 419.904 913.323 419.848 913.363 419.808C913.395 419.776 913.443 419.756 913.507 419.748C913.571 419.74 913.655 419.736 913.759 419.736C913.855 419.744 913.979 419.748 914.131 419.748C914.755 419.748 915.199 419.6 915.463 419.304C915.727 419.016 915.859 418.548 915.859 417.9V404.844H917.995ZM918.439 401.028C918.439 401.236 918.395 401.432 918.307 401.616C918.227 401.792 918.115 401.952 917.971 402.096C917.835 402.232 917.675 402.34 917.491 402.42C917.307 402.5 917.111 402.54 916.903 402.54C916.695 402.54 916.499 402.5 916.315 402.42C916.139 402.34 915.983 402.232 915.847 402.096C915.711 401.952 915.603 401.792 915.523 401.616C915.443 401.432 915.403 401.236 915.403 401.028C915.403 400.82 915.443 400.624 915.523 400.44C915.603 400.248 915.711 400.084 915.847 399.948C915.983 399.804 916.139 399.692 916.315 399.612C916.499 399.532 916.695 399.492 916.903 399.492C917.111 399.492 917.307 399.532 917.491 399.612C917.675 399.692 917.835 399.804 917.971 399.948C918.115 400.084 918.227 400.248 918.307 400.44C918.395 400.624 918.439 400.82 918.439 401.028ZM929.641 409.596C929.641 409.1 929.569 408.648 929.425 408.24C929.289 407.824 929.085 407.468 928.813 407.172C928.549 406.868 928.225 406.636 927.841 406.476C927.457 406.308 927.021 406.224 926.533 406.224C925.509 406.224 924.697 406.524 924.097 407.124C923.505 407.716 923.137 408.54 922.993 409.596H929.641ZM931.369 415.296C931.105 415.616 930.789 415.896 930.421 416.136C930.053 416.368 929.657 416.56 929.233 416.712C928.817 416.864 928.385 416.976 927.937 417.048C927.489 417.128 927.045 417.168 926.605 417.168C925.765 417.168 924.989 417.028 924.277 416.748C923.573 416.46 922.961 416.044 922.441 415.5C921.929 414.948 921.529 414.268 921.241 413.46C920.953 412.652 920.809 411.724 920.809 410.676C920.809 409.828 920.937 409.036 921.193 408.3C921.457 407.564 921.833 406.928 922.321 406.392C922.809 405.848 923.405 405.424 924.109 405.12C924.813 404.808 925.605 404.652 926.485 404.652C927.213 404.652 927.885 404.776 928.501 405.024C929.125 405.264 929.661 405.616 930.109 406.08C930.565 406.536 930.921 407.104 931.177 407.784C931.433 408.456 931.561 409.224 931.561 410.088C931.561 410.424 931.525 410.648 931.453 410.76C931.381 410.872 931.245 410.928 931.045 410.928H922.921C922.945 411.696 923.049 412.364 923.233 412.932C923.425 413.5 923.689 413.976 924.025 414.36C924.361 414.736 924.761 415.02 925.225 415.212C925.689 415.396 926.209 415.488 926.785 415.488C927.321 415.488 927.781 415.428 928.165 415.308C928.557 415.18 928.893 415.044 929.173 414.9C929.453 414.756 929.685 414.624 929.869 414.504C930.061 414.376 930.225 414.312 930.361 414.312C930.537 414.312 930.673 414.38 930.769 414.516L931.369 415.296ZM942.644 407.004C942.58 407.092 942.516 407.16 942.452 407.208C942.388 407.256 942.3 407.28 942.188 407.28C942.068 407.28 941.936 407.232 941.792 407.136C941.648 407.032 941.468 406.92 941.252 406.8C941.044 406.68 940.784 406.572 940.472 406.476C940.168 406.372 939.792 406.32 939.344 406.32C938.744 406.32 938.216 406.428 937.76 406.644C937.304 406.852 936.92 407.156 936.608 407.556C936.304 407.956 936.072 408.44 935.912 409.008C935.76 409.576 935.684 410.212 935.684 410.916C935.684 411.652 935.768 412.308 935.936 412.884C936.104 413.452 936.34 413.932 936.644 414.324C936.956 414.708 937.328 415.004 937.76 415.212C938.2 415.412 938.692 415.512 939.236 415.512C939.756 415.512 940.184 415.452 940.52 415.332C940.856 415.204 941.132 415.064 941.348 414.912C941.572 414.76 941.756 414.624 941.9 414.504C942.052 414.376 942.2 414.312 942.344 414.312C942.52 414.312 942.656 414.38 942.752 414.516L943.352 415.296C943.088 415.624 942.788 415.904 942.452 416.136C942.116 416.368 941.752 416.564 941.36 416.724C940.976 416.876 940.572 416.988 940.148 417.06C939.724 417.132 939.292 417.168 938.852 417.168C938.092 417.168 937.384 417.028 936.728 416.748C936.08 416.468 935.516 416.064 935.036 415.536C934.556 415 934.18 414.344 933.908 413.568C933.636 412.792 933.5 411.908 933.5 410.916C933.5 410.012 933.624 409.176 933.872 408.408C934.128 407.64 934.496 406.98 934.976 406.428C935.464 405.868 936.06 405.432 936.764 405.12C937.476 404.808 938.292 404.652 939.212 404.652C940.068 404.652 940.82 404.792 941.468 405.072C942.124 405.344 942.704 405.732 943.208 406.236L942.644 407.004ZM949.377 417.192C948.417 417.192 947.677 416.924 947.157 416.388C946.645 415.852 946.389 415.08 946.389 414.072V406.632H944.925C944.797 406.632 944.689 406.596 944.601 406.524C944.513 406.444 944.469 406.324 944.469 406.164V405.312L946.461 405.06L946.953 401.304C946.977 401.184 947.029 401.088 947.109 401.016C947.197 400.936 947.309 400.896 947.445 400.896H948.525V405.084H952.041V406.632H948.525V413.928C948.525 414.44 948.649 414.82 948.897 415.068C949.145 415.316 949.465 415.44 949.857 415.44C950.081 415.44 950.273 415.412 950.433 415.356C950.601 415.292 950.745 415.224 950.865 415.152C950.985 415.08 951.085 415.016 951.165 414.96C951.253 414.896 951.329 414.864 951.393 414.864C951.505 414.864 951.605 414.932 951.693 415.068L952.317 416.088C951.949 416.432 951.505 416.704 950.985 416.904C950.465 417.096 949.929 417.192 949.377 417.192Z" fill="white"/>
<path d="M15.72 66.728C15.72 66.064 15.632 65.48 15.456 64.976C15.28 64.464 15.036 64.036 14.724 63.692C14.404 63.34 14.024 63.076 13.584 62.9C13.144 62.724 12.66 62.636 12.132 62.636C11.036 62.636 10.18 62.976 9.564 63.656C8.948 64.328 8.64 65.352 8.64 66.728L8.64 69.488L15.72 69.488L15.72 66.728ZM6.804 66.728C6.804 65.64 6.932 64.696 7.188 63.896C7.436 63.088 7.792 62.42 8.256 61.892C8.72 61.364 9.28 60.972 9.936 60.716C10.592 60.452 11.324 60.32 12.132 60.32C12.932 60.32 13.664 60.46 14.328 60.74C14.992 61.02 15.564 61.432 16.044 61.976C16.524 62.512 16.9 63.18 17.172 63.98C17.436 64.772 17.568 65.688 17.568 66.728L17.568 69.488L24 69.488L24 71.804L6.804 71.804L6.804 66.728ZM16.596 50.3907C16.1 50.3907 15.648 50.4627 15.24 50.6067C14.824 50.7427 14.468 50.9467 14.172 51.2187C13.868 51.4827 13.636 51.8067 13.476 52.1907C13.308 52.5747 13.224 53.0107 13.224 53.4987C13.224 54.5227 13.524 55.3347 14.124 55.9347C14.716 56.5267 15.54 56.8947 16.596 57.0387L16.596 50.3907ZM22.296 48.6627C22.616 48.9267 22.896 49.2427 23.136 49.6107C23.368 49.9787 23.56 50.3747 23.712 50.7987C23.864 51.2147 23.976 51.6467 24.048 52.0947C24.128 52.5427 24.168 52.9867 24.168 53.4267C24.168 54.2667 24.028 55.0427 23.748 55.7547C23.46 56.4587 23.044 57.0707 22.5 57.5907C21.948 58.1027 21.268 58.5027 20.46 58.7907C19.652 59.0787 18.724 59.2227 17.676 59.2227C16.828 59.2227 16.036 59.0947 15.3 58.8387C14.564 58.5747 13.928 58.1987 13.392 57.7107C12.848 57.2227 12.424 56.6267 12.12 55.9227C11.808 55.2187 11.652 54.4267 11.652 53.5467C11.652 52.8187 11.776 52.1467 12.024 51.5307C12.264 50.9067 12.616 50.3707 13.08 49.9227C13.536 49.4667 14.104 49.1107 14.784 48.8547C15.456 48.5987 16.224 48.4707 17.088 48.4707C17.424 48.4707 17.648 48.5067 17.76 48.5787C17.872 48.6507 17.928 48.7867 17.928 48.9867L17.928 57.1107C18.696 57.0867 19.364 56.9827 19.932 56.7987C20.5 56.6067 20.976 56.3427 21.36 56.0067C21.736 55.6707 22.02 55.2707 22.212 54.8067C22.396 54.3427 22.488 53.8227 22.488 53.2467C22.488 52.7107 22.428 52.2507 22.308 51.8667C22.18 51.4747 22.044 51.1387 21.9 50.8587C21.756 50.5787 21.624 50.3467 21.504 50.1627C21.376 49.9707 21.312 49.8067 21.312 49.6707C21.312 49.4947 21.38 49.3587 21.516 49.2627L22.296 48.6627ZM11.652 40.7231C11.652 39.8351 11.8 39.0351 12.096 38.3231C12.392 37.6111 12.812 37.0031 13.356 36.4991C13.9 35.9951 14.56 35.6111 15.336 35.3471C16.104 35.0751 16.964 34.9391 17.916 34.9391C18.876 34.9391 19.74 35.0751 20.508 35.3471C21.276 35.6111 21.932 35.9951 22.476 36.4991C23.02 37.0031 23.44 37.6111 23.736 38.3231C24.024 39.0351 24.168 39.8351 24.168 40.7231C24.168 41.6191 24.024 42.4271 23.736 43.1471C23.44 43.8591 23.02 44.4671 22.476 44.9711C21.932 45.4751 21.276 45.8631 20.508 46.1351C19.74 46.3991 18.876 46.5311 17.916 46.5311C16.964 46.5311 16.104 46.3991 15.336 46.1351C14.56 45.8631 13.9 45.4751 13.356 44.9711C12.812 44.4671 12.392 43.8591 12.096 43.1471C11.8 42.4271 11.652 41.6191 11.652 40.7231ZM22.5 40.7231C22.5 39.5231 22.1 38.6271 21.3 38.0351C20.492 37.4431 19.368 37.1471 17.928 37.1471C16.48 37.1471 15.352 37.4431 14.544 38.0351C13.736 38.6271 13.332 39.5231 13.332 40.7231C13.332 41.3311 13.436 41.8631 13.644 42.3191C13.852 42.7671 14.152 43.1431 14.544 43.4471C14.936 43.7431 15.42 43.9671 15.996 44.1191C16.564 44.2631 17.208 44.3351 17.928 44.3351C19.368 44.3351 20.492 44.0391 21.3 43.4471C22.1 42.8471 22.5 41.9391 22.5 40.7231ZM21.072 30.0819C21.6 29.6899 21.972 29.2619 22.188 28.7979C22.404 28.3339 22.512 27.8139 22.512 27.2379C22.512 26.1019 22.108 25.2299 21.3 24.6219C20.492 24.0139 19.34 23.7099 17.844 23.7099C17.052 23.7099 16.372 23.7819 15.804 23.9259C15.236 24.0619 14.772 24.2619 14.412 24.5259C14.044 24.7899 13.776 25.1139 13.608 25.4979C13.44 25.8819 13.356 26.3179 13.356 26.8059C13.356 27.5019 13.516 28.1139 13.836 28.6419C14.156 29.1619 14.608 29.6419 15.192 30.0819L21.072 30.0819ZM13.728 30.1899C13.096 29.6779 12.588 29.0859 12.204 28.4139C11.82 27.7419 11.628 26.9739 11.628 26.1099C11.628 25.4059 11.764 24.7699 12.036 24.2019C12.3 23.6339 12.696 23.1499 13.224 22.7499C13.744 22.3499 14.392 22.0419 15.168 21.8259C15.944 21.6099 16.836 21.5019 17.844 21.5019C18.74 21.5019 19.576 21.6219 20.352 21.8619C21.12 22.1019 21.788 22.4499 22.356 22.9059C22.916 23.3539 23.36 23.9059 23.688 24.5619C24.008 25.2099 24.168 25.9419 24.168 26.7579C24.168 27.5019 24.044 28.1419 23.796 28.6779C23.54 29.2059 23.188 29.6739 22.74 30.0819L28.116 30.0819L28.116 32.2299L11.844 32.2299L11.844 30.9459C11.844 30.6419 11.992 30.4539 12.288 30.3819L13.728 30.1899ZM6.324 16.5687L24 16.5687L24 18.7047L6.324 18.7047L6.324 16.5687ZM16.596 4.96887C16.1 4.96887 15.648 5.04087 15.24 5.18487C14.824 5.32087 14.468 5.52487 14.172 5.79687C13.868 6.06087 13.636 6.38487 13.476 6.76887C13.308 7.15287 13.224 7.58887 13.224 8.07687C13.224 9.10087 13.524 9.91287 14.124 10.5129C14.716 11.1049 15.54 11.4729 16.596 11.6169L16.596 4.96887ZM22.296 3.24087C22.616 3.50487 22.896 3.82087 23.136 4.18887C23.368 4.55687 23.56 4.95287 23.712 5.37687C23.864 5.79287 23.976 6.22487 24.048 6.67287C24.128 7.12087 24.168 7.56487 24.168 8.00487C24.168 8.84487 24.028 9.62087 23.748 10.3329C23.46 11.0369 23.044 11.6489 22.5 12.1689C21.948 12.6809 21.268 13.0809 20.46 13.3689C19.652 13.6569 18.724 13.8009 17.676 13.8009C16.828 13.8009 16.036 13.6729 15.3 13.4169C14.564 13.1529 13.928 12.7769 13.392 12.2889C12.848 11.8009 12.424 11.2049 12.12 10.5009C11.808 9.79687 11.652 9.00487 11.652 8.12487C11.652 7.39687 11.776 6.72487 12.024 6.10887C12.264 5.48487 12.616 4.94887 13.08 4.50087C13.536 4.04487 14.104 3.68887 14.784 3.43287C15.456 3.17687 16.224 3.04887 17.088 3.04887C17.424 3.04887 17.648 3.08487 17.76 3.15687C17.872 3.22887 17.928 3.36487 17.928 3.56487L17.928 11.6889C18.696 11.6649 19.364 11.5609 19.932 11.3769C20.5 11.1849 20.976 10.9209 21.36 10.5849C21.736 10.2489 22.02 9.84887 22.212 9.38487C22.396 8.92087 22.488 8.40087 22.488 7.82487C22.488 7.28887 22.428 6.82887 22.308 6.44487C22.18 6.05287 22.044 5.71687 21.9 5.43687C21.756 5.15687 21.624 4.92487 21.504 4.74087C21.376 4.54887 21.312 4.38487 21.312 4.24887C21.312 4.07287 21.38 3.93687 21.516 3.84087L22.296 3.24087Z" fill="white"/>
</svg>
