<svg width="151" height="484" viewBox="0 0 151 484" fill="none" xmlns="http://www.w3.org/2000/svg">
<path d="M57.4 459.1C53.6667 455.1 50.6333 450.7 48.3 445.9C45.9667 441.1 44.8 435.467 44.8 429C44.8 423.4 45.7667 418.433 47.7 414.1C49.5667 409.767 52.2333 406.167 55.7 403.3C59.1 400.367 63.2 398.167 68 396.7C72.7333 395.167 77.9667 394.4 83.7 394.4L149 394.4L149 419.1L83.7 419.1C77.4333 419.1 72.6 420.533 69.2 423.4C65.7333 426.267 64 430.633 64 436.5C64 440.767 64.9667 444.767 66.9 448.5C68.8333 452.233 71.4667 455.767 74.8 459.1L149 459.1L149 483.8L0.399993 483.8L0.399992 459.1L57.4 459.1ZM44.8 325.509C44.8 317.909 46.0333 311.009 48.5 304.809C50.9667 298.543 54.4667 293.209 59 288.809C63.5333 284.343 69.0667 280.909 75.6 278.509C82.1333 276.109 89.4333 274.909 97.5 274.909C105.633 274.909 112.967 276.109 119.5 278.509C126.033 280.909 131.6 284.343 136.2 288.809C140.8 293.209 144.333 298.543 146.8 304.809C149.267 311.009 150.5 317.909 150.5 325.509C150.5 333.176 149.267 340.143 146.8 346.409C144.333 352.676 140.8 358.043 136.2 362.509C131.6 366.909 126.033 370.343 119.5 372.809C112.967 375.209 105.633 376.409 97.5 376.409C89.4333 376.409 82.1333 375.209 75.6 372.809C69.0667 370.343 63.5333 366.909 59 362.509C54.4667 358.043 50.9667 352.676 48.5 346.409C46.0333 340.143 44.8 333.176 44.8 325.509ZM131.5 325.509C131.5 316.976 128.633 310.676 122.9 306.609C117.167 302.476 108.767 300.409 97.7 300.409C86.6333 300.409 78.2 302.476 72.4 306.609C66.6 310.676 63.7 316.976 63.7 325.509C63.7 334.176 66.6333 340.609 72.5 344.809C78.3 348.943 86.7 351.009 97.7 351.009C108.7 351.009 117.1 348.943 122.9 344.809C128.633 340.609 131.5 334.176 131.5 325.509ZM149 256.066L46.4 256.066L46.4 240.966C46.4 237.766 47.9 235.666 50.9 234.666L58.5 233.066C56.5 231.266 54.6666 229.399 53 227.466C51.3333 225.466 49.9 223.366 48.7 221.166C47.5 218.899 46.5667 216.499 45.9 213.966C45.1666 211.366 44.8 208.532 44.8 205.466C44.8 198.999 46.5666 193.699 50.1 189.566C53.5666 185.366 58.2 182.232 64 180.166C60.6 178.566 57.7 176.566 55.3 174.166C52.8333 171.766 50.8333 169.132 49.3 166.266C47.7666 163.399 46.6333 160.366 45.9 157.166C45.1666 153.899 44.8 150.632 44.8 147.366C44.8 141.699 45.6666 136.666 47.4 132.266C49.1333 127.866 51.6666 124.166 55 121.166C58.3333 118.166 62.4 115.899 67.2 114.366C72 112.766 77.5 111.966 83.7 111.966L149 111.966L149 136.666L83.7 136.666C77.1666 136.666 72.2666 138.099 69 140.966C65.6666 143.832 64 148.032 64 153.566C64 156.099 64.4333 158.466 65.3 160.666C66.1666 162.799 67.4333 164.699 69.1 166.366C70.7 167.966 72.7333 169.232 75.2 170.166C77.6666 171.099 80.5 171.566 83.7 171.566L149 171.566L149 196.366L83.7 196.366C76.8333 196.366 71.8333 197.766 68.7 200.566C65.5667 203.299 64 207.332 64 212.666C64 216.266 64.9 219.632 66.7 222.766C68.4333 225.832 70.8333 228.699 73.9 231.366L149 231.366L149 256.066ZM85.9 22.3875C82.7 22.3875 79.7 22.8542 76.9 23.7875C74.0333 24.6542 71.5333 25.9875 69.4 27.7875C67.2666 29.5875 65.6 31.8875 64.4 34.6875C63.1333 37.4208 62.5 40.6208 62.5 44.2875C62.5 51.4208 64.5333 57.0542 68.6 61.1875C72.6666 65.2542 78.4333 67.8542 85.9 68.9875L85.9 22.3875ZM100.8 69.4875C106.067 69.0875 110.633 68.1542 114.5 66.6875C118.3 65.2208 121.467 63.2875 124 60.8875C126.467 58.4875 128.333 55.6542 129.6 52.3875C130.8 49.0542 131.4 45.3875 131.4 41.3875C131.4 37.3875 130.933 33.9542 130 31.0875C129.067 28.1542 128.033 25.6208 126.9 23.4875C125.767 21.2875 124.733 19.3875 123.8 17.7875C122.867 16.1208 122.4 14.5208 122.4 12.9875C122.4 10.9208 123.167 9.38749 124.7 8.38749L133.7 1.28749C136.9 4.02082 139.6 7.08749 141.8 10.4875C143.933 13.8875 145.667 17.4542 147 21.1875C148.267 24.8542 149.167 28.6208 149.7 32.4875C150.233 36.2875 150.5 39.9875 150.5 43.5875C150.5 50.7208 149.333 57.3542 147 63.4875C144.6 69.6208 141.1 74.9542 136.5 79.4875C131.833 84.0208 126.1 87.5875 119.3 90.1875C112.433 92.7875 104.5 94.0875 95.5 94.0875C88.5 94.0875 81.9333 92.9542 75.8 90.6875C69.6 88.4208 64.2333 85.1875 59.7 80.9875C55.1 76.7208 51.4666 71.5542 48.8 65.4875C46.1333 59.3542 44.8 52.4542 44.8 44.7875C44.8 38.3208 45.8333 32.3542 47.9 26.8875C49.9666 21.4208 53 16.7208 57 12.7875C60.9333 8.85416 65.8 5.78749 71.6 3.58749C77.3333 1.32083 83.9 0.187496 91.3 0.187495C95.0333 0.187495 97.5666 0.587494 98.9 1.38749C100.167 2.18749 100.8 3.72082 100.8 5.98749L100.8 69.4875Z" fill="#454545" fill-opacity="0.04"/>
</svg>
