<svg width="48" height="48" viewBox="0 0 48 48" fill="none" xmlns="http://www.w3.org/2000/svg">
<path d="M9.94172 1.67939C9.49113 1.89465 9.02956 2.50456 8.94164 3.00683L8.8757 3.4254H6.95247C4.34786 3.4254 4.50172 3.24601 4.50172 6.29556C4.50172 8.55581 4.50172 8.57973 4.77647 8.86674C5.02923 9.15376 5.11715 9.16572 6.2601 9.16572C7.40305 9.16572 7.49097 9.15376 7.74374 8.86674C7.91958 8.68736 8.01849 8.43622 8.01849 8.209C8.01849 7.59909 7.60087 7.25228 6.86455 7.25228H6.2601V6.29556V5.33884H7.57889H8.89768L8.91966 13.3394C8.95263 21.2084 8.95263 21.3519 9.18341 21.6748C9.3043 21.8542 9.54608 22.1173 9.71093 22.2489C10.0077 22.5 10.1066 22.5 17.25 22.5C24.3934 22.5 24.4923 22.5 24.7891 22.2489C24.9539 22.1173 25.1957 21.8542 25.3166 21.6748C25.5364 21.3519 25.5474 21.1965 25.5803 15.2528L25.6133 9.16572H27.5365C30.1521 9.16572 29.9983 9.3451 29.9983 6.29556C29.9983 3.24601 30.1521 3.4254 27.5475 3.4254H25.6243L25.5584 3.00683C25.4704 2.4926 25.0089 1.88269 24.5363 1.67939C24.0198 1.44021 10.4363 1.44021 9.94172 1.67939ZM23.8439 12.0359V20.6464H17.25H10.6561V12.0359V3.4254H17.25H23.8439V12.0359ZM28.2399 6.29556V7.25228H26.9211H25.6023V6.29556V5.33884H26.9211H28.2399V6.29556Z" fill="#454545"/>
<path d="M36.9845 18.6169C36.7595 18.8192 36.7501 18.8632 36.7501 20.1562C36.7501 21.4492 36.7595 21.4932 36.9845 21.6955C37.1063 21.8186 37.2751 21.9154 37.3595 21.9154C37.472 21.9154 37.5001 22.0561 37.5001 22.751C37.5001 23.525 37.5188 23.613 37.7345 23.8065C37.9595 24.0264 37.9782 24.0264 39.7501 24.0264C41.522 24.0264 41.5407 24.0264 41.7657 23.8065C41.9813 23.613 42.0001 23.525 42.0001 22.751V21.9154H42.7501H43.5001V24.7301V27.5448H30.6095H17.7095L17.4845 27.7647C17.1751 28.0461 17.1751 28.4507 17.4845 28.7322L17.7095 28.9521H31.8282H45.947L46.172 29.172C46.4626 29.4359 46.472 29.7086 46.2188 31.5381C45.5532 36.3759 43.9688 40.3165 41.6345 42.9113C40.6313 44.0195 39.3751 44.7056 37.8282 45.0047C37.1532 45.1278 35.672 45.1366 23.672 45.119C8.71883 45.0839 9.92821 45.1366 8.48446 44.4681C7.58446 44.0547 6.86258 43.5006 6.14071 42.6474C3.9282 40.0614 2.4282 36.2439 1.78133 31.5205C1.5282 29.7174 1.53758 29.4359 1.8282 29.172L2.0532 28.9521H4.39695H6.74071L6.76883 33.0774C6.79696 37.0884 6.80633 37.2115 6.99383 37.449C7.09696 37.5809 7.30321 37.7744 7.44383 37.8712C7.69696 38.0471 7.80945 38.0559 11.6251 38.0559C15.4407 38.0559 15.5532 38.0471 15.8063 37.8712C15.947 37.7744 16.1532 37.5809 16.2563 37.449C16.4532 37.2115 16.4532 37.1235 16.4532 32.1186C16.4532 27.1138 16.4532 27.0258 16.2563 26.7883C16.1532 26.6564 15.947 26.4629 15.8063 26.3661C15.5626 26.1902 15.4126 26.1814 11.8313 26.155C9.37508 26.1374 7.99696 26.155 7.76258 26.2254C7.34071 26.3397 6.87196 26.8235 6.78758 27.2281L6.73133 27.536L4.18133 27.5624L1.62195 27.5887L1.16258 27.8526C0.562578 28.2045 0.168828 28.7938 0.112578 29.4447C0.0282028 30.421 0.515703 33.5612 1.06883 35.6282C2.10945 39.472 3.65633 42.3219 5.76571 44.3098C6.54383 45.0399 6.85321 45.2598 7.55633 45.6028C8.01571 45.8227 8.77508 46.1218 9.24383 46.2537L10.0782 46.5H24.0001H37.922L38.7563 46.2537C40.397 45.7699 41.372 45.207 42.4876 44.0899C45.2345 41.3544 47.1657 36.5694 47.8126 30.9136C47.972 29.559 47.9157 29.0665 47.5501 28.5123L47.2501 28.0637V24.1407C47.2501 21.3172 47.222 20.121 47.1376 19.8571C46.9876 19.3733 46.2095 18.6433 45.6938 18.5025C45.4126 18.4234 44.1657 18.397 41.2595 18.397H37.2095L36.9845 18.6169ZM45.5157 20.0242L45.7501 20.2353V23.8944V27.5448H45.3751H45.0095L44.9813 24.475C44.9532 21.5283 44.9438 21.3876 44.7563 21.1589C44.6532 21.027 44.447 20.8335 44.3063 20.7367C44.0626 20.5608 43.9126 20.552 41.147 20.5256L38.2501 20.4992V20.1562V19.8043H41.7657H45.2907L45.5157 20.0242ZM40.5001 22.2672V22.619H39.7501H39.0001V22.2672V21.9154H39.7501H40.5001V22.2672ZM15.0001 32.1186V36.6925H11.6251H8.25008V32.1186V27.5448H11.6251H15.0001V32.1186Z" fill="#454545"/>
</svg>
