<svg width="327" height="23" viewBox="0 0 327 23" fill="none" xmlns="http://www.w3.org/2000/svg">
<path d="M12.032 7.86C11.84 7.804 11.64 7.764 11.432 7.74C11.232 7.708 10.996 7.692 10.724 7.692C10.004 7.692 9.348 7.84 8.756 8.136C8.172 8.424 7.672 8.804 7.256 9.276C6.848 9.748 6.528 10.28 6.296 10.872C6.072 11.456 5.96 12.048 5.96 12.648C5.96 12.968 6 13.268 6.08 13.548C6.16 13.82 6.28 14.056 6.44 14.256C6.6 14.456 6.796 14.616 7.028 14.736C7.268 14.848 7.548 14.904 7.868 14.904C8.156 14.904 8.452 14.856 8.756 14.76C9.068 14.664 9.364 14.492 9.644 14.244C9.932 13.988 10.2 13.648 10.448 13.224C10.696 12.792 10.904 12.244 11.072 11.58L12.032 7.86ZM11.984 11.508C11.792 12.244 11.7 12.84 11.708 13.296C11.716 13.752 11.792 14.108 11.936 14.364C12.08 14.612 12.272 14.78 12.512 14.868C12.76 14.948 13.024 14.988 13.304 14.988C13.76 14.988 14.196 14.868 14.612 14.628C15.028 14.388 15.396 14.048 15.716 13.608C16.036 13.16 16.288 12.62 16.472 11.988C16.664 11.356 16.76 10.648 16.76 9.864C16.76 8.68 16.564 7.648 16.172 6.768C15.788 5.88 15.26 5.144 14.588 4.56C13.924 3.976 13.148 3.54 12.26 3.252C11.372 2.964 10.428 2.82 9.428 2.82C8.332 2.82 7.292 3.032 6.308 3.456C5.332 3.88 4.472 4.472 3.728 5.232C2.992 5.992 2.404 6.9 1.964 7.956C1.532 9.004 1.316 10.156 1.316 11.412C1.316 12.828 1.54 14.076 1.988 15.156C2.444 16.228 3.06 17.128 3.836 17.856C4.612 18.576 5.516 19.12 6.548 19.488C7.588 19.864 8.692 20.052 9.86 20.052C11.044 20.052 12.124 19.916 13.1 19.644C14.084 19.372 14.976 18.976 15.776 18.456C15.872 18.392 15.96 18.372 16.04 18.396C16.12 18.42 16.18 18.476 16.22 18.564L16.4 19.008C15.504 19.6 14.516 20.056 13.436 20.376C12.364 20.696 11.172 20.856 9.86 20.856C8.54 20.856 7.308 20.644 6.164 20.22C5.02 19.804 4.024 19.192 3.176 18.384C2.328 17.584 1.66 16.6 1.172 15.432C0.684 14.256 0.44 12.916 0.44 11.412C0.44 10.076 0.676 8.836 1.148 7.692C1.62 6.548 2.264 5.556 3.08 4.716C3.896 3.876 4.848 3.22 5.936 2.748C7.024 2.268 8.188 2.028 9.428 2.028C10.5 2.028 11.528 2.196 12.512 2.532C13.496 2.86 14.364 3.356 15.116 4.02C15.876 4.676 16.48 5.492 16.928 6.468C17.384 7.444 17.612 8.576 17.612 9.864C17.612 10.736 17.496 11.532 17.264 12.252C17.032 12.972 16.712 13.592 16.304 14.112C15.904 14.624 15.432 15.024 14.888 15.312C14.344 15.6 13.764 15.744 13.148 15.744C12.444 15.744 11.912 15.56 11.552 15.192C11.2 14.816 11.016 14.276 11 13.572C10.552 14.324 10.044 14.868 9.476 15.204C8.916 15.532 8.308 15.696 7.652 15.696C7.204 15.696 6.816 15.62 6.488 15.468C6.16 15.308 5.888 15.092 5.672 14.82C5.456 14.548 5.292 14.228 5.18 13.86C5.076 13.492 5.024 13.096 5.024 12.672C5.024 11.992 5.152 11.312 5.408 10.632C5.672 9.944 6.052 9.328 6.548 8.784C7.052 8.232 7.668 7.784 8.396 7.44C9.124 7.096 9.952 6.924 10.88 6.924C11.304 6.924 11.7 6.96 12.068 7.032C12.444 7.104 12.78 7.208 13.076 7.344L11.984 11.508ZM30.803 16.92C30.931 16.92 31.031 16.96 31.103 17.04C31.175 17.112 31.211 17.208 31.211 17.328V18H20.255V17.592C20.255 17.504 20.275 17.416 20.315 17.328C20.363 17.232 20.423 17.152 20.495 17.088L26.291 11.22C26.771 10.732 27.215 10.26 27.623 9.804C28.031 9.348 28.383 8.888 28.679 8.424C28.983 7.96 29.219 7.484 29.387 6.996C29.555 6.508 29.639 5.988 29.639 5.436C29.639 4.812 29.535 4.272 29.327 3.816C29.119 3.352 28.843 2.972 28.499 2.676C28.155 2.38 27.755 2.16 27.299 2.016C26.843 1.872 26.371 1.8 25.883 1.8C25.347 1.8 24.851 1.884 24.395 2.052C23.947 2.212 23.547 2.44 23.195 2.736C22.851 3.024 22.563 3.372 22.331 3.78C22.107 4.18 21.951 4.62 21.863 5.1C21.807 5.276 21.731 5.392 21.635 5.448C21.547 5.504 21.423 5.524 21.263 5.508L20.675 5.412C20.779 4.684 20.979 4.036 21.275 3.468C21.571 2.9 21.947 2.42 22.403 2.028C22.859 1.636 23.387 1.34 23.987 1.14C24.587 0.931999 25.235 0.827999 25.931 0.827999C26.579 0.827999 27.195 0.923999 27.779 1.116C28.371 1.3 28.891 1.584 29.339 1.968C29.795 2.344 30.155 2.82 30.419 3.396C30.683 3.964 30.815 4.632 30.815 5.4C30.815 6.04 30.715 6.636 30.515 7.188C30.323 7.732 30.059 8.256 29.723 8.76C29.387 9.264 28.995 9.756 28.547 10.236C28.107 10.708 27.643 11.192 27.155 11.688L21.839 17.112C22.095 17.048 22.359 17 22.631 16.968C22.911 16.936 23.191 16.92 23.471 16.92H30.803ZM45.8409 9.504C45.8409 10.992 45.6809 12.28 45.3609 13.368C45.0409 14.456 44.6049 15.356 44.0529 16.068C43.5009 16.78 42.8529 17.312 42.1089 17.664C41.3729 18.008 40.5849 18.18 39.7449 18.18C38.9049 18.18 38.1169 18.008 37.3809 17.664C36.6449 17.312 36.0009 16.78 35.4489 16.068C34.8969 15.356 34.4609 14.456 34.1409 13.368C33.8289 12.28 33.6729 10.992 33.6729 9.504C33.6729 8.016 33.8289 6.728 34.1409 5.64C34.4609 4.552 34.8969 3.652 35.4489 2.94C36.0009 2.228 36.6449 1.7 37.3809 1.356C38.1169 1.004 38.9049 0.827999 39.7449 0.827999C40.5849 0.827999 41.3729 1.004 42.1089 1.356C42.8529 1.7 43.5009 2.228 44.0529 2.94C44.6049 3.652 45.0409 4.552 45.3609 5.64C45.6809 6.728 45.8409 8.016 45.8409 9.504ZM44.6409 9.504C44.6409 8.128 44.5089 6.952 44.2449 5.976C43.9809 5 43.6249 4.204 43.1769 3.588C42.7369 2.964 42.2169 2.508 41.6169 2.22C41.0249 1.932 40.4009 1.788 39.7449 1.788C39.0889 1.788 38.4649 1.932 37.8729 2.22C37.2809 2.508 36.7609 2.964 36.3129 3.588C35.8649 4.204 35.5089 5 35.2449 5.976C34.9809 6.952 34.8489 8.128 34.8489 9.504C34.8489 10.888 34.9809 12.068 35.2449 13.044C35.5089 14.012 35.8649 14.808 36.3129 15.432C36.7609 16.048 37.2809 16.5 37.8729 16.788C38.4649 17.068 39.0889 17.208 39.7449 17.208C40.4009 17.208 41.0249 17.068 41.6169 16.788C42.2169 16.5 42.7369 16.048 43.1769 15.432C43.6249 14.808 43.9809 14.012 44.2449 13.044C44.5089 12.068 44.6409 10.888 44.6409 9.504ZM58.6468 16.92C58.7747 16.92 58.8748 16.96 58.9468 17.04C59.0188 17.112 59.0547 17.208 59.0547 17.328V18H48.0988V17.592C48.0988 17.504 48.1188 17.416 48.1588 17.328C48.2068 17.232 48.2668 17.152 48.3388 17.088L54.1348 11.22C54.6148 10.732 55.0588 10.26 55.4668 9.804C55.8748 9.348 56.2268 8.888 56.5228 8.424C56.8268 7.96 57.0628 7.484 57.2308 6.996C57.3988 6.508 57.4828 5.988 57.4828 5.436C57.4828 4.812 57.3788 4.272 57.1708 3.816C56.9628 3.352 56.6868 2.972 56.3428 2.676C55.9988 2.38 55.5988 2.16 55.1428 2.016C54.6868 1.872 54.2148 1.8 53.7268 1.8C53.1908 1.8 52.6948 1.884 52.2388 2.052C51.7908 2.212 51.3908 2.44 51.0388 2.736C50.6948 3.024 50.4068 3.372 50.1748 3.78C49.9508 4.18 49.7948 4.62 49.7068 5.1C49.6508 5.276 49.5748 5.392 49.4788 5.448C49.3908 5.504 49.2668 5.524 49.1068 5.508L48.5188 5.412C48.6228 4.684 48.8228 4.036 49.1188 3.468C49.4148 2.9 49.7908 2.42 50.2467 2.028C50.7028 1.636 51.2308 1.34 51.8308 1.14C52.4308 0.931999 53.0788 0.827999 53.7747 0.827999C54.4228 0.827999 55.0388 0.923999 55.6228 1.116C56.2148 1.3 56.7348 1.584 57.1828 1.968C57.6388 2.344 57.9988 2.82 58.2628 3.396C58.5268 3.964 58.6588 4.632 58.6588 5.4C58.6588 6.04 58.5588 6.636 58.3588 7.188C58.1668 7.732 57.9028 8.256 57.5668 8.76C57.2308 9.264 56.8388 9.756 56.3908 10.236C55.9508 10.708 55.4868 11.192 54.9988 11.688L49.6828 17.112C49.9388 17.048 50.2028 17 50.4748 16.968C50.7548 16.936 51.0348 16.92 51.3148 16.92H58.6468ZM72.5686 16.92C72.6966 16.92 72.7966 16.96 72.8686 17.04C72.9406 17.112 72.9766 17.208 72.9766 17.328V18H62.0206V17.592C62.0206 17.504 62.0406 17.416 62.0806 17.328C62.1286 17.232 62.1886 17.152 62.2606 17.088L68.0566 11.22C68.5366 10.732 68.9806 10.26 69.3886 9.804C69.7966 9.348 70.1486 8.888 70.4446 8.424C70.7486 7.96 70.9846 7.484 71.1526 6.996C71.3206 6.508 71.4046 5.988 71.4046 5.436C71.4046 4.812 71.3006 4.272 71.0926 3.816C70.8846 3.352 70.6086 2.972 70.2646 2.676C69.9206 2.38 69.5206 2.16 69.0646 2.016C68.6086 1.872 68.1366 1.8 67.6486 1.8C67.1126 1.8 66.6166 1.884 66.1606 2.052C65.7126 2.212 65.3126 2.44 64.9606 2.736C64.6166 3.024 64.3286 3.372 64.0966 3.78C63.8726 4.18 63.7166 4.62 63.6286 5.1C63.5726 5.276 63.4966 5.392 63.4006 5.448C63.3126 5.504 63.1886 5.524 63.0286 5.508L62.4406 5.412C62.5446 4.684 62.7446 4.036 63.0406 3.468C63.3366 2.9 63.7126 2.42 64.1686 2.028C64.6246 1.636 65.1526 1.34 65.7526 1.14C66.3526 0.931999 67.0006 0.827999 67.6966 0.827999C68.3446 0.827999 68.9606 0.923999 69.5446 1.116C70.1366 1.3 70.6566 1.584 71.1046 1.968C71.5606 2.344 71.9206 2.82 72.1846 3.396C72.4486 3.964 72.5806 4.632 72.5806 5.4C72.5806 6.04 72.4806 6.636 72.2806 7.188C72.0886 7.732 71.8246 8.256 71.4886 8.76C71.1526 9.264 70.7606 9.756 70.3126 10.236C69.8726 10.708 69.4086 11.192 68.9206 11.688L63.6046 17.112C63.8606 17.048 64.1246 17 64.3966 16.968C64.6766 16.936 64.9566 16.92 65.2366 16.92H72.5686ZM90.1141 11.232V18H87.3181V11.232L81.0061 0.719999H83.4661C83.7141 0.719999 83.9101 0.779999 84.0541 0.899999C84.1981 1.02 84.3181 1.172 84.4141 1.356L87.9541 7.548C88.1141 7.86 88.2581 8.156 88.3861 8.436C88.5221 8.716 88.6421 8.992 88.7461 9.264C88.8341 8.984 88.9421 8.708 89.0701 8.436C89.1981 8.156 89.3421 7.86 89.5021 7.548L93.0181 1.356C93.0981 1.196 93.2141 1.052 93.3661 0.923999C93.5181 0.787999 93.7141 0.719999 93.9541 0.719999H96.4261L90.1141 11.232ZM105.227 15.732C105.891 15.732 106.483 15.62 107.003 15.396C107.531 15.172 107.975 14.86 108.335 14.46C108.703 14.06 108.983 13.58 109.175 13.02C109.367 12.452 109.463 11.824 109.463 11.136V0.719999H112.259V11.136C112.259 12.152 112.095 13.092 111.767 13.956C111.447 14.82 110.983 15.568 110.375 16.2C109.767 16.824 109.027 17.316 108.155 17.676C107.291 18.028 106.315 18.204 105.227 18.204C104.139 18.204 103.159 18.028 102.287 17.676C101.423 17.316 100.687 16.824 100.079 16.2C99.4714 15.568 99.0034 14.82 98.6754 13.956C98.3554 13.092 98.1954 12.152 98.1954 11.136V0.719999H101.003V11.124C101.003 11.812 101.099 12.44 101.291 13.008C101.483 13.568 101.759 14.052 102.119 14.46C102.479 14.86 102.919 15.172 103.439 15.396C103.967 15.62 104.563 15.732 105.227 15.732ZM125.19 3.672C125.102 3.816 125.01 3.924 124.914 3.996C124.818 4.06 124.698 4.092 124.554 4.092C124.402 4.092 124.23 4.028 124.038 3.9C123.854 3.772 123.622 3.632 123.342 3.48C123.07 3.32 122.746 3.176 122.37 3.048C121.994 2.912 121.546 2.844 121.026 2.844C120.546 2.844 120.122 2.904 119.754 3.024C119.394 3.144 119.09 3.312 118.842 3.528C118.594 3.744 118.406 4 118.278 4.296C118.158 4.584 118.098 4.9 118.098 5.244C118.098 5.684 118.214 6.052 118.446 6.348C118.678 6.636 118.982 6.884 119.358 7.092C119.742 7.3 120.178 7.484 120.666 7.644C121.154 7.796 121.65 7.96 122.154 8.136C122.666 8.312 123.166 8.512 123.654 8.736C124.142 8.96 124.574 9.244 124.95 9.588C125.334 9.932 125.642 10.352 125.874 10.848C126.106 11.344 126.222 11.948 126.222 12.66C126.222 13.428 126.09 14.148 125.826 14.82C125.562 15.492 125.178 16.08 124.674 16.584C124.178 17.08 123.562 17.472 122.826 17.76C122.098 18.048 121.266 18.192 120.33 18.192C119.778 18.192 119.238 18.136 118.71 18.024C118.19 17.92 117.69 17.772 117.21 17.58C116.738 17.38 116.294 17.14 115.878 16.86C115.462 16.58 115.09 16.268 114.762 15.924L115.578 14.58C115.65 14.468 115.742 14.38 115.854 14.316C115.966 14.252 116.09 14.22 116.226 14.22C116.41 14.22 116.614 14.308 116.838 14.484C117.062 14.652 117.33 14.84 117.642 15.048C117.962 15.248 118.346 15.436 118.794 15.612C119.242 15.78 119.778 15.864 120.402 15.864C121.418 15.864 122.202 15.616 122.754 15.12C123.314 14.624 123.594 13.94 123.594 13.068C123.594 12.58 123.478 12.184 123.246 11.88C123.014 11.568 122.706 11.308 122.322 11.1C121.946 10.892 121.514 10.716 121.026 10.572C120.538 10.428 120.042 10.276 119.538 10.116C119.034 9.948 118.538 9.756 118.05 9.54C117.562 9.316 117.126 9.028 116.742 8.676C116.366 8.316 116.062 7.876 115.83 7.356C115.598 6.828 115.482 6.172 115.482 5.388C115.482 4.764 115.602 4.16 115.842 3.576C116.09 2.992 116.446 2.476 116.91 2.028C117.382 1.572 117.962 1.208 118.65 0.935999C119.338 0.663999 120.122 0.527999 121.002 0.527999C121.994 0.527999 122.902 0.683999 123.726 0.995999C124.558 1.308 125.274 1.752 125.874 2.328L125.19 3.672ZM141.147 3.06H135.759V18H132.963V3.06H127.563V0.719999H141.147V3.06ZM143.228 20.856C143.188 20.824 143.16 20.792 143.144 20.76C143.136 20.728 143.132 20.692 143.132 20.652C143.132 20.604 143.164 20.54 143.228 20.46C143.3 20.38 143.396 20.26 143.516 20.1C143.644 19.948 143.772 19.764 143.9 19.548C144.036 19.34 144.156 19.104 144.26 18.84C144.372 18.576 144.444 18.292 144.476 17.988C144.356 18.028 144.232 18.048 144.104 18.048C143.808 18.048 143.564 17.948 143.372 17.748C143.188 17.548 143.096 17.292 143.096 16.98C143.096 16.7 143.192 16.46 143.384 16.26C143.576 16.06 143.828 15.96 144.14 15.96C144.484 15.96 144.748 16.08 144.932 16.32C145.124 16.552 145.22 16.86 145.22 17.244C145.22 17.572 145.176 17.904 145.088 18.24C145.008 18.584 144.888 18.92 144.728 19.248C144.568 19.576 144.376 19.892 144.152 20.196C143.928 20.5 143.68 20.78 143.408 21.036L143.228 20.856ZM164.133 11.832L160.677 3.252C160.557 2.972 160.441 2.636 160.329 2.244C160.281 2.436 160.229 2.62 160.173 2.796C160.117 2.964 160.057 3.12 159.993 3.264L156.537 11.832H164.133ZM167.889 18H166.941C166.829 18 166.737 17.972 166.665 17.916C166.593 17.852 166.537 17.772 166.497 17.676L164.505 12.744H156.165L154.173 17.676C154.141 17.764 154.085 17.84 154.005 17.904C153.925 17.968 153.829 18 153.717 18H152.781L159.729 1.02H160.941L167.889 18ZM171.33 0.539999V18H170.178V0.539999H171.33ZM176.626 0.539999V18H175.474V0.539999H176.626ZM188.271 8.94C188.455 8.452 188.663 8.02 188.895 7.644C189.135 7.26 189.407 6.936 189.711 6.672C190.023 6.408 190.367 6.208 190.743 6.072C191.127 5.928 191.551 5.856 192.015 5.856C192.263 5.856 192.507 5.88 192.747 5.928C192.987 5.968 193.199 6.044 193.383 6.156L193.287 6.948C193.247 7.076 193.171 7.14 193.059 7.14C192.963 7.14 192.815 7.112 192.615 7.056C192.423 7 192.167 6.972 191.847 6.972C191.383 6.972 190.971 7.044 190.611 7.188C190.259 7.324 189.939 7.532 189.651 7.812C189.371 8.092 189.123 8.44 188.907 8.856C188.699 9.264 188.507 9.736 188.331 10.272V18H187.179V6.06H187.791C187.927 6.06 188.023 6.088 188.079 6.144C188.135 6.2 188.171 6.296 188.187 6.432L188.271 8.94ZM196.935 6.06V18H195.795V6.06H196.935ZM197.427 1.944C197.427 2.088 197.395 2.224 197.331 2.352C197.275 2.472 197.199 2.58 197.103 2.676C197.007 2.772 196.895 2.848 196.767 2.904C196.639 2.96 196.503 2.988 196.359 2.988C196.215 2.988 196.079 2.96 195.951 2.904C195.823 2.848 195.711 2.772 195.615 2.676C195.519 2.58 195.443 2.472 195.387 2.352C195.331 2.224 195.303 2.088 195.303 1.944C195.303 1.8 195.331 1.664 195.387 1.536C195.443 1.4 195.519 1.284 195.615 1.188C195.711 1.092 195.823 1.016 195.951 0.959999C196.079 0.903999 196.215 0.875999 196.359 0.875999C196.503 0.875999 196.639 0.903999 196.767 0.959999C196.895 1.016 197.007 1.092 197.103 1.188C197.199 1.284 197.275 1.4 197.331 1.536C197.395 1.664 197.427 1.8 197.427 1.944ZM204.907 12.72C205.419 12.72 205.875 12.648 206.275 12.504C206.675 12.352 207.011 12.144 207.283 11.88C207.555 11.616 207.763 11.3 207.907 10.932C208.051 10.564 208.123 10.156 208.123 9.708C208.123 9.26 208.047 8.852 207.895 8.484C207.751 8.108 207.539 7.788 207.259 7.524C206.987 7.26 206.651 7.056 206.251 6.912C205.859 6.768 205.411 6.696 204.907 6.696C204.403 6.696 203.951 6.768 203.551 6.912C203.159 7.056 202.823 7.26 202.543 7.524C202.271 7.788 202.063 8.108 201.919 8.484C201.775 8.852 201.703 9.26 201.703 9.708C201.703 10.156 201.775 10.564 201.919 10.932C202.063 11.3 202.271 11.616 202.543 11.88C202.823 12.144 203.159 12.352 203.551 12.504C203.951 12.648 204.403 12.72 204.907 12.72ZM209.371 18.804C209.371 18.428 209.271 18.128 209.071 17.904C208.879 17.672 208.619 17.492 208.291 17.364C207.963 17.236 207.583 17.148 207.151 17.1C206.727 17.044 206.279 17.004 205.807 16.98C205.343 16.956 204.875 16.932 204.403 16.908C203.931 16.884 203.487 16.836 203.071 16.764C202.767 16.884 202.487 17.024 202.231 17.184C201.975 17.336 201.755 17.512 201.571 17.712C201.387 17.912 201.243 18.128 201.139 18.36C201.035 18.6 200.983 18.856 200.983 19.128C200.983 19.48 201.071 19.804 201.247 20.1C201.431 20.404 201.695 20.664 202.039 20.88C202.391 21.104 202.819 21.28 203.323 21.408C203.827 21.536 204.407 21.6 205.063 21.6C205.671 21.6 206.235 21.532 206.755 21.396C207.283 21.26 207.739 21.068 208.123 20.82C208.515 20.572 208.819 20.276 209.035 19.932C209.259 19.588 209.371 19.212 209.371 18.804ZM210.619 6.588V6.984C210.619 7.16 210.507 7.268 210.283 7.308L208.459 7.44C208.683 7.744 208.855 8.084 208.975 8.46C209.095 8.836 209.155 9.244 209.155 9.684C209.155 10.26 209.051 10.784 208.843 11.256C208.643 11.72 208.355 12.12 207.979 12.456C207.611 12.784 207.163 13.04 206.635 13.224C206.115 13.408 205.539 13.5 204.907 13.5C204.227 13.5 203.607 13.396 203.047 13.188C202.711 13.38 202.443 13.608 202.243 13.872C202.051 14.128 201.955 14.384 201.955 14.64C201.955 14.984 202.075 15.248 202.315 15.432C202.563 15.616 202.883 15.752 203.275 15.84C203.675 15.92 204.127 15.972 204.631 15.996C205.143 16.02 205.663 16.048 206.191 16.08C206.719 16.104 207.235 16.152 207.739 16.224C208.251 16.296 208.703 16.424 209.095 16.608C209.495 16.784 209.815 17.036 210.055 17.364C210.303 17.684 210.427 18.112 210.427 18.648C210.427 19.144 210.303 19.62 210.055 20.076C209.807 20.532 209.447 20.936 208.975 21.288C208.511 21.64 207.947 21.92 207.283 22.128C206.619 22.344 205.875 22.452 205.051 22.452C204.211 22.452 203.475 22.364 202.843 22.188C202.211 22.02 201.679 21.788 201.247 21.492C200.823 21.204 200.503 20.868 200.287 20.484C200.071 20.1 199.963 19.692 199.963 19.26C199.963 18.628 200.171 18.088 200.587 17.64C201.003 17.184 201.571 16.828 202.291 16.572C201.891 16.436 201.567 16.24 201.319 15.984C201.079 15.72 200.959 15.364 200.959 14.916C200.959 14.748 200.991 14.572 201.055 14.388C201.119 14.204 201.215 14.024 201.343 13.848C201.471 13.664 201.627 13.492 201.811 13.332C201.995 13.172 202.203 13.028 202.435 12.9C201.867 12.572 201.423 12.136 201.103 11.592C200.791 11.048 200.635 10.412 200.635 9.684C200.635 9.108 200.735 8.588 200.935 8.124C201.143 7.652 201.435 7.248 201.811 6.912C202.187 6.576 202.635 6.316 203.155 6.132C203.683 5.948 204.267 5.856 204.907 5.856C205.435 5.856 205.919 5.92 206.359 6.048C206.807 6.176 207.207 6.356 207.559 6.588H210.619ZM214.417 8.076C214.969 7.404 215.597 6.868 216.301 6.468C217.013 6.068 217.809 5.868 218.689 5.868C219.345 5.868 219.921 5.972 220.417 6.18C220.921 6.388 221.337 6.688 221.665 7.08C221.993 7.472 222.241 7.944 222.409 8.496C222.577 9.048 222.661 9.672 222.661 10.368V18H221.509V10.368C221.509 9.248 221.253 8.372 220.741 7.74C220.229 7.1 219.449 6.78 218.401 6.78C217.625 6.78 216.897 6.98 216.217 7.38C215.545 7.772 214.945 8.32 214.417 9.024V18H213.265V0.539999H214.417V8.076ZM229.56 18.192C228.752 18.192 228.12 17.968 227.664 17.52C227.216 17.072 226.992 16.38 226.992 15.444V7.284H225.276C225.188 7.284 225.116 7.26 225.06 7.212C225.004 7.164 224.976 7.096 224.976 7.008V6.564L227.016 6.42L227.304 2.148C227.32 2.076 227.352 2.012 227.4 1.956C227.448 1.9 227.516 1.872 227.604 1.872H228.144V6.432H231.912V7.284H228.144V15.384C228.144 15.712 228.184 15.996 228.264 16.236C228.352 16.468 228.468 16.66 228.612 16.812C228.764 16.964 228.94 17.076 229.14 17.148C229.34 17.22 229.556 17.256 229.788 17.256C230.076 17.256 230.324 17.216 230.532 17.136C230.74 17.048 230.92 16.956 231.072 16.86C231.224 16.756 231.348 16.664 231.444 16.584C231.54 16.496 231.616 16.452 231.672 16.452C231.736 16.452 231.8 16.492 231.864 16.572L232.176 17.076C231.872 17.412 231.484 17.684 231.012 17.892C230.548 18.092 230.064 18.192 229.56 18.192ZM242.13 8.94C242.314 8.452 242.522 8.02 242.754 7.644C242.994 7.26 243.266 6.936 243.57 6.672C243.882 6.408 244.226 6.208 244.602 6.072C244.986 5.928 245.41 5.856 245.874 5.856C246.122 5.856 246.366 5.88 246.606 5.928C246.846 5.968 247.058 6.044 247.242 6.156L247.146 6.948C247.106 7.076 247.03 7.14 246.918 7.14C246.822 7.14 246.674 7.112 246.474 7.056C246.282 7 246.026 6.972 245.706 6.972C245.242 6.972 244.83 7.044 244.47 7.188C244.118 7.324 243.798 7.532 243.51 7.812C243.23 8.092 242.982 8.44 242.766 8.856C242.558 9.264 242.366 9.736 242.19 10.272V18H241.038V6.06H241.65C241.786 6.06 241.882 6.088 241.938 6.144C241.994 6.2 242.03 6.296 242.046 6.432L242.13 8.94ZM257.219 10.824C257.219 10.184 257.127 9.612 256.943 9.108C256.767 8.596 256.515 8.164 256.187 7.812C255.859 7.46 255.467 7.192 255.011 7.008C254.563 6.816 254.067 6.72 253.523 6.72C252.907 6.72 252.355 6.816 251.867 7.008C251.379 7.2 250.955 7.476 250.595 7.836C250.243 8.196 249.959 8.628 249.743 9.132C249.527 9.636 249.383 10.2 249.311 10.824H257.219ZM249.251 11.556V11.784C249.251 12.68 249.355 13.468 249.563 14.148C249.771 14.828 250.067 15.4 250.451 15.864C250.835 16.32 251.299 16.664 251.843 16.896C252.387 17.128 252.995 17.244 253.667 17.244C254.267 17.244 254.787 17.18 255.227 17.052C255.667 16.916 256.035 16.768 256.331 16.608C256.635 16.44 256.875 16.292 257.051 16.164C257.227 16.028 257.355 15.96 257.435 15.96C257.539 15.96 257.619 16 257.675 16.08L257.987 16.464C257.795 16.704 257.539 16.928 257.219 17.136C256.907 17.344 256.555 17.524 256.163 17.676C255.779 17.82 255.363 17.936 254.915 18.024C254.475 18.112 254.031 18.156 253.583 18.156C252.767 18.156 252.023 18.016 251.351 17.736C250.679 17.448 250.103 17.032 249.623 16.488C249.143 15.944 248.771 15.28 248.507 14.496C248.251 13.704 248.123 12.8 248.123 11.784C248.123 10.928 248.243 10.14 248.483 9.42C248.731 8.692 249.083 8.068 249.539 7.548C250.003 7.02 250.567 6.608 251.231 6.312C251.903 6.016 252.663 5.868 253.511 5.868C254.183 5.868 254.807 5.984 255.383 6.216C255.959 6.448 256.459 6.788 256.883 7.236C257.307 7.676 257.639 8.22 257.879 8.868C258.127 9.516 258.251 10.26 258.251 11.1C258.251 11.276 258.227 11.396 258.179 11.46C258.131 11.524 258.051 11.556 257.939 11.556H249.251ZM267.923 7.536C267.859 7.648 267.767 7.704 267.647 7.704C267.559 7.704 267.447 7.656 267.311 7.56C267.175 7.456 266.991 7.344 266.759 7.224C266.535 7.096 266.255 6.984 265.919 6.888C265.583 6.784 265.175 6.732 264.695 6.732C264.263 6.732 263.867 6.796 263.507 6.924C263.155 7.044 262.851 7.208 262.595 7.416C262.347 7.624 262.155 7.868 262.019 8.148C261.883 8.42 261.815 8.708 261.815 9.012C261.815 9.388 261.911 9.7 262.103 9.948C262.295 10.196 262.543 10.408 262.847 10.584C263.159 10.76 263.515 10.912 263.915 11.04C264.315 11.168 264.719 11.296 265.127 11.424C265.543 11.552 265.951 11.696 266.351 11.856C266.751 12.008 267.103 12.2 267.407 12.432C267.719 12.664 267.971 12.948 268.163 13.284C268.355 13.62 268.451 14.028 268.451 14.508C268.451 15.028 268.359 15.512 268.175 15.96C267.991 16.408 267.719 16.796 267.359 17.124C267.007 17.452 266.571 17.712 266.051 17.904C265.531 18.096 264.935 18.192 264.263 18.192C263.423 18.192 262.699 18.06 262.091 17.796C261.483 17.524 260.939 17.172 260.459 16.74L260.723 16.332C260.763 16.268 260.807 16.22 260.855 16.188C260.911 16.156 260.983 16.14 261.071 16.14C261.175 16.14 261.299 16.204 261.443 16.332C261.595 16.46 261.795 16.6 262.043 16.752C262.291 16.896 262.595 17.032 262.955 17.16C263.323 17.288 263.775 17.352 264.311 17.352C264.815 17.352 265.259 17.284 265.643 17.148C266.027 17.004 266.347 16.812 266.603 16.572C266.859 16.332 267.051 16.052 267.179 15.732C267.315 15.404 267.383 15.06 267.383 14.7C267.383 14.3 267.287 13.968 267.095 13.704C266.903 13.44 266.651 13.216 266.339 13.032C266.027 12.848 265.671 12.692 265.271 12.564C264.879 12.436 264.475 12.308 264.059 12.18C263.643 12.052 263.235 11.912 262.835 11.76C262.443 11.608 262.091 11.416 261.779 11.184C261.467 10.952 261.215 10.672 261.023 10.344C260.831 10.008 260.735 9.592 260.735 9.096C260.735 8.672 260.827 8.264 261.011 7.872C261.195 7.48 261.455 7.136 261.791 6.84C262.135 6.544 262.551 6.308 263.039 6.132C263.527 5.956 264.075 5.868 264.683 5.868C265.411 5.868 266.055 5.972 266.615 6.18C267.183 6.388 267.699 6.708 268.163 7.14L267.923 7.536ZM279.93 10.824C279.93 10.184 279.838 9.612 279.654 9.108C279.478 8.596 279.226 8.164 278.898 7.812C278.57 7.46 278.178 7.192 277.722 7.008C277.274 6.816 276.778 6.72 276.234 6.72C275.618 6.72 275.066 6.816 274.578 7.008C274.09 7.2 273.666 7.476 273.306 7.836C272.954 8.196 272.67 8.628 272.454 9.132C272.238 9.636 272.094 10.2 272.022 10.824H279.93ZM271.962 11.556V11.784C271.962 12.68 272.066 13.468 272.274 14.148C272.482 14.828 272.778 15.4 273.162 15.864C273.546 16.32 274.01 16.664 274.554 16.896C275.098 17.128 275.706 17.244 276.378 17.244C276.978 17.244 277.498 17.18 277.938 17.052C278.378 16.916 278.746 16.768 279.042 16.608C279.346 16.44 279.586 16.292 279.762 16.164C279.938 16.028 280.066 15.96 280.146 15.96C280.25 15.96 280.33 16 280.386 16.08L280.698 16.464C280.506 16.704 280.25 16.928 279.93 17.136C279.618 17.344 279.266 17.524 278.874 17.676C278.49 17.82 278.074 17.936 277.626 18.024C277.186 18.112 276.742 18.156 276.294 18.156C275.478 18.156 274.734 18.016 274.062 17.736C273.39 17.448 272.814 17.032 272.334 16.488C271.854 15.944 271.482 15.28 271.218 14.496C270.962 13.704 270.834 12.8 270.834 11.784C270.834 10.928 270.954 10.14 271.194 9.42C271.442 8.692 271.794 8.068 272.25 7.548C272.714 7.02 273.278 6.608 273.942 6.312C274.614 6.016 275.374 5.868 276.222 5.868C276.894 5.868 277.518 5.984 278.094 6.216C278.67 6.448 279.17 6.788 279.594 7.236C280.018 7.676 280.35 8.22 280.59 8.868C280.838 9.516 280.962 10.26 280.962 11.1C280.962 11.276 280.938 11.396 280.89 11.46C280.842 11.524 280.762 11.556 280.65 11.556H271.962ZM285.162 8.94C285.346 8.452 285.554 8.02 285.786 7.644C286.026 7.26 286.298 6.936 286.602 6.672C286.914 6.408 287.258 6.208 287.634 6.072C288.018 5.928 288.442 5.856 288.906 5.856C289.154 5.856 289.398 5.88 289.638 5.928C289.878 5.968 290.09 6.044 290.274 6.156L290.178 6.948C290.138 7.076 290.062 7.14 289.95 7.14C289.854 7.14 289.706 7.112 289.506 7.056C289.314 7 289.058 6.972 288.738 6.972C288.274 6.972 287.862 7.044 287.502 7.188C287.15 7.324 286.83 7.532 286.542 7.812C286.262 8.092 286.014 8.44 285.798 8.856C285.59 9.264 285.398 9.736 285.222 10.272V18H284.07V6.06H284.682C284.818 6.06 284.914 6.088 284.97 6.144C285.026 6.2 285.062 6.296 285.078 6.432L285.162 8.94ZM302.142 6.06L297.102 18H296.094L291.054 6.06H291.954C292.066 6.06 292.158 6.092 292.23 6.156C292.302 6.212 292.35 6.276 292.374 6.348L296.322 15.768C296.442 16.12 296.538 16.468 296.61 16.812C296.682 16.468 296.782 16.12 296.91 15.768L300.87 6.348C300.91 6.26 300.962 6.192 301.026 6.144C301.098 6.088 301.182 6.06 301.278 6.06H302.142ZM312.696 10.824C312.696 10.184 312.604 9.612 312.42 9.108C312.244 8.596 311.992 8.164 311.664 7.812C311.336 7.46 310.944 7.192 310.488 7.008C310.04 6.816 309.544 6.72 309 6.72C308.384 6.72 307.832 6.816 307.344 7.008C306.856 7.2 306.432 7.476 306.072 7.836C305.72 8.196 305.436 8.628 305.22 9.132C305.004 9.636 304.86 10.2 304.788 10.824H312.696ZM304.728 11.556V11.784C304.728 12.68 304.832 13.468 305.04 14.148C305.248 14.828 305.544 15.4 305.928 15.864C306.312 16.32 306.776 16.664 307.32 16.896C307.864 17.128 308.472 17.244 309.144 17.244C309.744 17.244 310.264 17.18 310.704 17.052C311.144 16.916 311.512 16.768 311.808 16.608C312.112 16.44 312.352 16.292 312.528 16.164C312.704 16.028 312.832 15.96 312.912 15.96C313.016 15.96 313.096 16 313.152 16.08L313.464 16.464C313.272 16.704 313.016 16.928 312.696 17.136C312.384 17.344 312.032 17.524 311.64 17.676C311.256 17.82 310.84 17.936 310.392 18.024C309.952 18.112 309.508 18.156 309.06 18.156C308.244 18.156 307.5 18.016 306.828 17.736C306.156 17.448 305.58 17.032 305.1 16.488C304.62 15.944 304.248 15.28 303.984 14.496C303.728 13.704 303.6 12.8 303.6 11.784C303.6 10.928 303.72 10.14 303.96 9.42C304.208 8.692 304.56 8.068 305.016 7.548C305.48 7.02 306.044 6.608 306.708 6.312C307.38 6.016 308.14 5.868 308.988 5.868C309.66 5.868 310.284 5.984 310.86 6.216C311.436 6.448 311.936 6.788 312.36 7.236C312.784 7.676 313.116 8.22 313.356 8.868C313.604 9.516 313.728 10.26 313.728 11.1C313.728 11.276 313.704 11.396 313.656 11.46C313.608 11.524 313.528 11.556 313.416 11.556H304.728ZM324.983 8.628C324.527 7.94 324.019 7.456 323.459 7.176C322.907 6.896 322.275 6.756 321.563 6.756C320.859 6.756 320.243 6.884 319.715 7.14C319.187 7.396 318.743 7.76 318.383 8.232C318.031 8.696 317.763 9.256 317.579 9.912C317.403 10.56 317.315 11.276 317.315 12.06C317.315 13.836 317.639 15.144 318.287 15.984C318.943 16.816 319.887 17.232 321.119 17.232C321.903 17.232 322.619 17.028 323.267 16.62C323.915 16.212 324.487 15.64 324.983 14.904V8.628ZM326.123 0.539999V18H325.499C325.291 18 325.171 17.896 325.139 17.688L325.019 15.804C324.491 16.524 323.875 17.096 323.171 17.52C322.467 17.944 321.675 18.156 320.795 18.156C319.323 18.156 318.179 17.648 317.363 16.632C316.547 15.616 316.139 14.092 316.139 12.06C316.139 11.188 316.251 10.376 316.475 9.624C316.707 8.864 317.043 8.208 317.483 7.656C317.923 7.096 318.463 6.656 319.103 6.336C319.751 6.016 320.495 5.856 321.335 5.856C322.143 5.856 322.843 6.004 323.435 6.3C324.027 6.596 324.543 7.036 324.983 7.62V0.539999H326.123Z" fill="#454545"/>
</svg>
