<svg width="104" height="31" viewBox="0 0 104 31" fill="none" xmlns="http://www.w3.org/2000/svg">
<path d="M17.78 18.92V30H11.02V18.92L0.46 0.86H6.42C7.00667 0.86 7.46667 0.999999 7.8 1.28C8.14667 1.54667 8.43333 1.89333 8.66 2.32L12.78 10.8C13.1267 11.4667 13.44 12.0933 13.72 12.68C14 13.2533 14.2467 13.82 14.46 14.38C14.66 13.8067 14.8867 13.2333 15.14 12.66C15.4067 12.0733 15.7133 11.4533 16.06 10.8L20.14 2.32C20.2333 2.14667 20.3467 1.97333 20.48 1.8C20.6133 1.62666 20.7667 1.47333 20.94 1.34C21.1267 1.19333 21.3333 1.08 21.56 0.999999C21.8 0.906666 22.06 0.86 22.34 0.86H28.34L17.78 18.92ZM42.7769 24.66C43.6835 24.66 44.4902 24.5133 45.1969 24.22C45.9169 23.9133 46.5235 23.48 47.0169 22.92C47.5102 22.36 47.8835 21.68 48.1369 20.88C48.4035 20.0667 48.5369 19.1467 48.5369 18.12V0.86H55.2969V18.12C55.2969 19.9067 55.0035 21.5467 54.4169 23.04C53.8435 24.5333 53.0169 25.82 51.9369 26.9C50.8569 27.98 49.5435 28.82 47.9969 29.42C46.4502 30.02 44.7102 30.32 42.7769 30.32C40.8302 30.32 39.0835 30.02 37.5369 29.42C35.9902 28.82 34.6769 27.98 33.5969 26.9C32.5169 25.82 31.6902 24.5333 31.1169 23.04C30.5435 21.5467 30.2569 19.9067 30.2569 18.12V0.86H37.0169V18.1C37.0169 19.1267 37.1435 20.0467 37.3969 20.86C37.6635 21.66 38.0435 22.3467 38.5369 22.92C39.0302 23.48 39.6302 23.9133 40.3369 24.22C41.0569 24.5133 41.8702 24.66 42.7769 24.66ZM76.6778 6.78C76.4778 7.1 76.2645 7.34 76.0378 7.5C75.8245 7.66 75.5445 7.74 75.1978 7.74C74.8911 7.74 74.5578 7.64667 74.1978 7.46C73.8511 7.26 73.4511 7.04 72.9978 6.8C72.5578 6.56 72.0511 6.34667 71.4778 6.16C70.9045 5.96 70.2511 5.86 69.5178 5.86C68.2511 5.86 67.3045 6.13333 66.6778 6.68C66.0645 7.21333 65.7578 7.94 65.7578 8.86C65.7578 9.44667 65.9445 9.93333 66.3178 10.32C66.6911 10.7067 67.1778 11.04 67.7778 11.32C68.3911 11.6 69.0845 11.86 69.8578 12.1C70.6445 12.3267 71.4445 12.5867 72.2578 12.88C73.0711 13.16 73.8645 13.4933 74.6378 13.88C75.4245 14.2667 76.1178 14.76 76.7178 15.36C77.3311 15.96 77.8245 16.6933 78.1978 17.56C78.5711 18.4133 78.7578 19.4467 78.7578 20.66C78.7578 22.0067 78.5245 23.2667 78.0578 24.44C77.5911 25.6133 76.9111 26.64 76.0178 27.52C75.1378 28.3867 74.0445 29.0733 72.7378 29.58C71.4445 30.0733 69.9711 30.32 68.3178 30.32C67.4111 30.32 66.4845 30.2267 65.5378 30.04C64.6045 29.8533 63.6978 29.5933 62.8178 29.26C61.9378 28.9133 61.1111 28.5067 60.3378 28.04C59.5645 27.5733 58.8911 27.0533 58.3178 26.48L60.3178 23.32C60.4778 23.0933 60.6845 22.9067 60.9378 22.76C61.2045 22.6 61.4911 22.52 61.7978 22.52C62.1978 22.52 62.5978 22.6467 62.9978 22.9C63.4111 23.1533 63.8711 23.4333 64.3778 23.74C64.8978 24.0467 65.4911 24.3267 66.1578 24.58C66.8245 24.8333 67.6111 24.96 68.5178 24.96C69.7445 24.96 70.6978 24.6933 71.3778 24.16C72.0578 23.6133 72.3978 22.7533 72.3978 21.58C72.3978 20.9 72.2111 20.3467 71.8378 19.92C71.4645 19.4933 70.9711 19.14 70.3578 18.86C69.7578 18.58 69.0711 18.3333 68.2978 18.12C67.5245 17.9067 66.7311 17.6733 65.9178 17.42C65.1045 17.1533 64.3111 16.8333 63.5378 16.46C62.7645 16.0733 62.0711 15.5733 61.4578 14.96C60.8578 14.3333 60.3711 13.56 59.9978 12.64C59.6245 11.7067 59.4378 10.56 59.4378 9.2C59.4378 8.10666 59.6578 7.04 60.0978 6C60.5378 4.96 61.1845 4.03333 62.0378 3.22C62.8911 2.40666 63.9378 1.76 65.1778 1.28C66.4178 0.786665 67.8378 0.539999 69.4378 0.539999C70.3311 0.539999 71.1978 0.613333 72.0378 0.76C72.8911 0.893333 73.6978 1.1 74.4578 1.38C75.2178 1.64667 75.9245 1.97333 76.5778 2.36C77.2445 2.73333 77.8378 3.16 78.3578 3.64L76.6778 6.78ZM103.666 6.22H95.4663V30H88.7063V6.22H80.5063V0.86H103.666V6.22Z" fill="#575A60"/>
</svg>
