<svg width="19" height="124" viewBox="0 0 19 124" fill="none" xmlns="http://www.w3.org/2000/svg">
<path d="M3.084 114.248C3.22 114.32 3.288 114.424 3.288 114.56C3.288 114.664 3.216 114.8 3.072 114.968C2.92 115.128 2.756 115.348 2.58 115.628C2.396 115.908 2.228 116.26 2.076 116.684C1.924 117.1 1.848 117.616 1.848 118.232C1.848 118.848 1.936 119.392 2.112 119.864C2.288 120.328 2.528 120.72 2.832 121.04C3.136 121.352 3.488 121.592 3.888 121.76C4.288 121.92 4.708 122 5.148 122C5.724 122 6.2 121.88 6.576 121.64C6.952 121.392 7.272 121.068 7.536 120.668C7.8 120.268 8.024 119.816 8.208 119.312C8.384 118.8 8.56 118.276 8.736 117.74C8.912 117.204 9.108 116.684 9.324 116.18C9.532 115.668 9.796 115.212 10.116 114.812C10.436 114.412 10.832 114.092 11.304 113.852C11.768 113.604 12.348 113.48 13.044 113.48C13.756 113.48 14.428 113.604 15.06 113.852C15.684 114.092 16.228 114.444 16.692 114.908C17.156 115.372 17.524 115.94 17.796 116.612C18.06 117.284 18.192 118.052 18.192 118.916C18.192 120.036 17.996 121 17.604 121.808C17.204 122.616 16.66 123.324 15.972 123.932L15.444 123.596C15.324 123.5 15.264 123.388 15.264 123.26C15.264 123.188 15.312 123.096 15.408 122.984C15.504 122.872 15.624 122.736 15.768 122.576C15.904 122.416 16.056 122.224 16.224 122C16.384 121.776 16.536 121.516 16.68 121.22C16.816 120.924 16.932 120.584 17.028 120.2C17.124 119.816 17.172 119.38 17.172 118.892C17.172 118.22 17.072 117.62 16.872 117.092C16.664 116.564 16.384 116.12 16.032 115.76C15.68 115.392 15.264 115.112 14.784 114.92C14.296 114.728 13.776 114.632 13.224 114.632C12.624 114.632 12.132 114.756 11.748 115.004C11.356 115.244 11.032 115.564 10.776 115.964C10.512 116.364 10.292 116.82 10.116 117.332C9.94 117.836 9.768 118.356 9.6 118.892C9.432 119.428 9.244 119.952 9.036 120.464C8.828 120.968 8.564 121.42 8.244 121.82C7.916 122.22 7.512 122.544 7.032 122.792C6.544 123.032 5.936 123.152 5.208 123.152C4.64 123.152 4.092 123.044 3.564 122.828C3.036 122.612 2.572 122.296 2.172 121.88C1.764 121.464 1.44 120.952 1.2 120.344C0.951998 119.728 0.827998 119.028 0.827998 118.244C0.827998 117.364 0.967999 116.576 1.248 115.88C1.528 115.176 1.956 114.536 2.532 113.96L3.084 114.248ZM7.656 102.277C7.696 102.317 7.732 102.357 7.764 102.397C7.788 102.429 7.8 102.477 7.8 102.541C7.8 102.621 7.748 102.729 7.644 102.865C7.532 103.001 7.412 103.185 7.284 103.417C7.156 103.649 7.04 103.941 6.936 104.293C6.824 104.637 6.768 105.057 6.768 105.553C6.768 106.241 6.892 106.853 7.14 107.389C7.38 107.917 7.728 108.365 8.184 108.733C8.64 109.101 9.192 109.381 9.84 109.573C10.488 109.757 11.216 109.849 12.024 109.849C12.864 109.849 13.608 109.753 14.256 109.561C14.904 109.361 15.452 109.081 15.9 108.721C16.34 108.361 16.676 107.925 16.908 107.413C17.14 106.901 17.256 106.333 17.256 105.709C17.256 105.133 17.188 104.653 17.052 104.269C16.916 103.877 16.768 103.557 16.608 103.309C16.448 103.053 16.3 102.853 16.164 102.709C16.028 102.565 15.96 102.445 15.96 102.349C15.96 102.253 16 102.173 16.08 102.109L16.464 101.809C16.704 101.993 16.928 102.225 17.136 102.505C17.344 102.785 17.524 103.101 17.676 103.453C17.828 103.805 17.944 104.189 18.024 104.605C18.112 105.013 18.156 105.441 18.156 105.889C18.156 106.649 18.02 107.345 17.748 107.977C17.468 108.601 17.068 109.141 16.548 109.597C16.02 110.045 15.376 110.397 14.616 110.653C13.856 110.901 12.992 111.025 12.024 111.025C11.112 111.025 10.28 110.905 9.528 110.665C8.776 110.425 8.128 110.073 7.584 109.609C7.04 109.145 6.62 108.581 6.324 107.917C6.02 107.245 5.868 106.477 5.868 105.613C5.868 104.837 5.992 104.149 6.24 103.549C6.488 102.949 6.824 102.425 7.248 101.977L7.656 102.277ZM8.94 97.8931C8.452 97.7091 8.02 97.5011 7.644 97.2691C7.26 97.0291 6.936 96.7571 6.672 96.4531C6.408 96.1411 6.208 95.7971 6.072 95.4211C5.928 95.0371 5.856 94.6131 5.856 94.1491C5.856 93.9011 5.88 93.6571 5.928 93.4171C5.968 93.1771 6.044 92.9651 6.156 92.7811L6.948 92.8771C7.076 92.9171 7.14 92.9931 7.14 93.1051C7.14 93.2011 7.112 93.3491 7.056 93.5491C7 93.7411 6.972 93.9971 6.972 94.3171C6.972 94.7811 7.044 95.1931 7.188 95.5531C7.324 95.9051 7.532 96.2251 7.812 96.5131C8.092 96.7931 8.44 97.0411 8.856 97.2571C9.264 97.4651 9.736 97.6571 10.272 97.8331L18 97.8331L18 98.9851L6.06 98.9851L6.06 98.3731C6.06 98.2371 6.088 98.1411 6.144 98.0851C6.2 98.0291 6.296 97.9931 6.432 97.9771L8.94 97.8931ZM5.868 86.4524C5.868 85.5964 6.016 84.8324 6.312 84.1604C6.6 83.4804 7.012 82.9084 7.548 82.4444C8.084 81.9804 8.732 81.6284 9.492 81.3884C10.244 81.1404 11.088 81.0164 12.024 81.0164C12.96 81.0164 13.804 81.1404 14.556 81.3884C15.308 81.6284 15.952 81.9804 16.488 82.4444C17.024 82.9084 17.436 83.4804 17.724 84.1604C18.012 84.8324 18.156 85.5964 18.156 86.4524C18.156 87.3084 18.012 88.0764 17.724 88.7564C17.436 89.4284 17.024 90.0004 16.488 90.4724C15.952 90.9364 15.308 91.2924 14.556 91.5404C13.804 91.7804 12.96 91.9004 12.024 91.9004C11.088 91.9004 10.244 91.7804 9.492 91.5404C8.732 91.2924 8.084 90.9364 7.548 90.4724C7.012 90.0004 6.6 89.4284 6.312 88.7564C6.016 88.0764 5.868 87.3084 5.868 86.4524ZM17.256 86.4524C17.256 85.7404 17.136 85.1204 16.896 84.5924C16.648 84.0564 16.296 83.6124 15.84 83.2604C15.384 82.9004 14.836 82.6324 14.196 82.4564C13.548 82.2804 12.824 82.1924 12.024 82.1924C11.232 82.1924 10.512 82.2804 9.864 82.4564C9.216 82.6324 8.664 82.9004 8.208 83.2604C7.744 83.6124 7.388 84.0564 7.14 84.5924C6.892 85.1204 6.768 85.7404 6.768 86.4524C6.768 87.1644 6.892 87.7884 7.14 88.3244C7.388 88.8524 7.744 89.2964 8.208 89.6564C8.664 90.0084 9.216 90.2764 9.864 90.4604C10.512 90.6364 11.232 90.7244 12.024 90.7244C12.824 90.7244 13.548 90.6364 14.196 90.4604C14.836 90.2764 15.384 90.0084 15.84 89.6564C16.296 89.2964 16.648 88.8524 16.896 88.3244C17.136 87.7884 17.256 87.1644 17.256 86.4524ZM0.539997 76.5376L18 76.5376L18 77.6896L0.539997 77.6896L0.539997 76.5376ZM0.539997 71.2407L18 71.2407L18 72.3927L0.539997 72.3927L0.539997 71.2407ZM8.628 52.5402C7.94 52.9962 7.456 53.5042 7.176 54.0642C6.896 54.6162 6.756 55.2482 6.756 55.9602C6.756 56.6642 6.884 57.2802 7.14 57.8082C7.396 58.3362 7.76 58.7802 8.232 59.1402C8.696 59.4922 9.256 59.7602 9.912 59.9442C10.56 60.1202 11.276 60.2082 12.06 60.2082C13.836 60.2082 15.144 59.8842 15.984 59.2362C16.816 58.5802 17.232 57.6362 17.232 56.4042C17.232 55.6202 17.028 54.9042 16.62 54.2562C16.212 53.6082 15.64 53.0362 14.904 52.5402L8.628 52.5402ZM0.539996 51.4002L18 51.4002L18 52.0242C18 52.2322 17.896 52.3522 17.688 52.3842L15.804 52.5042C16.524 53.0322 17.096 53.6482 17.52 54.3522C17.944 55.0562 18.156 55.8482 18.156 56.7282C18.156 58.2002 17.648 59.3442 16.632 60.1602C15.616 60.9762 14.092 61.3842 12.06 61.3842C11.188 61.3842 10.376 61.2722 9.624 61.0482C8.864 60.8162 8.208 60.4802 7.656 60.0402C7.096 59.6002 6.656 59.0602 6.336 58.4202C6.016 57.7722 5.856 57.0282 5.856 56.1882C5.856 55.3802 6.004 54.6802 6.3 54.0882C6.596 53.4962 7.036 52.9802 7.62 52.5402L0.539996 52.5402L0.539996 51.4002ZM5.868 42.7415C5.868 41.8855 6.016 41.1215 6.312 40.4495C6.6 39.7695 7.012 39.1975 7.548 38.7335C8.084 38.2695 8.732 37.9175 9.492 37.6775C10.244 37.4295 11.088 37.3055 12.024 37.3055C12.96 37.3055 13.804 37.4295 14.556 37.6775C15.308 37.9175 15.952 38.2695 16.488 38.7335C17.024 39.1975 17.436 39.7695 17.724 40.4495C18.012 41.1215 18.156 41.8855 18.156 42.7415C18.156 43.5975 18.012 44.3655 17.724 45.0455C17.436 45.7175 17.024 46.2895 16.488 46.7615C15.952 47.2255 15.308 47.5815 14.556 47.8295C13.804 48.0695 12.96 48.1895 12.024 48.1895C11.088 48.1895 10.244 48.0695 9.492 47.8295C8.732 47.5815 8.084 47.2255 7.548 46.7615C7.012 46.2895 6.6 45.7175 6.312 45.0455C6.016 44.3655 5.868 43.5975 5.868 42.7415ZM17.256 42.7415C17.256 42.0295 17.136 41.4095 16.896 40.8815C16.648 40.3455 16.296 39.9015 15.84 39.5495C15.384 39.1895 14.836 38.9215 14.196 38.7455C13.548 38.5695 12.824 38.4815 12.024 38.4815C11.232 38.4815 10.512 38.5695 9.864 38.7455C9.216 38.9215 8.664 39.1895 8.208 39.5495C7.744 39.9015 7.388 40.3455 7.14 40.8815C6.892 41.4095 6.768 42.0295 6.768 42.7415C6.768 43.4535 6.892 44.0775 7.14 44.6135C7.388 45.1415 7.744 45.5855 8.208 45.9455C8.664 46.2975 9.216 46.5655 9.864 46.7495C10.512 46.9255 11.232 47.0135 12.024 47.0135C12.824 47.0135 13.548 46.9255 14.196 46.7495C14.836 46.5655 15.384 46.2975 15.84 45.9455C16.296 45.5855 16.648 45.1415 16.896 44.6135C17.136 44.0775 17.256 43.4535 17.256 42.7415ZM6.05999 18.4473L18 22.4313L18 23.2833C18 23.4193 17.916 23.5113 17.748 23.5593L8.052 26.8233C7.932 26.8633 7.812 26.8993 7.692 26.9313C7.572 26.9633 7.452 26.9913 7.332 27.0153C7.572 27.0553 7.812 27.1153 8.052 27.1953L17.748 30.5073C17.916 30.5553 18 30.6513 18 30.7953L18 31.6113L6.06 35.5953L6.06 34.7313C6.06 34.6193 6.092 34.5273 6.156 34.4553C6.212 34.3833 6.276 34.3353 6.348 34.3113L15.768 31.2993C15.952 31.2513 16.132 31.2073 16.308 31.1673C16.476 31.1273 16.644 31.0953 16.812 31.0713C16.644 31.0233 16.476 30.9753 16.308 30.9273C16.132 30.8793 15.952 30.8233 15.768 30.7593L6.264 27.5673C6.088 27.5113 6 27.3993 6 27.2313L6 26.7633C6 26.5873 6.088 26.4713 6.264 26.4153L15.768 23.2473C15.952 23.1913 16.128 23.1393 16.296 23.0913C16.464 23.0433 16.632 22.9993 16.8 22.9593C16.632 22.9273 16.464 22.8953 16.296 22.8633C16.128 22.8233 15.952 22.7753 15.768 22.7193L6.34799 19.6833C6.25999 19.6513 6.19199 19.5993 6.14399 19.5273C6.08799 19.4553 6.05999 19.3713 6.05999 19.2753L6.05999 18.4473ZM18 15.8757L6.05999 15.8757L6.05999 15.2397C6.05999 15.0397 6.15999 14.9237 6.35999 14.8917L8.08799 14.7837C7.42399 14.3197 6.88799 13.7877 6.47999 13.1877C6.07199 12.5877 5.86799 11.9117 5.86799 11.1597C5.86799 10.2877 6.11999 9.59175 6.62399 9.07175C7.12799 8.54375 7.82799 8.18775 8.72399 8.00375C8.23599 7.85975 7.81199 7.65975 7.45199 7.40375C7.09199 7.13975 6.79599 6.83975 6.56399 6.50375C6.32399 6.16775 6.14799 5.80375 6.03599 5.41175C5.92399 5.01175 5.86799 4.60375 5.86799 4.18775C5.86799 3.59575 5.96799 3.06375 6.16799 2.59175C6.35999 2.11975 6.64799 1.71975 7.03199 1.39175C7.41599 1.06375 7.88799 0.811749 8.44799 0.635749C9.00799 0.459749 9.64799 0.371748 10.368 0.371748L18 0.371748L18 1.51175L10.368 1.51175C9.19999 1.51175 8.31199 1.76375 7.70399 2.26775C7.08799 2.77175 6.77999 3.49175 6.77999 4.42775C6.77999 4.84375 6.85599 5.24375 7.00799 5.62775C7.15999 6.00375 7.38799 6.33975 7.69199 6.63575C7.98799 6.92375 8.35999 7.15575 8.80799 7.33175C9.25599 7.49975 9.77599 7.58375 10.368 7.58375L18 7.58375L18 8.73575L10.368 8.73575C9.20799 8.73575 8.31999 8.96775 7.70399 9.43175C7.08799 9.88775 6.77999 10.5597 6.77999 11.4477C6.77999 12.0957 6.97199 12.6957 7.35599 13.2477C7.73999 13.7997 8.27199 14.2917 8.952 14.7237L18 14.7237L18 15.8757Z" fill="#454545" fill-opacity="0.41"/>
</svg>
