<svg width="825" height="88" viewBox="0 0 825 88" fill="none" xmlns="http://www.w3.org/2000/svg">
<path d="M52.232 3.856H26.984V70H25.832V3.856H0.392V2.8H52.232V3.856ZM62.8903 32.752C63.9783 31.152 65.1943 29.696 66.5383 28.384C67.9143 27.072 69.3863 25.968 70.9543 25.072C72.5223 24.144 74.1703 23.44 75.8983 22.96C77.6263 22.448 79.4023 22.192 81.2263 22.192C86.4423 22.192 90.3303 23.744 92.8903 26.848C95.4823 29.952 96.7783 34.288 96.7783 39.856V70H95.6263V39.856C95.6263 37.232 95.3383 34.896 94.7623 32.848C94.1863 30.768 93.2903 29.008 92.0743 27.568C90.8903 26.128 89.3863 25.04 87.5623 24.304C85.7703 23.536 83.6583 23.152 81.2263 23.152C77.5463 23.152 74.1543 24.128 71.0503 26.08C67.9463 28.032 65.2263 30.736 62.8903 34.192V70H61.7383V0.879997H62.8903V32.752ZM148.325 42.064C148.325 39.024 147.893 36.336 147.029 34C146.165 31.632 144.965 29.648 143.429 28.048C141.925 26.448 140.149 25.232 138.101 24.4C136.053 23.568 133.861 23.152 131.525 23.152C128.709 23.152 126.165 23.6 123.893 24.496C121.653 25.392 119.717 26.672 118.085 28.336C116.453 30 115.141 32 114.149 34.336C113.189 36.64 112.565 39.216 112.277 42.064H148.325ZM148.037 64.432C147.493 65.104 146.677 65.808 145.589 66.544C144.533 67.248 143.269 67.904 141.797 68.512C140.357 69.12 138.773 69.616 137.045 70C135.317 70.384 133.541 70.576 131.717 70.576C128.485 70.576 125.589 70.016 123.029 68.896C120.469 67.744 118.293 66.096 116.501 63.952C114.741 61.808 113.381 59.184 112.421 56.08C111.461 52.976 110.981 49.456 110.981 45.52C110.981 42.064 111.445 38.912 112.373 36.064C113.301 33.184 114.645 30.72 116.405 28.672C118.165 26.624 120.309 25.04 122.837 23.92C125.397 22.768 128.293 22.192 131.525 22.192C133.989 22.192 136.309 22.64 138.485 23.536C140.661 24.4 142.549 25.696 144.149 27.424C145.781 29.152 147.061 31.28 147.989 33.808C148.917 36.304 149.381 39.184 149.381 42.448C149.381 42.608 149.317 42.736 149.189 42.832C149.093 42.896 148.965 42.928 148.805 42.928H112.229C112.197 43.376 112.165 43.808 112.133 44.224C112.133 44.64 112.133 45.072 112.133 45.52C112.133 49.424 112.597 52.88 113.525 55.888C114.453 58.864 115.765 61.376 117.461 63.424C119.189 65.44 121.253 66.976 123.653 68.032C126.085 69.088 128.773 69.616 131.717 69.616C134.341 69.616 136.613 69.328 138.533 68.752C140.453 68.176 142.053 67.536 143.333 66.832C144.613 66.128 145.589 65.488 146.261 64.912C146.933 64.336 147.333 64.048 147.461 64.048C147.589 64.048 147.717 64.112 147.845 64.24L148.037 64.432ZM191.984 60.64C194.032 63.936 196.336 66.256 198.896 67.6C201.456 68.944 204.368 69.616 207.632 69.616C210.96 69.616 213.84 69.024 216.272 67.84C218.736 66.624 220.768 64.944 222.368 62.8C223.968 60.624 225.152 58.048 225.92 55.072C226.72 52.096 227.12 48.816 227.12 45.232C227.12 38.032 225.616 32.56 222.608 28.816C219.632 25.04 215.44 23.152 210.032 23.152C208.048 23.152 206.192 23.408 204.464 23.92C202.736 24.432 201.12 25.168 199.616 26.128C198.144 27.056 196.768 28.208 195.488 29.584C194.208 30.928 193.04 32.448 191.984 34.144V60.64ZM191.984 32.608C194.064 29.408 196.576 26.88 199.52 25.024C202.496 23.136 206 22.192 210.032 22.192C212.912 22.192 215.488 22.704 217.76 23.728C220.032 24.72 221.936 26.192 223.472 28.144C225.04 30.096 226.224 32.496 227.024 35.344C227.856 38.192 228.272 41.456 228.272 45.136C228.272 48.944 227.824 52.416 226.928 55.552C226.032 58.688 224.72 61.376 222.992 63.616C221.264 65.824 219.12 67.536 216.56 68.752C214 69.968 211.04 70.576 207.68 70.576C204.192 70.576 201.152 69.888 198.56 68.512C195.968 67.136 193.776 65.008 191.984 62.128L191.792 69.328C191.792 69.488 191.76 69.648 191.696 69.808C191.632 69.936 191.472 70 191.216 70H190.832V0.879997H191.984V32.608ZM277.419 42.064C277.419 39.024 276.987 36.336 276.123 34C275.259 31.632 274.059 29.648 272.523 28.048C271.019 26.448 269.243 25.232 267.195 24.4C265.147 23.568 262.955 23.152 260.619 23.152C257.803 23.152 255.259 23.6 252.987 24.496C250.747 25.392 248.811 26.672 247.179 28.336C245.547 30 244.235 32 243.243 34.336C242.283 36.64 241.659 39.216 241.371 42.064H277.419ZM277.131 64.432C276.587 65.104 275.771 65.808 274.683 66.544C273.627 67.248 272.363 67.904 270.891 68.512C269.451 69.12 267.867 69.616 266.139 70C264.411 70.384 262.635 70.576 260.811 70.576C257.579 70.576 254.683 70.016 252.123 68.896C249.563 67.744 247.387 66.096 245.595 63.952C243.835 61.808 242.475 59.184 241.515 56.08C240.555 52.976 240.075 49.456 240.075 45.52C240.075 42.064 240.539 38.912 241.467 36.064C242.395 33.184 243.739 30.72 245.499 28.672C247.259 26.624 249.403 25.04 251.931 23.92C254.491 22.768 257.387 22.192 260.619 22.192C263.083 22.192 265.403 22.64 267.579 23.536C269.755 24.4 271.643 25.696 273.243 27.424C274.875 29.152 276.155 31.28 277.083 33.808C278.011 36.304 278.475 39.184 278.475 42.448C278.475 42.608 278.411 42.736 278.283 42.832C278.187 42.896 278.059 42.928 277.899 42.928H241.323C241.291 43.376 241.259 43.808 241.227 44.224C241.227 44.64 241.227 45.072 241.227 45.52C241.227 49.424 241.691 52.88 242.619 55.888C243.547 58.864 244.859 61.376 246.555 63.424C248.283 65.44 250.347 66.976 252.747 68.032C255.179 69.088 257.867 69.616 260.811 69.616C263.435 69.616 265.707 69.328 267.627 68.752C269.547 68.176 271.147 67.536 272.427 66.832C273.707 66.128 274.683 65.488 275.355 64.912C276.027 64.336 276.427 64.048 276.555 64.048C276.683 64.048 276.811 64.112 276.939 64.24L277.131 64.432ZM316.983 27.088C316.887 27.28 316.727 27.376 316.503 27.376C316.247 27.376 315.863 27.168 315.351 26.752C314.871 26.304 314.151 25.824 313.191 25.312C312.263 24.768 311.079 24.272 309.639 23.824C308.199 23.376 306.423 23.152 304.311 23.152C302.327 23.152 300.503 23.456 298.839 24.064C297.207 24.672 295.799 25.488 294.615 26.512C293.431 27.504 292.503 28.656 291.831 29.968C291.191 31.28 290.871 32.656 290.871 34.096C290.871 35.792 291.271 37.216 292.071 38.368C292.871 39.488 293.911 40.448 295.191 41.248C296.503 42.016 297.991 42.672 299.655 43.216C301.319 43.76 303.015 44.304 304.743 44.848C306.471 45.36 308.167 45.92 309.831 46.528C311.495 47.104 312.967 47.84 314.247 48.736C315.559 49.632 316.615 50.736 317.415 52.048C318.215 53.328 318.615 54.928 318.615 56.848C318.615 58.768 318.263 60.576 317.559 62.272C316.887 63.968 315.895 65.44 314.583 66.688C313.271 67.936 311.655 68.928 309.735 69.664C307.847 70.4 305.687 70.768 303.255 70.768C301.559 70.768 300.039 70.624 298.695 70.336C297.351 70.08 296.119 69.712 294.999 69.232C293.879 68.752 292.823 68.16 291.831 67.456C290.839 66.752 289.863 65.968 288.903 65.104L289.191 64.816C289.287 64.72 289.367 64.656 289.431 64.624C289.495 64.56 289.607 64.528 289.767 64.528C290.023 64.528 290.439 64.8 291.015 65.344C291.591 65.888 292.391 66.496 293.415 67.168C294.471 67.84 295.799 68.448 297.399 68.992C298.999 69.536 300.951 69.808 303.255 69.808C305.559 69.808 307.591 69.472 309.351 68.8C311.143 68.128 312.647 67.216 313.863 66.064C315.079 64.88 315.991 63.52 316.599 61.984C317.239 60.416 317.559 58.736 317.559 56.944C317.559 55.12 317.159 53.616 316.359 52.432C315.559 51.216 314.503 50.192 313.191 49.36C311.911 48.528 310.439 47.84 308.775 47.296C307.111 46.72 305.415 46.176 303.687 45.664C301.959 45.152 300.263 44.608 298.599 44.032C296.935 43.456 295.447 42.752 294.135 41.92C292.855 41.056 291.815 40 291.015 38.752C290.215 37.504 289.815 35.952 289.815 34.096C289.815 32.528 290.167 31.04 290.871 29.632C291.575 28.192 292.567 26.928 293.847 25.84C295.127 24.72 296.647 23.84 298.407 23.2C300.199 22.528 302.167 22.192 304.311 22.192C306.967 22.192 309.303 22.56 311.319 23.296C313.335 24 315.287 25.168 317.175 26.8L316.983 27.088ZM344.242 70.768C341.49 70.768 339.33 70.016 337.762 68.512C336.194 67.008 335.41 64.528 335.41 61.072V25.936H327.634C327.186 25.936 326.962 25.776 326.962 25.456V25.168L335.41 24.976L335.794 6.064C335.794 5.904 335.826 5.76 335.89 5.632C335.986 5.472 336.114 5.392 336.273 5.392H336.562V24.976H352.594V25.936H336.562V61.072C336.562 62.672 336.754 64.032 337.138 65.152C337.554 66.24 338.114 67.136 338.818 67.84C339.522 68.512 340.338 69.008 341.266 69.328C342.194 69.648 343.186 69.808 344.242 69.808C345.586 69.808 346.754 69.6 347.746 69.184C348.77 68.768 349.634 68.32 350.338 67.84C351.042 67.36 351.602 66.912 352.018 66.496C352.466 66.08 352.786 65.872 352.978 65.872C353.106 65.872 353.234 65.936 353.362 66.064L353.554 66.256C353.074 66.896 352.482 67.504 351.778 68.08C351.106 68.624 350.354 69.104 349.522 69.52C348.722 69.904 347.858 70.208 346.93 70.432C346.034 70.656 345.138 70.768 344.242 70.768ZM449.342 22.96L433.214 70H432.734C432.446 70 432.254 69.84 432.158 69.52L417.086 25.744C416.894 25.232 416.75 24.768 416.654 24.352C416.558 24.768 416.414 25.232 416.222 25.744L400.958 69.52C400.862 69.84 400.702 70 400.478 70H399.998L383.87 22.96H384.542C384.798 22.96 384.99 23.04 385.118 23.2C385.246 23.328 385.342 23.472 385.406 23.632L399.806 66.736C399.934 67.088 400.046 67.44 400.142 67.792C400.27 68.112 400.366 68.448 400.43 68.8C400.494 68.448 400.574 68.112 400.67 67.792C400.798 67.44 400.926 67.088 401.054 66.736L416.03 23.152C416.126 22.832 416.286 22.672 416.51 22.672H416.798C417.022 22.672 417.182 22.832 417.278 23.152L432.158 66.736C432.414 67.44 432.606 68.08 432.734 68.656C432.83 68.336 432.926 68.032 433.022 67.744C433.15 67.424 433.278 67.088 433.406 66.736L447.806 23.632C448.03 23.184 448.318 22.96 448.67 22.96H449.342ZM487.998 45.904C477.918 46.224 470.414 47.488 465.486 49.696C460.59 51.872 458.142 54.96 458.142 58.96C458.142 60.848 458.446 62.48 459.054 63.856C459.694 65.2 460.526 66.32 461.55 67.216C462.574 68.08 463.742 68.736 465.054 69.184C466.366 69.6 467.71 69.808 469.086 69.808C471.294 69.808 473.294 69.552 475.086 69.04C476.878 68.528 478.526 67.84 480.03 66.976C481.566 66.112 482.974 65.12 484.254 64C485.566 62.848 486.814 61.648 487.998 60.4V45.904ZM459.486 29.68C461.79 27.248 464.174 25.392 466.638 24.112C469.102 22.832 471.966 22.192 475.23 22.192C477.63 22.192 479.694 22.576 481.422 23.344C483.182 24.112 484.638 25.216 485.79 26.656C486.942 28.096 487.79 29.856 488.334 31.936C488.878 33.984 489.15 36.304 489.15 38.896V70H488.958C488.51 70 488.286 69.744 488.286 69.232L487.998 61.552C486.654 62.96 485.31 64.24 483.966 65.392C482.622 66.512 481.198 67.472 479.694 68.272C478.19 69.072 476.574 69.68 474.846 70.096C473.118 70.544 471.198 70.768 469.086 70.768C467.678 70.768 466.254 70.544 464.814 70.096C463.374 69.68 462.078 69.008 460.926 68.08C459.774 67.12 458.83 65.904 458.094 64.432C457.358 62.928 456.99 61.104 456.99 58.96C456.99 56.848 457.614 54.96 458.862 53.296C460.11 51.6 461.998 50.16 464.526 48.976C467.086 47.792 470.302 46.864 474.174 46.192C478.078 45.488 482.686 45.072 487.998 44.944V38.896C487.998 36.432 487.726 34.224 487.182 32.272C486.638 30.32 485.838 28.672 484.782 27.328C483.726 25.984 482.398 24.96 480.798 24.256C479.198 23.52 477.342 23.152 475.23 23.152C473.566 23.152 472.062 23.328 470.718 23.68C469.374 24.032 468.174 24.464 467.118 24.976C466.062 25.488 465.134 26.048 464.334 26.656C463.566 27.264 462.894 27.824 462.318 28.336C461.742 28.848 461.278 29.28 460.926 29.632C460.574 29.984 460.318 30.16 460.158 30.16C460.03 30.16 459.87 30.064 459.678 29.872L459.486 29.68ZM541.309 22.96L513.565 86.224C513.469 86.48 513.325 86.72 513.133 86.944C512.941 87.168 512.701 87.28 512.413 87.28H511.741L519.805 69.184L499.453 22.96H500.125C500.381 22.96 500.589 23.04 500.749 23.2C500.909 23.328 501.021 23.472 501.085 23.632L519.805 66.352C520.061 66.896 520.269 67.488 520.429 68.128C520.493 67.84 520.573 67.552 520.669 67.264C520.797 66.944 520.925 66.64 521.052 66.352L539.773 23.632C539.997 23.184 540.285 22.96 540.637 22.96H541.309ZM589.117 70.768C586.365 70.768 584.205 70.016 582.637 68.512C581.069 67.008 580.285 64.528 580.285 61.072V25.936H572.509C572.061 25.936 571.837 25.776 571.837 25.456V25.168L580.285 24.976L580.669 6.064C580.669 5.904 580.701 5.76 580.765 5.632C580.861 5.472 580.989 5.392 581.148 5.392H581.437V24.976H597.469V25.936H581.437V61.072C581.437 62.672 581.629 64.032 582.013 65.152C582.429 66.24 582.989 67.136 583.693 67.84C584.397 68.512 585.213 69.008 586.141 69.328C587.069 69.648 588.061 69.808 589.117 69.808C590.461 69.808 591.629 69.6 592.621 69.184C593.645 68.768 594.509 68.32 595.213 67.84C595.917 67.36 596.477 66.912 596.893 66.496C597.341 66.08 597.661 65.872 597.853 65.872C597.981 65.872 598.109 65.936 598.237 66.064L598.429 66.256C597.949 66.896 597.357 67.504 596.653 68.08C595.981 68.624 595.229 69.104 594.397 69.52C593.597 69.904 592.733 70.208 591.805 70.432C590.909 70.656 590.013 70.768 589.117 70.768ZM626.713 22.192C630.009 22.192 632.937 22.784 635.497 23.968C638.057 25.12 640.201 26.752 641.929 28.864C643.689 30.976 645.017 33.536 645.913 36.544C646.809 39.52 647.257 42.832 647.257 46.48C647.257 50.128 646.809 53.44 645.913 56.416C645.017 59.36 643.689 61.888 641.929 64C640.201 66.112 638.057 67.744 635.497 68.896C632.937 70.016 630.009 70.576 626.713 70.576C623.385 70.576 620.441 70.016 617.881 68.896C615.353 67.744 613.209 66.112 611.449 64C609.721 61.888 608.409 59.36 607.513 56.416C606.617 53.44 606.169 50.128 606.169 46.48C606.169 42.832 606.617 39.52 607.513 36.544C608.409 33.536 609.721 30.976 611.449 28.864C613.209 26.752 615.353 25.12 617.881 23.968C620.441 22.784 623.385 22.192 626.713 22.192ZM626.713 69.616C629.913 69.616 632.729 69.056 635.161 67.936C637.593 66.816 639.609 65.248 641.209 63.232C642.841 61.216 644.057 58.784 644.857 55.936C645.689 53.088 646.105 49.936 646.105 46.48C646.105 43.024 645.689 39.872 644.857 37.024C644.057 34.144 642.841 31.68 641.209 29.632C639.609 27.584 637.593 26 635.161 24.88C632.729 23.728 629.913 23.152 626.713 23.152C623.481 23.152 620.649 23.728 618.217 24.88C615.817 26 613.801 27.584 612.169 29.632C610.569 31.68 609.353 34.144 608.521 37.024C607.721 39.872 607.321 43.024 607.321 46.48C607.321 49.936 607.721 53.088 608.521 55.936C609.353 58.784 610.569 61.216 612.169 63.232C613.801 65.248 615.817 66.816 618.217 67.936C620.649 69.056 623.481 69.616 626.713 69.616ZM692.083 70V25.936L684.211 25.744C683.827 25.744 683.635 25.616 683.635 25.36V24.976H692.083V19.696C692.083 16.784 692.483 14.208 693.283 11.968C694.115 9.696 695.267 7.808 696.739 6.304C698.211 4.768 699.971 3.616 702.019 2.848C704.067 2.048 706.323 1.648 708.786 1.648C709.715 1.648 710.675 1.744 711.667 1.936C712.659 2.09599 713.491 2.352 714.163 2.704L714.067 3.088C714.003 3.28 713.875 3.36 713.683 3.328C713.523 3.296 713.235 3.232 712.819 3.136C712.435 3.04 711.907 2.928 711.235 2.8C710.595 2.672 709.779 2.608 708.786 2.608C706.515 2.608 704.435 2.96 702.547 3.664C700.659 4.336 699.011 5.376 697.603 6.784C696.227 8.192 695.155 9.968 694.387 12.112C693.619 14.256 693.234 16.784 693.234 19.696V24.976H720.019V70H718.867V25.936H693.234V70H692.083ZM739.39 32.752C740.478 31.152 741.694 29.696 743.038 28.384C744.414 27.072 745.886 25.968 747.454 25.072C749.022 24.144 750.67 23.44 752.398 22.96C754.126 22.448 755.902 22.192 757.726 22.192C762.942 22.192 766.83 23.744 769.39 26.848C771.982 29.952 773.278 34.288 773.278 39.856V70H772.126V39.856C772.126 37.232 771.838 34.896 771.262 32.848C770.686 30.768 769.79 29.008 768.574 27.568C767.39 26.128 765.886 25.04 764.062 24.304C762.27 23.536 760.158 23.152 757.726 23.152C754.046 23.152 750.654 24.128 747.55 26.08C744.446 28.032 741.726 30.736 739.39 34.192V70H738.238V22.96H738.526C738.974 22.96 739.198 23.216 739.198 23.728L739.39 32.752ZM823.817 32.128C822.793 30.496 821.705 29.104 820.553 27.952C819.433 26.8 818.233 25.872 816.953 25.168C815.673 24.464 814.297 23.952 812.825 23.632C811.385 23.312 809.833 23.152 808.169 23.152C804.873 23.152 802.009 23.76 799.577 24.976C797.145 26.16 795.113 27.808 793.481 29.92C791.881 32.032 790.681 34.512 789.881 37.36C789.081 40.208 788.681 43.28 788.681 46.576C788.681 54.384 790.169 60.176 793.145 63.952C796.153 67.728 800.553 69.616 806.345 69.616C809.833 69.616 813.065 68.64 816.041 66.688C819.049 64.736 821.641 62.048 823.817 58.624V32.128ZM824.969 0.879997V70H824.681C824.233 70 824.009 69.744 824.009 69.232L823.817 60.112C821.705 63.344 819.145 65.904 816.137 67.792C813.161 69.648 809.897 70.576 806.345 70.576C800.233 70.576 795.561 68.624 792.329 64.72C789.129 60.784 787.529 54.736 787.529 46.576C787.529 43.184 787.961 40 788.825 37.024C789.689 34.048 790.985 31.472 792.713 29.296C794.441 27.088 796.585 25.36 799.145 24.112C801.737 22.832 804.745 22.192 808.169 22.192C815.081 22.192 820.297 24.992 823.817 30.592V0.879997H824.969Z" fill="#454545"/>
</svg>
