<svg width="775" height="88" viewBox="0 0 775 88" fill="none" xmlns="http://www.w3.org/2000/svg">
<path d="M42.496 22.96L14.752 86.224C14.656 86.48 14.512 86.72 14.32 86.944C14.128 87.168 13.888 87.28 13.6 87.28H12.928L20.992 69.184L0.64 22.96H1.312C1.568 22.96 1.776 23.04 1.936 23.2C2.096 23.328 2.208 23.472 2.272 23.632L20.992 66.352C21.248 66.896 21.456 67.488 21.616 68.128C21.68 67.84 21.76 67.552 21.856 67.264C21.984 66.944 22.112 66.64 22.24 66.352L40.96 23.632C41.184 23.184 41.472 22.96 41.824 22.96H42.496ZM70.525 22.192C73.821 22.192 76.749 22.784 79.309 23.968C81.869 25.12 84.013 26.752 85.741 28.864C87.501 30.976 88.829 33.536 89.725 36.544C90.621 39.52 91.069 42.832 91.069 46.48C91.069 50.128 90.621 53.44 89.725 56.416C88.829 59.36 87.501 61.888 85.741 64C84.013 66.112 81.869 67.744 79.309 68.896C76.749 70.016 73.821 70.576 70.525 70.576C67.197 70.576 64.253 70.016 61.693 68.896C59.165 67.744 57.021 66.112 55.261 64C53.533 61.888 52.221 59.36 51.325 56.416C50.429 53.44 49.981 50.128 49.981 46.48C49.981 42.832 50.429 39.52 51.325 36.544C52.221 33.536 53.533 30.976 55.261 28.864C57.021 26.752 59.165 25.12 61.693 23.968C64.253 22.784 67.197 22.192 70.525 22.192ZM70.525 69.616C73.725 69.616 76.541 69.056 78.973 67.936C81.405 66.816 83.421 65.248 85.021 63.232C86.653 61.216 87.869 58.784 88.669 55.936C89.501 53.088 89.917 49.936 89.917 46.48C89.917 43.024 89.501 39.872 88.669 37.024C87.869 34.144 86.653 31.68 85.021 29.632C83.421 27.584 81.405 26 78.973 24.88C76.541 23.728 73.725 23.152 70.525 23.152C67.293 23.152 64.461 23.728 62.029 24.88C59.629 26 57.613 27.584 55.981 29.632C54.381 31.68 53.165 34.144 52.333 37.024C51.533 39.872 51.133 43.024 51.133 46.48C51.133 49.936 51.533 53.088 52.333 55.936C53.165 58.784 54.381 61.216 55.981 63.232C57.613 65.248 59.629 66.816 62.029 67.936C64.461 69.056 67.293 69.616 70.525 69.616ZM140.344 22.96V70H140.056C139.608 70 139.384 69.744 139.384 69.232L139.192 60.208C138.072 61.808 136.84 63.264 135.496 64.576C134.152 65.888 132.696 67.008 131.128 67.936C129.56 68.832 127.912 69.52 126.184 70C124.456 70.512 122.68 70.768 120.856 70.768C115.608 70.768 111.704 69.216 109.144 66.112C106.584 63.008 105.304 58.672 105.304 53.104V22.96H106.456V53.104C106.456 55.728 106.744 58.08 107.32 60.16C107.896 62.208 108.776 63.952 109.96 65.392C111.176 66.832 112.68 67.936 114.472 68.704C116.264 69.44 118.392 69.808 120.856 69.808C124.536 69.808 127.928 68.832 131.032 66.88C134.136 64.928 136.856 62.224 139.192 58.768V22.96H140.344ZM159.109 36.736C159.781 34.432 160.581 32.384 161.509 30.592C162.437 28.768 163.541 27.232 164.821 25.984C166.133 24.736 167.621 23.792 169.285 23.152C170.981 22.512 172.901 22.192 175.045 22.192C175.973 22.192 176.917 22.272 177.877 22.432C178.869 22.56 179.749 22.832 180.517 23.248L180.325 23.632C180.261 23.728 180.197 23.824 180.133 23.92C180.101 23.984 180.005 24.016 179.845 24.016C179.685 24.016 179.477 23.984 179.221 23.92C178.965 23.824 178.645 23.728 178.261 23.632C177.909 23.536 177.461 23.456 176.917 23.392C176.405 23.296 175.781 23.248 175.045 23.248C172.933 23.248 171.061 23.584 169.429 24.256C167.797 24.928 166.341 25.92 165.061 27.232C163.813 28.544 162.693 30.192 161.701 32.176C160.741 34.16 159.877 36.464 159.109 39.088V70H157.957V22.96H158.245C158.693 22.96 158.917 23.216 158.917 23.728L159.109 36.736ZM217.328 60.64C219.376 63.936 221.664 66.256 224.192 67.6C226.72 68.944 229.648 69.616 232.976 69.616C236.272 69.616 239.136 69.024 241.568 67.84C244 66.624 246.016 64.96 247.616 62.848C249.248 60.736 250.464 58.256 251.264 55.408C252.064 52.56 252.464 49.488 252.464 46.192C252.464 38.384 250.96 32.592 247.952 28.816C244.976 25.04 240.592 23.152 234.8 23.152C231.312 23.152 228.064 24.128 225.056 26.08C222.08 28.032 219.504 30.72 217.328 34.144V60.64ZM217.328 32.656C219.44 29.424 221.984 26.88 224.96 25.024C227.968 23.136 231.248 22.192 234.8 22.192C240.88 22.192 245.536 24.16 248.768 28.096C252 32 253.616 38.032 253.616 46.192C253.616 49.616 253.168 52.816 252.272 55.792C251.408 58.736 250.112 61.312 248.384 63.52C246.656 65.696 244.496 67.424 241.904 68.704C239.344 69.952 236.368 70.576 232.976 70.576C226.064 70.576 220.848 67.776 217.328 62.176V87.28H216.176V22.96H216.464C216.912 22.96 217.136 23.216 217.136 23.728L217.328 32.656ZM302.763 42.064C302.763 39.024 302.331 36.336 301.467 34C300.603 31.632 299.403 29.648 297.867 28.048C296.363 26.448 294.587 25.232 292.539 24.4C290.491 23.568 288.299 23.152 285.963 23.152C283.147 23.152 280.603 23.6 278.331 24.496C276.091 25.392 274.155 26.672 272.523 28.336C270.891 30 269.579 32 268.587 34.336C267.627 36.64 267.003 39.216 266.715 42.064H302.763ZM302.475 64.432C301.931 65.104 301.115 65.808 300.027 66.544C298.971 67.248 297.707 67.904 296.235 68.512C294.795 69.12 293.211 69.616 291.483 70C289.755 70.384 287.979 70.576 286.155 70.576C282.923 70.576 280.027 70.016 277.467 68.896C274.907 67.744 272.731 66.096 270.939 63.952C269.179 61.808 267.819 59.184 266.859 56.08C265.899 52.976 265.419 49.456 265.419 45.52C265.419 42.064 265.883 38.912 266.811 36.064C267.739 33.184 269.083 30.72 270.843 28.672C272.603 26.624 274.747 25.04 277.275 23.92C279.835 22.768 282.731 22.192 285.963 22.192C288.427 22.192 290.747 22.64 292.923 23.536C295.099 24.4 296.987 25.696 298.587 27.424C300.219 29.152 301.499 31.28 302.427 33.808C303.355 36.304 303.819 39.184 303.819 42.448C303.819 42.608 303.755 42.736 303.627 42.832C303.531 42.896 303.403 42.928 303.243 42.928H266.667C266.635 43.376 266.603 43.808 266.571 44.224C266.571 44.64 266.571 45.072 266.571 45.52C266.571 49.424 267.035 52.88 267.963 55.888C268.891 58.864 270.203 61.376 271.898 63.424C273.627 65.44 275.691 66.976 278.091 68.032C280.523 69.088 283.211 69.616 286.155 69.616C288.779 69.616 291.051 69.328 292.971 68.752C294.891 68.176 296.491 67.536 297.771 66.832C299.051 66.128 300.027 65.488 300.699 64.912C301.371 64.336 301.771 64.048 301.899 64.048C302.027 64.048 302.155 64.112 302.283 64.24L302.475 64.432ZM319.047 36.736C319.719 34.432 320.519 32.384 321.447 30.592C322.375 28.768 323.479 27.232 324.759 25.984C326.071 24.736 327.559 23.792 329.223 23.152C330.919 22.512 332.839 22.192 334.983 22.192C335.911 22.192 336.855 22.272 337.815 22.432C338.807 22.56 339.687 22.832 340.455 23.248L340.263 23.632C340.199 23.728 340.135 23.824 340.071 23.92C340.039 23.984 339.943 24.016 339.783 24.016C339.623 24.016 339.415 23.984 339.159 23.92C338.903 23.824 338.583 23.728 338.199 23.632C337.847 23.536 337.399 23.456 336.855 23.392C336.343 23.296 335.719 23.248 334.983 23.248C332.871 23.248 330.999 23.584 329.367 24.256C327.735 24.928 326.279 25.92 324.999 27.232C323.751 28.544 322.631 30.192 321.639 32.176C320.679 34.16 319.815 36.464 319.047 39.088V70H317.895V22.96H318.183C318.631 22.96 318.855 23.216 318.855 23.728L319.047 36.736ZM353.439 70V25.936L345.567 25.744C345.183 25.744 344.991 25.616 344.991 25.36V24.976H353.439V17.776C353.439 15.088 353.759 12.768 354.398 10.816C355.039 8.832 355.919 7.2 357.039 5.92C358.159 4.64 359.503 3.696 361.071 3.088C362.639 2.448 364.367 2.128 366.255 2.128C367.183 2.128 368.143 2.224 369.135 2.41599C370.127 2.57599 370.959 2.832 371.631 3.184L371.535 3.568C371.471 3.792 371.343 3.888 371.151 3.856C370.959 3.824 370.655 3.76 370.239 3.664C369.855 3.536 369.327 3.408 368.655 3.27999C368.015 3.152 367.215 3.088 366.255 3.088C364.591 3.088 363.039 3.36 361.599 3.904C360.191 4.416 358.959 5.264 357.903 6.44799C356.879 7.59999 356.063 9.12 355.455 11.008C354.879 12.864 354.591 15.12 354.591 17.776V24.976H371.343V25.936H354.591V70H353.439ZM414.888 42.064C414.888 39.024 414.456 36.336 413.592 34C412.728 31.632 411.528 29.648 409.992 28.048C408.488 26.448 406.712 25.232 404.664 24.4C402.616 23.568 400.424 23.152 398.088 23.152C395.272 23.152 392.728 23.6 390.456 24.496C388.216 25.392 386.28 26.672 384.648 28.336C383.016 30 381.704 32 380.712 34.336C379.752 36.64 379.128 39.216 378.84 42.064H414.888ZM414.6 64.432C414.056 65.104 413.24 65.808 412.152 66.544C411.096 67.248 409.832 67.904 408.36 68.512C406.92 69.12 405.336 69.616 403.608 70C401.88 70.384 400.104 70.576 398.28 70.576C395.048 70.576 392.152 70.016 389.592 68.896C387.032 67.744 384.856 66.096 383.064 63.952C381.304 61.808 379.944 59.184 378.984 56.08C378.024 52.976 377.544 49.456 377.544 45.52C377.544 42.064 378.008 38.912 378.936 36.064C379.864 33.184 381.208 30.72 382.968 28.672C384.728 26.624 386.872 25.04 389.4 23.92C391.96 22.768 394.856 22.192 398.088 22.192C400.552 22.192 402.872 22.64 405.048 23.536C407.224 24.4 409.112 25.696 410.712 27.424C412.344 29.152 413.624 31.28 414.552 33.808C415.48 36.304 415.944 39.184 415.944 42.448C415.944 42.608 415.88 42.736 415.752 42.832C415.656 42.896 415.528 42.928 415.368 42.928H378.792C378.76 43.376 378.728 43.808 378.696 44.224C378.696 44.64 378.696 45.072 378.696 45.52C378.696 49.424 379.16 52.88 380.088 55.888C381.016 58.864 382.328 61.376 384.023 63.424C385.752 65.44 387.816 66.976 390.216 68.032C392.648 69.088 395.336 69.616 398.28 69.616C400.904 69.616 403.176 69.328 405.096 68.752C407.016 68.176 408.616 67.536 409.896 66.832C411.176 66.128 412.152 65.488 412.824 64.912C413.496 64.336 413.896 64.048 414.024 64.048C414.152 64.048 414.28 64.112 414.408 64.24L414.6 64.432ZM460.644 27.376C460.516 27.504 460.388 27.568 460.26 27.568C460.068 27.568 459.7 27.344 459.156 26.896C458.644 26.416 457.876 25.904 456.852 25.36C455.86 24.816 454.596 24.32 453.06 23.872C451.556 23.392 449.732 23.152 447.588 23.152C444.548 23.152 441.828 23.696 439.428 24.784C437.028 25.872 434.996 27.424 433.332 29.44C431.668 31.456 430.388 33.904 429.492 36.784C428.628 39.664 428.196 42.896 428.196 46.48C428.196 50.192 428.628 53.488 429.492 56.368C430.388 59.216 431.652 61.632 433.284 63.616C434.916 65.568 436.868 67.056 439.14 68.08C441.444 69.104 444.004 69.616 446.82 69.616C449.316 69.616 451.428 69.328 453.156 68.752C454.884 68.176 456.308 67.536 457.428 66.832C458.548 66.128 459.396 65.488 459.972 64.912C460.548 64.336 460.932 64.048 461.124 64.048C461.252 64.048 461.38 64.112 461.508 64.24L461.7 64.432C461.22 65.136 460.516 65.856 459.588 66.592C458.66 67.296 457.556 67.952 456.276 68.56C454.996 69.136 453.556 69.616 451.956 70C450.356 70.384 448.644 70.576 446.82 70.576C443.78 70.576 441.044 70.032 438.612 68.944C436.18 67.856 434.1 66.288 432.372 64.24C430.676 62.16 429.364 59.632 428.436 56.656C427.508 53.68 427.044 50.288 427.044 46.48C427.044 42.832 427.508 39.52 428.436 36.544C429.364 33.536 430.708 30.976 432.468 28.864C434.228 26.752 436.372 25.12 438.9 23.968C441.46 22.784 444.356 22.192 447.588 22.192C450.436 22.192 452.964 22.656 455.172 23.584C457.412 24.48 459.332 25.648 460.932 27.088L460.644 27.376ZM486.304 70.768C483.552 70.768 481.392 70.016 479.824 68.512C478.256 67.008 477.472 64.528 477.472 61.072V25.936H469.696C469.248 25.936 469.024 25.776 469.024 25.456V25.168L477.472 24.976L477.856 6.064C477.856 5.904 477.888 5.76 477.952 5.632C478.048 5.472 478.176 5.392 478.336 5.392H478.624V24.976H494.656V25.936H478.624V61.072C478.624 62.672 478.816 64.032 479.2 65.152C479.616 66.24 480.176 67.136 480.88 67.84C481.584 68.512 482.4 69.008 483.328 69.328C484.256 69.648 485.248 69.808 486.304 69.808C487.648 69.808 488.816 69.6 489.808 69.184C490.832 68.768 491.696 68.32 492.4 67.84C493.104 67.36 493.664 66.912 494.08 66.496C494.528 66.08 494.848 65.872 495.04 65.872C495.168 65.872 495.296 65.936 495.424 66.064L495.616 66.256C495.136 66.896 494.544 67.504 493.84 68.08C493.168 68.624 492.416 69.104 491.584 69.52C490.784 69.904 489.92 70.208 488.992 70.432C488.096 70.656 487.2 70.768 486.304 70.768ZM537.355 30.304C539.563 27.616 542.075 25.472 544.891 23.872C547.739 22.272 550.923 21.472 554.443 21.472C557.067 21.472 559.371 21.888 561.355 22.72C563.371 23.552 565.035 24.752 566.347 26.32C567.659 27.888 568.651 29.776 569.323 31.984C569.995 34.192 570.331 36.688 570.331 39.472V70H565.723V39.472C565.723 34.992 564.699 31.488 562.651 28.96C560.603 26.4 557.483 25.12 553.291 25.12C550.187 25.12 547.275 25.92 544.555 27.52C541.867 29.088 539.467 31.28 537.355 34.096V70H532.747V0.159998H537.355V30.304ZM604.44 21.472C607.864 21.472 610.92 22.064 613.608 23.248C616.328 24.4 618.616 26.048 620.472 28.192C622.328 30.336 623.736 32.928 624.696 35.968C625.688 38.976 626.184 42.352 626.184 46.096C626.184 49.84 625.688 53.216 624.696 56.224C623.736 59.232 622.328 61.808 620.472 63.952C618.616 66.096 616.328 67.744 613.608 68.896C610.92 70.048 607.864 70.624 604.44 70.624C601.016 70.624 597.944 70.048 595.224 68.896C592.536 67.744 590.248 66.096 588.36 63.952C586.504 61.808 585.08 59.232 584.088 56.224C583.128 53.216 582.648 49.84 582.648 46.096C582.648 42.352 583.128 38.976 584.088 35.968C585.08 32.928 586.504 30.336 588.36 28.192C590.248 26.048 592.536 24.4 595.224 23.248C597.944 22.064 601.016 21.472 604.44 21.472ZM604.44 67.024C607.288 67.024 609.768 66.544 611.88 65.584C614.024 64.592 615.8 63.184 617.208 61.36C618.648 59.536 619.72 57.344 620.424 54.784C621.128 52.192 621.48 49.296 621.48 46.096C621.48 42.928 621.128 40.048 620.424 37.456C619.72 34.864 618.648 32.656 617.208 30.832C615.8 28.976 614.024 27.552 611.88 26.56C609.768 25.568 607.288 25.072 604.44 25.072C601.592 25.072 599.096 25.568 596.952 26.56C594.84 27.552 593.064 28.976 591.624 30.832C590.216 32.656 589.144 34.864 588.408 37.456C587.704 40.048 587.352 42.928 587.352 46.096C587.352 49.296 587.704 52.192 588.408 54.784C589.144 57.344 590.216 59.536 591.624 61.36C593.064 63.184 594.84 64.592 596.952 65.584C599.096 66.544 601.592 67.024 604.44 67.024ZM639.06 70V22.24H641.604C642.404 22.24 642.868 22.64 642.996 23.44L643.428 30.352C645.284 27.696 647.412 25.552 649.812 23.92C652.212 22.288 654.916 21.472 657.924 21.472C661.412 21.472 664.196 22.48 666.276 24.496C668.388 26.512 669.812 29.312 670.548 32.896C671.124 30.944 671.924 29.248 672.948 27.808C674.004 26.368 675.204 25.184 676.548 24.256C677.892 23.296 679.348 22.592 680.916 22.144C682.516 21.696 684.148 21.472 685.812 21.472C688.18 21.472 690.308 21.872 692.196 22.672C694.084 23.44 695.684 24.592 696.996 26.128C698.308 27.664 699.316 29.552 700.02 31.792C700.724 34.032 701.076 36.592 701.076 39.472V70H696.516V39.472C696.516 34.8 695.508 31.248 693.492 28.816C691.476 26.352 688.596 25.12 684.852 25.12C683.188 25.12 681.588 25.424 680.052 26.032C678.548 26.64 677.204 27.552 676.02 28.768C674.868 29.952 673.94 31.44 673.236 33.232C672.564 35.024 672.228 37.104 672.228 39.472V70H667.62V39.472C667.62 34.832 666.692 31.28 664.836 28.816C663.012 26.352 660.324 25.12 656.772 25.12C654.18 25.12 651.78 25.888 649.572 27.424C647.364 28.96 645.396 31.088 643.668 33.808V70H639.06ZM749.814 41.296C749.814 38.736 749.446 36.448 748.71 34.432C748.006 32.384 746.998 30.656 745.686 29.248C744.374 27.84 742.806 26.768 740.982 26.032C739.19 25.264 737.206 24.88 735.03 24.88C732.566 24.88 730.358 25.264 728.406 26.032C726.454 26.8 724.758 27.904 723.318 29.344C721.91 30.784 720.774 32.512 719.91 34.528C719.046 36.544 718.47 38.8 718.182 41.296H749.814ZM717.942 44.224V45.136C717.942 48.72 718.358 51.872 719.19 54.592C720.022 57.312 721.206 59.6 722.742 61.456C724.278 63.28 726.134 64.656 728.31 65.584C730.486 66.512 732.918 66.976 735.606 66.976C738.006 66.976 740.086 66.72 741.846 66.208C743.606 65.664 745.078 65.072 746.262 64.432C747.478 63.76 748.438 63.168 749.142 62.656C749.846 62.112 750.358 61.84 750.678 61.84C751.094 61.84 751.414 62 751.638 62.32L752.886 63.856C752.118 64.816 751.094 65.712 749.814 66.544C748.566 67.376 747.158 68.096 745.59 68.704C744.054 69.28 742.39 69.744 740.598 70.096C738.838 70.448 737.062 70.624 735.27 70.624C732.006 70.624 729.03 70.064 726.342 68.944C723.654 67.792 721.35 66.128 719.43 63.952C717.51 61.776 716.022 59.12 714.966 55.984C713.942 52.816 713.43 49.2 713.43 45.136C713.43 41.712 713.91 38.56 714.87 35.68C715.862 32.768 717.27 30.272 719.094 28.192C720.95 26.08 723.206 24.432 725.862 23.248C728.55 22.064 731.59 21.472 734.982 21.472C737.67 21.472 740.166 21.936 742.47 22.864C744.774 23.792 746.774 25.152 748.47 26.944C750.166 28.704 751.494 30.88 752.454 33.472C753.446 36.064 753.942 39.04 753.942 42.4C753.942 43.104 753.846 43.584 753.654 43.84C753.462 44.096 753.142 44.224 752.694 44.224H717.942ZM765.268 66.304C765.268 65.696 765.38 65.12 765.604 64.576C765.828 64.032 766.132 63.568 766.516 63.184C766.932 62.768 767.396 62.448 767.908 62.224C768.452 61.968 769.044 61.84 769.684 61.84C770.292 61.84 770.868 61.968 771.412 62.224C771.956 62.448 772.42 62.768 772.804 63.184C773.22 63.568 773.54 64.032 773.764 64.576C774.02 65.12 774.148 65.696 774.148 66.304C774.148 66.944 774.02 67.536 773.764 68.08C773.54 68.592 773.22 69.056 772.804 69.472C772.42 69.856 771.956 70.16 771.412 70.384C770.868 70.608 770.292 70.72 769.684 70.72C768.436 70.72 767.38 70.304 766.516 69.472C765.684 68.608 765.268 67.552 765.268 66.304Z" fill="#454545"/>
</svg>
